<?xml version="1.0" standalone="no"?>
<!DOCTYPE svg PUBLIC "-//W3C//DTD SVG 1.1//EN" "http://www.w3.org/Graphics/SVG/1.1/DTD/svg11.dtd" >
<svg>
<metadata>
Created by FontForge 20090914 at Mon Mar 15 10:08:30 2021
 By www-data
Copyright (c) 1989 Adobe Systems Incorporated.  All Rights Reserved.
</metadata>
<defs>
<font id="18VAGRoundedMBold" horiz-adv-x="1176" >
  <font-face 
    font-family="18VAG Rounded M"
    font-weight="700"
    font-stretch="normal"
    units-per-em="2048"
    panose-1="2 11 8 0 0 0 0 0 0 0"
    ascent="1638"
    descent="-410"
    x-height="1090"
    cap-height="1470"
    bbox="-309 -446.002 2171 1903"
    underline-thickness="50"
    underline-position="-75"
    unicode-range="U+0020-U+F002"
  />
<missing-glyph horiz-adv-x="1536" 
d="M256 0v1280h1024v-1280h-1024zM1248 32v1216h-960v-1216h960z" />
    <glyph glyph-name=".notdef" horiz-adv-x="1536" 
d="M256 0v1280h1024v-1280h-1024zM1248 32v1216h-960v-1216h960z" />
    <glyph glyph-name="space.0" unicode=" " horiz-adv-x="1024" 
 />
    <glyph glyph-name="exclam" unicode="!" horiz-adv-x="684" 
d="M195 555l-0.000976562 788c0 43.333 13.5 77.5 40.5 102.5s62.5 37.5 106.5 37.5c44.667 0 80.334 -12.333 107.001 -37s40 -59 40 -103v-788c0 -42.667 -13.667 -76.5 -41 -101.5s-62.666 -37.5 -105.999 -37.5c-40.667 0 -75.334 13 -104.001 39s-43 59.333 -43 100z
M341.999 -25c-44 0 -81.667 15.667 -113 47s-47 69 -47 113s15.667 81.667 47 113s69 47 113 47s81.667 -15.667 113 -47s47 -69 47 -113s-15.667 -81.667 -47 -113s-69 -47 -113 -47z" />
    <glyph glyph-name="quotedbl" unicode="&#x22;" horiz-adv-x="909" 
d="M518 1012v348c0 82 41 123 123 123s123 -41 123 -123v-348c0 -82 -41 -123 -123 -123s-123 41 -123 123zM145 1012v348c0 82 41 123 123 123s123 -41 123 -123v-348c0 -82 -41 -123 -123 -123s-123 41 -123 123z" />
    <glyph glyph-name="numbersign" unicode="#" horiz-adv-x="1229" 
d="M303 612l33 234.002h-176c-66 0 -99 32.667 -99 98s33 98 99 98h205l45 330c8.66699 65.333 42.667 98 102 98c24.667 0 46.5 -7.5 65.5 -22.5s28.5 -34.5 28.5 -58.5v-23v0l-4 -27l-41 -297h197l45 330c8.66699 65.333 42.667 98 102 98c24.667 0 46.5 -7.5 65.5 -22.5
s28.5 -34.5 28.5 -58.5v-23v0l-4 -27l-41 -297h176c66 0 99 -32.667 99 -98s-33 -98 -99 -98h-204l-33 -234h176c65.333 0 98 -32.667 98 -98s-32.667 -98 -98 -98h-205l-45 -330c-8.66699 -65.333 -42.667 -98 -102 -98c-62.667 0 -94 27.333 -94 82v24
c0.666992 3.33301 2 11.666 4 24.999l41 297h-197l-45 -330c-8.66699 -65.333 -42.667 -98 -102 -98c-25.333 0 -47.5 7.5 -66.5 22.5s-28.5 34.833 -28.5 59.5v24c0.666992 3.33301 2 11.666 4 24.999l41 297h-176c-65.333 0 -98 32.667 -98 98s32.667 98 98 98h205z
M535 846.002l-33 -234h194l33 234h-194z" />
    <glyph glyph-name="dollar" unicode="$" horiz-adv-x="1100" 
d="M596 580v-299c88.667 20 133 75 133 165c0 59.333 -44.333 104 -133 134zM485 946v233.999c-72 -19.333 -108 -61 -108 -125c0 -45.333 36 -81.666 108 -108.999zM485 271.999l0.00195312 341.998c-71.333 20 -121.666 35 -150.999 45
c-54.667 19.333 -101.667 42 -141 68c-98.667 66 -148 163 -148 291c0 126.667 42.333 232.334 127 317.001c80.667 82 185 130 313 144v63c0 31.333 2.33301 53.333 7 66c7.33301 20 23.666 30 48.999 30c26 0 42.333 -10 49 -30c4 -12 6 -34 6 -66v-63
c146.667 -7.33301 253 -43 319 -107c26 -25.333 39 -56.666 39 -93.999c0 -43.333 -12 -79 -36 -107c-25.333 -30 -59 -45 -101 -45c-26.667 0 -63.334 8.33301 -110.001 25c-50 18 -87 28.333 -111 31v-273c109.333 -30 189.333 -58.667 240 -86
c150 -79.333 225 -203.333 225 -372c0 -132.667 -45 -242.334 -135 -329.001c-86 -82.667 -196 -129.334 -330 -140.001v-66c0 -64 -18.333 -96 -55 -96c-37.333 0 -56 32 -56 96v64c-189.333 6.66699 -322.333 45.334 -399 116.001c-31.333 28.667 -47 65 -47 109
c0 41.333 12.667 75.833 38 103.5s58.333 41.5 99 41.5c35.333 0 86.666 -11.667 153.999 -35s119 -37.666 155 -42.999z" />
    <glyph glyph-name="percent" unicode="%" horiz-adv-x="1479" 
d="M379 1030c33.333 0 59.333 11.668 78 35.001s28 52 28 86c0 82 -35.333 123 -106 123c-33.333 0 -59.5 -11.833 -78.5 -35.5s-28.5 -52.834 -28.5 -87.501c0 -34 9.5 -62.667 28.5 -86s45.167 -35 78.5 -35zM305 152.001l678 1278c22.667 43.333 54 65 94 65
c32.667 0 61 -11.167 85 -33.5s36 -49.5 36 -81.5c0 -20.667 -5.33301 -41 -16 -61l-688 -1288c-32 -45.333 -63 -68 -93 -68c-28 0 -54.333 11.667 -79 35s-37 49.333 -37 78c0 25.333 6.66699 50.666 20 75.999zM379 821.002c-88.667 0 -163.499 32.8311 -224.499 98.498
s-91.5 142.834 -91.5 231.501c0 90 30.333 167.833 91 233.5s135.667 98.5 225 98.5c90 0 165 -32.667 225 -98s90 -143.333 90 -234c0 -91.333 -29.333 -168.666 -88 -231.999c-60.667 -65.333 -136.334 -98 -227.001 -98zM1100 -25c-90 0 -165.166 32.499 -225.499 97.499
s-90.5 142.5 -90.5 232.5c0 90.667 30.167 168.667 90.5 234s135.5 98 225.5 98s165 -32.5 225 -97.5s90 -143.167 90 -234.5s-29.333 -168.666 -88 -231.999c-60.667 -65.333 -136.334 -98 -227.001 -98zM1100 183.999c33.333 0 59.333 11.668 78 35.001s28 52 28 86
c0 82 -35.333 123 -106 123c-33.333 0 -59.5 -11.833 -78.5 -35.5s-28.5 -52.834 -28.5 -87.501c0 -34 9.5 -62.667 28.5 -86s45.167 -35 78.5 -35z" />
    <glyph glyph-name="ampersand" unicode="&#x26;" horiz-adv-x="1442" 
d="M817 365l-297.001 328.999c-117.333 -76 -176 -158.667 -176 -248c0 -63.333 20 -112.666 60 -147.999c38 -34.667 89 -52 153 -52c88.667 0 175.334 39.667 260.001 119zM810.999 802.999l215 -237.998l80 92c55.333 63.333 107.333 95 156 95
c33.333 0 60.333 -12.833 81 -38.5s31 -55.834 31 -90.501c0 -51.333 -37.333 -116.333 -112 -195l-52 -55l140 -158c30 -34 45 -68 45 -102c0 -38 -14.333 -70.5 -43 -97.5s-62.334 -40.5 -101.001 -40.5c-41.333 0 -77.333 16 -108 48l-142 147
c-147.333 -130 -297.333 -195 -450 -195c-226 0 -379.667 84.667 -461 254c-27.333 56.667 -41 119.667 -41 189c0 182.667 103 330.667 309 444c-90 90 -135 182.333 -135 277c0 111.333 45.667 198.666 137 261.999c79.333 54.667 177 82 293 82
c106.667 0 200.334 -26.667 281.001 -80c91.333 -60 137 -140.667 137 -242c0 -148.667 -86.667 -268 -260 -358zM787.999 1130c0 64 -30 102.333 -90 115c-12.667 2.66699 -27.667 4 -45 4c-30 0 -57.333 -9.33301 -82 -28c-27.333 -20 -41 -44.667 -41 -74
c0 -48 36.333 -106.667 109 -176c34 18 59.333 33 76 45c48.667 35.333 73 73.333 73 114z" />
    <glyph glyph-name="quotesingle" unicode="'" horiz-adv-x="492" 
d="M123 1012v348c0 82 41 123 123 123s123 -41 123 -123v-348c0 -82 -41 -123 -123 -123s-123 41 -123 123z" />
    <glyph glyph-name="parenleft" unicode="(" horiz-adv-x="494" 
d="M352 1483c36 0 66.833 -11 92.5 -33s38.5 -50.667 38.5 -86c0 -12.667 -13 -57.667 -39 -135c-70.667 -209.333 -106 -424.333 -106 -645c0 -228.667 31.333 -431 94 -607l45 -131c4 -12.667 6 -22.667 6 -30c0 -38.667 -12.167 -70.167 -36.5 -94.5
s-55.833 -36.5 -94.5 -36.5c-40.667 0 -76 25.667 -106 77c-48 81.333 -89 215.333 -123 402c-28.667 156.667 -43 296.667 -43 420c0 124 17 275.333 51 454c40.667 212 92 351.333 154 418c16.667 18 39 27 67 27z" />
    <glyph glyph-name="parenright" unicode=")" horiz-adv-x="494" 
d="M141 -315c-35.333 0 -66 11 -92 33s-39 50.333 -39 85c0 14 13 59.333 39 136c71.333 210 107 425 107 645c0 226.667 -31.667 428.667 -95 606l-47 137c-2.66699 10 -4 18.333 -4 25c0 39.333 12 71 36 95s55.667 36 95 36c40.667 0 76.334 -26 107.001 -78
c50 -86 91.667 -219 125 -399c27.333 -149.333 41 -290 41 -422c0 -135.333 -16.333 -287 -49 -455c-42 -214.667 -94 -354 -156 -418c-16.667 -17.333 -39.334 -26 -68.001 -26z" />
    <glyph glyph-name="asterisk" unicode="*" horiz-adv-x="797" 
d="M397 1470c70 0 105.002 -31.335 105.002 -94.002c0 -10.667 -2.66699 -31.667 -8 -63c-3.33301 -20.667 -6.33301 -42.667 -9 -66l70 53c29.333 20.667 54.666 31 75.999 31c30 0 55.167 -12.167 75.5 -36.5s30.5 -51.833 30.5 -82.5c0 -43.333 -36.667 -78 -110 -104
c-20 -7.33301 -38 -15 -54 -23l79 -30c32.667 -14 55.667 -29 69 -45c10.667 -12.667 16 -29 16 -49c0 -30.667 -10 -58 -30 -82c-20.667 -26 -46 -39 -76 -39c-22 0 -47.333 10.667 -76 32l-70 54l11 -62c4 -23.333 6 -45.666 6 -66.999c0 -63.333 -35 -95 -105 -95
c-69.333 0 -104 31.667 -104 95v-3c1.33301 0 6.66602 44 15.999 132l-69 -54c-29.333 -21.333 -55.333 -32 -78 -32c-30.667 0 -55.5 12.333 -74.5 37s-28.5 52.667 -28.5 84c0 45.333 37 80 111 104c23.333 7.33301 40.333 14 51 20
c-8.66699 3.33301 -34.667 14.333 -78 33c-28 12.667 -50.333 28.334 -67 47.001c-11.333 13.333 -17 29 -17 47c0 31.333 9.5 59 28.5 83s43.833 36 74.5 36c25.333 0 74.333 -28 147 -84c-1.33301 11.333 -4.33301 33.5 -9 66.5s-7 53.833 -7 62.5
c0 62.667 34.667 94 104 94z" />
    <glyph glyph-name="plus" unicode="+" horiz-adv-x="1229" 
d="M492 641v297c0 82 40.667 123 122 123c82 0 123 -41 123 -123v-297h297c82 0 123 -41 123 -123s-41 -123 -123 -123h-297v-297c0 -82 -41 -123 -123 -123c-81.333 0 -122 41 -122 123v297h-297c-82 0 -123 41 -123 123s41 123 123 123h297z" />
    <glyph glyph-name="comma" unicode="," horiz-adv-x="549" 
d="M408 102l-172 -306.999c-26 -46 -65 -69 -117 -69c-35.333 0 -67.333 13.667 -96 41s-43 58.666 -43 93.999c0 14 2.66699 27.667 8 41l16 41l170 307c25.333 46 65 69 119 69c38 0 71 -13 99 -39s42 -58 42 -96c0 -24 -8.66699 -51.333 -26 -82z" />
    <glyph glyph-name="hyphen" unicode="-" horiz-adv-x="797" 
d="M180 723h436c38 0 67.667 -13 89 -39c18.667 -22.667 28 -53.334 28 -92.001c0 -36 -10.5 -66.167 -31.5 -90.5s-49.5 -36.5 -85.5 -36.5h-436c-34 0 -62.667 13.667 -86 41c-20.667 24.667 -31 53.334 -31 86.001c0 36.667 10.5 67.667 31.5 93s49.5 38 85.5 38z" />
    <glyph glyph-name="period" unicode="." horiz-adv-x="549" 
d="M115 135c0 44 15.499 81.667 46.499 113s68.5 47 112.5 47s81.667 -15.667 113 -47s47 -69 47 -113s-15.667 -81.667 -47 -113s-69 -47 -113 -47c-43.333 0 -80.666 15.833 -111.999 47.5s-47 69.167 -47 112.5z" />
    <glyph glyph-name="slash" unicode="/" horiz-adv-x="834" 
d="M35 145l547.001 1262c22 50.667 60 76 114 76c34 0 62.667 -10.333 86 -31s35 -48 35 -82c0 -10 -6 -29 -18 -57l-545 -1262c-22 -50.667 -60.333 -76 -115 -76c-32.667 0 -61.334 10.833 -86.001 32.5s-37 48.5 -37 80.5c0 8.66699 6.33301 27.667 19 57z" />
    <glyph glyph-name="zero" unicode="0" 
d="M588 254c90 0 153.333 61.334 190 184.001c22 73.333 33 170.333 33 291c0 205.333 -33.333 346.666 -100 423.999c-29.333 34 -70.333 51 -123 51c-148.667 0 -223 -158.333 -223 -475c0 -199.333 33.333 -339.333 100 -420c30 -36.667 71 -55 123 -55zM588 -24.999
c-187.333 0 -329.333 84.002 -426 252.002c-78 135.333 -117 302.666 -117 501.999s39 366.666 117 501.999c96.667 168 238.667 252 426 252s329.333 -84 426 -252c77.333 -134 116 -301.333 116 -502s-38.667 -368 -116 -502c-96.667 -168 -238.667 -252 -426 -252z" />
    <glyph glyph-name="one" unicode="1" horiz-adv-x="758" 
d="M311 147l-0.000976562 1029h-121c-42 0 -75.667 13 -101 39s-38 60 -38 102c0 39.333 13.5 72.666 40.5 99.999s59.833 41 98.5 41h291c42 0 75.333 -13.5 100 -40.5s37 -61.833 37 -104.5v-1166c0 -48 -13.667 -86.5 -41 -115.5s-64.666 -43.5 -111.999 -43.5
s-84.833 14.667 -112.5 44s-41.5 67.666 -41.5 114.999z" />
    <glyph glyph-name="two" unicode="2" 
d="M549 270l374.997 0.00195312c106 0 159 -45 159 -135s-49 -135 -147 -135h-684c-106.667 0 -160 45 -160 135c0 34 15.667 69 47 105l262 299c102.667 118 185.334 222.333 248.001 313c48 69.333 72 132.666 72 189.999c0 44 -13.833 81.333 -41.5 112
s-63.167 46 -106.5 46c-65.333 0 -113 -28.667 -143 -86c-8.66699 -16.667 -23 -55.667 -43 -117c-28 -86 -72.333 -129 -133 -129c-45.333 0 -81.666 13.667 -108.999 41s-41 63.666 -41 108.999c0 127.333 48.667 237 146 329c95.333 90.667 207.333 136 336 136
c130.667 0 238.334 -38 323.001 -114c87.333 -78.667 131 -182.667 131 -312c0 -126 -60 -265.333 -180 -418z" />
    <glyph glyph-name="three" unicode="3" 
d="M555 1483c137.333 0 247.334 -42.3301 330.001 -126.997c70.667 -72 106 -154.667 106 -248c0 -138 -56 -242.333 -168 -313c76.667 -35.333 137.5 -85.166 182.5 -149.499s67.5 -136.833 67.5 -217.5c0 -93.333 -30.333 -178.333 -91 -255
c-57.333 -72.667 -131.333 -126.334 -222 -161.001c-64.667 -24.667 -132.334 -37 -203.001 -37c-137.333 0 -256.666 44.667 -357.999 134c-88.667 78 -133 161.667 -133 251c0 39.333 16.667 72.666 50 99.999c30.667 25.333 66.334 38 107.001 38
c29.333 0 56.666 -13.667 81.999 -41c6 -6.66699 23.667 -32.667 53 -78c52 -80.667 119.667 -121 203 -121c54.667 0 100.5 18.333 137.5 55s55.5 82 55.5 136c0 81.333 -30 133.666 -90 156.999c-18 7.33301 -46 13.666 -84 18.999c-40 6 -68 11.333 -84 16
c-60 18 -90 59.667 -90 125c0 45.333 13.333 78.666 40 99.999c19.333 15.333 54.333 29.833 105 43.5s86 29.167 106 46.5c26 22.667 39 58.334 39 107.001c0 42.667 -13.667 76.167 -41 100.5s-62.666 36.5 -105.999 36.5c-68.667 0 -126.667 -33.333 -174 -100
c-28.667 -40 -46.334 -63.333 -53.001 -70c-21.333 -20.667 -48 -31 -80 -31c-40.667 0 -73.334 15.333 -98.001 46c-23.333 28.667 -35 64 -35 106c0 92.667 52.667 173 158 241c94 60.667 190 91 288 91z" />
    <glyph glyph-name="four" unicode="4" 
d="M670 322h-494c-38.667 0 -71.667 10 -99 30c-29.333 22 -44 52 -44 90c0 26 9.33301 56 28 90l459 832c44 79.333 113.667 119 209 119c74.667 0 133.334 -25.333 176.001 -76c40 -47.333 60 -109.333 60 -186v-629h34c41.333 0 75.666 -12.333 102.999 -37
s41 -57.334 41 -98.001c0 -41.333 -13.5 -74.166 -40.5 -98.499s-61.5 -36.5 -103.5 -36.5h-34v-175c0 -106 -49.333 -159 -148 -159c-98 0 -147 53 -147 159v175zM670 592v571h-4l-277 -571h281z" />
    <glyph glyph-name="five" unicode="5" 
d="M512 1176l-30.999 -218c61.333 14 112.666 21 153.999 21c122 0 223.167 -42 303.5 -126s120.5 -187.333 120.5 -310c0 -174.667 -46.333 -312.334 -139 -413.001c-96 -103.333 -230.667 -155 -404 -155c-91.333 0 -184 23.333 -278 70
c-114.667 56.667 -172 125 -172 205c0 38.667 13.5 71.5 40.5 98.5s59.833 40.5 98.5 40.5c18 0 63.667 -21.833 137 -65.5s133.333 -65.5 180 -65.5c69.333 0 124 28.333 164 85c35.333 50 53 111 53 183c0 138 -65.333 207 -196 207c-34.667 0 -76.5 -11.167 -125.5 -33.5
s-87.833 -33.5 -116.5 -33.5s-55.334 8.66699 -80.001 26c-27.333 18.667 -41 42 -41 70c0 14 0.666992 26.333 2 37l4 32l52 433c8 68 20 114.333 36 139c23.333 36.667 64.333 55 123 55h494c42.667 0 77.334 -10.667 104.001 -32c30 -23.333 45 -55.666 45 -96.999
c0 -102 -47.667 -153 -143 -153h-385z" />
    <glyph glyph-name="six" unicode="6" 
d="M588 -25c-154 0 -279.001 50.666 -375.001 151.999c-92.667 97.333 -139 216 -139 356c0 139.333 60.667 310 182 512c99.333 165.333 212 306.666 338 423.999c41.333 38.667 74 59.334 98 62.001c12 1.33301 21.667 2 29 2c33.333 0 65.833 -16.667 97.5 -50
s47.5 -66.666 47.5 -99.999c0 -20 -14.333 -48 -43 -84c-66.667 -69.333 -160.667 -178.333 -282 -327l4 -4c36.667 16 79.667 24 129 24c122.667 0 225.334 -46.333 308.001 -139c80 -89.333 120 -196 120 -320c0 -142.667 -49.833 -263 -149.5 -361
s-221.167 -147 -364.5 -147zM587.999 695.999c-60 0 -108 -20.998 -144 -62.998c-34 -39.333 -51 -89.333 -51 -150s17.5 -111.334 52.5 -152.001s82.5 -61 142.5 -61c59.333 0 107 21 143 63c34 40 51 90 51 150c0 61.333 -17.167 112.166 -51.5 152.499
s-81.833 60.5 -142.5 60.5z" />
    <glyph glyph-name="seven" unicode="7" horiz-adv-x="1102" 
d="M195 205l512.001 971.001h-525c-100.667 0 -151 47 -151 141s50.333 141 151 141h742c71.333 0 117.666 -33.333 138.999 -100c5.33301 -16.667 8 -32.334 8 -47.001c0 -26 -15.667 -71 -47 -135l-508 -1033c-28 -57.333 -48.333 -93.333 -61 -108
c-26.667 -31.333 -63.667 -47 -111 -47c-43.333 0 -82 13 -116 39c-36 28 -54 63.333 -54 106c0 21.333 7 45.333 21 72z" />
    <glyph glyph-name="eight" unicode="8" 
d="M588 668c-57.333 0 -103.333 -20.333 -138 -61c-32.667 -38 -49 -86 -49 -144c0 -57.333 17.167 -105.833 51.5 -145.5s79.5 -59.5 135.5 -59.5s101 20 135 60s51 88.333 51 145c0 61.333 -15.333 110.333 -46 147c-33.333 38.667 -80 58 -140 58zM588 -25
c-100.667 0 -192.667 23.666 -276 70.999c-88 50 -151.667 119.333 -191 208c-26 58 -39 120.667 -39 188c0 158.667 73 277 219 355c-104 73.333 -156 171 -156 293c0 119.333 45.333 216 136 290c84 68.667 186.333 103 307 103c121.333 0 224.333 -34.667 309 -104
c90 -74 135 -170.333 135 -289c0 -130 -52.667 -227.667 -158 -293c146.667 -71.333 220 -189.666 220 -354.999c0 -140 -50.667 -254 -152 -342c-96 -83.333 -214 -125 -354 -125zM588 1212c-46 0 -82.167 -14.167 -108.5 -42.5s-39.5 -65.833 -39.5 -112.5
c0 -104 49.333 -156 148 -156c99.333 0 149 52 149 156c0 103.333 -49.667 155 -149 155z" />
    <glyph glyph-name="nine" unicode="9" 
d="M588 1483c154.667 0 280.334 -50.666 377.001 -151.999c91.333 -96 137 -214.667 137 -356c0 -139.333 -60.667 -310 -182 -512c-100.667 -167.333 -213.334 -308.666 -338.001 -423.999c-41.333 -38 -74.333 -58.667 -99 -62c-10 -1.33301 -19.333 -2 -28 -2
c-33.333 0 -66 16.667 -98 50s-48 66.666 -48 99.999c0 20.667 14.333 48.667 43 84c67.333 69.333 161.666 178.666 282.999 327.999l-4 4c-37.333 -16.667 -80.333 -25 -129 -25c-121.333 0 -223.666 46.667 -306.999 140c-80.667 90 -121 196.333 -121 319
c0 143.333 49.667 263.833 149 361.5s221 146.5 365 146.5zM588 762.001c59.333 0 106.999 21.002 142.999 63.002c34 39.333 51 89.333 51 150c0 61.333 -16.667 111.666 -50 150.999c-36 41.333 -84 62 -144 62c-59.333 0 -106.666 -20.5 -141.999 -61.5
s-53 -91.5 -53 -151.5c0 -60.667 17.5 -111.334 52.5 -152.001s82.5 -61 142.5 -61z" />
    <glyph glyph-name="colon" unicode=":" horiz-adv-x="549" 
d="M115 793c0 43.333 15.668 80.667 47.001 112s68.666 47 111.999 47c44 0 81.667 -15.5 113 -46.5s47 -68.5 47 -112.5s-15.667 -81.667 -47 -113s-69 -47 -113 -47s-81.5 15.667 -112.5 47s-46.5 69 -46.5 113zM115.001 135.001c0 44 15.499 81.667 46.499 113
s68.5 47 112.5 47s81.667 -15.667 113 -47s47 -69 47 -113s-15.667 -81.667 -47 -113s-69 -47 -113 -47c-43.333 0 -80.666 15.833 -111.999 47.5s-47 69.167 -47 112.5z" />
    <glyph glyph-name="semicolon" unicode=";" horiz-adv-x="549" 
d="M293 319c38 0 71 -12.999 99 -38.999s42 -58 42 -96c0 -24 -8.66699 -51.333 -26 -82l-172 -307c-26 -46 -65 -69 -117 -69c-35.333 0 -67.333 13.667 -96 41s-43 58.666 -43 93.999c0 14 2.66699 27.667 8 41l16 41l170 307c25.333 46 65 69 119 69zM115 793.001
c0 43.333 15.668 80.667 47.001 112s68.666 47 111.999 47c44 0 81.667 -15.5 113 -46.5s47 -68.5 47 -112.5s-15.667 -81.667 -47 -113s-69 -47 -113 -47s-81.5 15.667 -112.5 47s-46.5 69 -46.5 113z" />
    <glyph glyph-name="less" unicode="&#x3c;" horiz-adv-x="1229" 
d="M401 518l682.001 -284.998c49.333 -20.667 74 -55.334 74 -104.001c0 -86 -32.667 -129 -98 -129c-26.667 0 -61 9.66699 -103 29l-809 372c-50 22.667 -75 61.667 -75 117s25 94.333 75 117l809 371c43.333 20 77.666 30 102.999 30c65.333 0 98 -43 98 -129
c0 -48.667 -24.667 -83.334 -74 -104.001z" />
    <glyph glyph-name="equal" unicode="=" horiz-adv-x="1229" 
d="M195 870h839c82 0 123 -40.667 123 -122c0 -82 -41 -123 -123 -123h-839c-82 0 -123 41 -123 123c0 81.333 41 122 123 122zM195 412h839c82 0 123 -41 123 -123s-41 -123 -123 -123h-839c-82 0 -123 41 -123 123s41 123 123 123z" />
    <glyph glyph-name="greater" unicode="&#x3e;" horiz-adv-x="1229" 
d="M145 233l682 284.998l-682 285c-48.667 20.667 -73 55.334 -73 104.001c0 86 32.667 129 98 129c24.667 0 58.667 -10 102 -30l809 -371c50.667 -23.333 76 -62.333 76 -117s-25.333 -93.667 -76 -117l-809 -372c-42 -19.333 -76 -29 -102 -29c-65.333 0 -98 43 -98 129
c0 48.667 24.333 83.334 73 104.001z" />
    <glyph glyph-name="question" unicode="?" horiz-adv-x="985" 
d="M301 557l0.000976562 205.002c0 34.667 19.667 60.667 59 78c7.33301 3.33301 43 13.333 107 30c109.333 28.667 164 86.667 164 174c0 44.667 -17.167 81.834 -51.5 111.501s-73.833 44.5 -118.5 44.5c-52 0 -98.333 -19.667 -139 -59l-107 -111
c-22 -22 -50 -33 -84 -33c-40 0 -71.333 15 -94 45c-20.667 27.333 -31 61.666 -31 102.999c0 99.333 52.667 182.666 158 249.999c92 58.667 191 88 297 88c98 0 186 -20.667 264 -62c84.667 -44.667 146.667 -108.667 186 -192c26 -54.667 39 -116.334 39 -185.001
c0 -214 -118 -351.667 -354 -413v-74c0 -42.667 -13.833 -76.834 -41.5 -102.501s-62.834 -38.5 -105.501 -38.5c-43.333 0 -78.833 12.833 -106.5 38.5s-41.5 59.834 -41.5 102.501zM449.001 -24.998c-44 0 -81.668 15.667 -113.001 47s-47 69 -47 113
s15.667 81.667 47 113s69 47 113 47s81.5 -15.667 112.5 -47s46.5 -69 46.5 -113s-15.667 -81.667 -47 -113s-68.666 -47 -111.999 -47z" />
    <glyph glyph-name="at" unicode="@" horiz-adv-x="1638" 
d="M735 516c60 0 109.666 21.998 148.999 65.998c37.333 42.667 56 94.334 56 155.001c0 50.667 -13.667 92.334 -41 125.001s-65.666 49 -114.999 49c-54 0 -100 -23.333 -138 -70c-36 -44 -54 -93.667 -54 -149c0 -48.667 11.667 -89 35 -121
c26.667 -36.667 62.667 -55 108 -55zM818.999 1483c144.667 0 280 -34.998 406 -104.998c124 -68.667 218.667 -165.667 284 -291c42.667 -81.333 64 -168.666 64 -261.999c0 -170 -75 -305.667 -225 -407c-109.333 -74 -209.666 -111 -300.999 -111
c-94.667 0 -142 33.667 -142 101h-4c-58.667 -67.333 -130.334 -101 -215.001 -101c-65.333 0 -123.666 22.667 -174.999 68c-47.333 41.333 -82.333 94.666 -105 159.999c-15.333 44.667 -23 87.667 -23 129c0 88 19.667 168.667 59 242
c41.333 77.333 99.333 135.666 174 174.999c49.333 26 104.666 39 165.999 39c106.667 0 186.667 -41 240 -123h4v25c0 65.333 38.333 98 115 98c62.667 0 94 -19 94 -57c0 -20 -2.66699 -42 -8 -66l-82 -372c-5.33301 -24 -8 -46.667 -8 -68c0 -28.667 15.667 -43 47 -43
c40.667 0 82.334 24.667 125.001 74c53.333 61.333 80 140.333 80 237c0 145.333 -61 263 -183 353c-108.667 80 -237.667 120 -387 120c-158 0 -292.333 -55.333 -403 -166s-166 -245 -166 -403s55.333 -292.333 166 -403s245 -166 403 -166c160 0 302 32 426 96
c13.333 6.66699 36.666 23.667 69.999 51c30.667 24.667 53 37 67 37c50.667 0 76 -25.333 76 -76c0 -28.667 -18.333 -65.334 -55 -110.001c-135.333 -122 -330 -183 -584 -183c-207.333 0 -384.666 74.667 -531.999 224s-221 326 -221 530
c0 209.333 73.167 387.333 219.5 534s324.166 220 533.499 220z" />
    <glyph glyph-name="A" unicode="A" horiz-adv-x="1290" 
d="M18 199l412 1114c42 113.333 115 170 219 170c105.333 0 178.333 -56.667 219 -170l402 -1114c10.667 -29.333 16 -54.666 16 -75.999c0 -39.333 -14 -71.666 -42 -96.999s-61 -38 -99 -38c-77.333 0 -127.333 35.333 -150 106l-61 193h-569l-62 -191
c-23.333 -72 -72.333 -108 -147 -108c-41.333 0 -77 13.5 -107 40.5s-45 61.167 -45 102.5c0 6.66699 4.66699 29.334 14 68.001zM647 1163l-194 -594h389l-191 594h-4z" />
    <glyph glyph-name="B" unicode="B" 
d="M92 156v1149c0 47.333 15 84.666 45 111.999s69 41 117 41h393c170.667 0 288.667 -70.333 354 -211c20.667 -44.667 31 -94.334 31 -149.001c0 -140.667 -63.333 -241 -190 -301v-4c90 -14 164.333 -53 223 -117s88 -141.333 88 -232c0 -142 -44.333 -252.333 -133 -331
c-84 -75.333 -198 -113 -342 -113h-422c-47.333 0 -86.5 14.333 -117.5 43s-46.5 66.334 -46.5 113.001zM399 1188v-307h160c50.667 0 91 14.333 121 43s45 68 45 118c0 97.333 -55.333 146 -166 146h-160zM399 610.001v-340h242c57.333 0 103.833 15.667 139.5 47
s53.5 75.333 53.5 132c0 107.333 -72.667 161 -218 161h-217z" />
    <glyph glyph-name="C" unicode="C" horiz-adv-x="1251" 
d="M35 729c0 216 65.333 395.668 196 539.001s300 215 508 215c178 0 309.333 -39 394 -117c31.333 -28.667 47 -66.334 47 -113.001c0 -38 -11.833 -70.333 -35.5 -97s-54.167 -40 -91.5 -40c-18.667 0 -63.5 12 -134.5 36s-130.833 36 -179.5 36
c-124.667 0 -222.334 -48.667 -293.001 -146c-61.333 -84.667 -92 -191 -92 -319c0 -129.333 33 -235 99 -317c72.667 -90.667 168 -136 286 -136c50.667 0 112.167 14.333 184.5 43s119.5 43 141.5 43c62 0 104.333 -32 127 -96c5.33301 -14.667 8 -29 8 -43
c0 -86 -58 -150.667 -174 -194c-85.333 -32 -181 -48 -287 -48c-209.333 0 -380.666 75.333 -513.999 226c-126.667 142.667 -190 318.667 -190 528z" />
    <glyph glyph-name="D" unicode="D" horiz-adv-x="1366" 
d="M92 154l-0.000976562 1146c0 48 14.333 86.333 43 115s67 43 115 43h340c227.333 0 405 -68.333 533 -205c125.333 -134 188 -315.333 188 -544c0 -214 -63.5 -385.667 -190.5 -515s-297.167 -194 -510.5 -194h-356c-47.333 0 -86.166 14 -116.499 42
s-45.5 65.333 -45.5 112zM398.999 1176l0.000976562 -893h207c127.333 0 224.666 42.667 291.999 128c62 77.333 93 181.333 93 312c0 139.333 -32 248 -96 326c-69.333 84.667 -172.333 127 -309 127h-187z" />
    <glyph glyph-name="E" unicode="E" horiz-adv-x="948" 
d="M92 154l0.00195312 1126c0 118.667 53.333 178 160 178h508c42 0 76.667 -13 104 -39s41 -60 41 -102c0 -40.667 -14 -74.334 -42 -101.001s-62.333 -40 -103 -40h-361v-299h336c45.333 0 81.666 -12.333 108.999 -37s41 -59.667 41 -105c0 -42 -14.333 -76 -43 -102
s-64.334 -39 -107.001 -39h-336v-311h379c42.667 0 77.667 -13 105 -39s41 -60.333 41 -103c0 -41.333 -14 -75.166 -42 -101.499s-62.667 -39.5 -104 -39.5h-528c-45.333 -0 -83 14.333 -113 43s-45 65.667 -45 111z" />
    <glyph glyph-name="F" unicode="F" horiz-adv-x="909" 
d="M92 147l0.00195312 1151c0 46.667 15 85 45 115s68.333 45 115 45h524c42.667 0 76.167 -12.833 100.5 -38.5s36.5 -59.834 36.5 -102.501c0 -41.333 -12.5 -75.166 -37.5 -101.499s-58.167 -39.5 -99.5 -39.5h-377v-299h318c43.333 0 78.666 -12.333 105.999 -37
s41 -59 41 -103c0 -42 -14 -76.333 -42 -103s-63 -40 -105 -40h-318v-447c0 -47.333 -13.833 -85.666 -41.5 -114.999s-64.834 -44 -111.501 -44c-47.333 0 -84.833 14.667 -112.5 44s-41.5 67.666 -41.5 114.999z" />
    <glyph glyph-name="G" unicode="G" horiz-adv-x="1442" 
d="M879 864h347.996c120 0 180 -65.333 180 -196c0 -142.667 -32.333 -269.667 -97 -381c-68.667 -119.333 -166 -205.333 -292 -258c-86 -36 -179 -54 -279 -54c-209.333 0 -380.666 75.333 -513.999 226c-126.667 142.667 -190 318.667 -190 528
c0 216 65.333 395.667 196 539s300 215 508 215c113.333 0 227 -21.333 341 -64c148.667 -55.333 223 -130.333 223 -225c0 -40 -11 -73.333 -33 -100c-23.333 -28.667 -54.666 -43 -93.999 -43c-36 0 -66.333 8 -91 24l-79 51c-76.667 49.333 -165.667 74 -267 74
c-124 0 -221.667 -49.667 -293 -149c-61.333 -86 -92 -193.333 -92 -322c0 -132 32.333 -241.333 97 -328c70.667 -95.333 166.667 -143 288 -143c102.667 0 185.667 28 249 84c66 59.333 99 139.333 99 240h-208c-41.333 0 -75.666 13.667 -102.999 41s-41 61.333 -41 102
c0 42.667 13.333 76.5 40 101.5s61.334 37.5 104.001 37.5z" />
    <glyph glyph-name="H" unicode="H" horiz-adv-x="1442" 
d="M92 147l0.000976562 1164c0 106 51.333 159 154 159c102 0 153 -53 153 -159v-434h643v434c0 106 51.333 159 154 159s154 -53 154 -159v-1164c0 -47.333 -13.833 -85.666 -41.5 -114.999s-65.167 -44 -112.5 -44s-84.833 14.667 -112.5 44s-41.5 67.666 -41.5 114.999
v447h-643v-447c0 -47.333 -13.833 -85.666 -41.5 -114.999s-64.834 -44 -111.501 -44c-47.333 0 -84.833 14.667 -112.5 44s-41.5 67.666 -41.5 114.999z" />
    <glyph glyph-name="I" unicode="I" horiz-adv-x="492" 
d="M92 147l0.000976562 1164c0 106 51.333 159 154 159c102 0 153 -53 153 -159v-1164c0 -47.333 -13.833 -85.666 -41.5 -114.999s-64.834 -44 -111.501 -44c-47.333 0 -84.833 14.667 -112.5 44s-41.5 67.666 -41.5 114.999z" />
    <glyph glyph-name="J" unicode="J" horiz-adv-x="834" 
d="M754 1311l0.000976562 -901c0 -158 -43.667 -273.667 -131 -347c-70 -58.667 -161.667 -88 -275 -88c-152 0 -264.667 41 -338 123c-26 29.333 -39 66.333 -39 111c0 31.333 11.5 60 34.5 86s49.833 39 80.5 39c25.333 0 65.666 -12.333 120.999 -37
c58 -26 99.667 -39 125 -39c50.667 0 84 20.333 100 61c9.33301 24 14 61 14 111v881c0 106 51.333 159 154 159s154 -53 154 -159z" />
    <glyph glyph-name="K" unicode="K" horiz-adv-x="1251" 
d="M92 135l0.000976562 1184c0 46 14 82.667 42 110s65.333 41 112 41c46 0 83 -13.667 111 -41s42 -64 42 -110v-442l504 536c36 38 75.667 57 119 57c44 0 80.333 -13.667 109 -41s43 -62.666 43 -105.999s-33.667 -98 -101 -164l-387 -381l473 -493
c57.333 -60 86 -112 86 -156c0 -94 -53.333 -141 -160 -141c-44 0 -95.667 32 -155 96l-531 573v-522c0 -44 -14.333 -79.5 -43 -106.5s-65.334 -40.5 -110.001 -40.5s-81.5 13.5 -110.5 40.5s-43.5 62.5 -43.5 106.5z" />
    <glyph glyph-name="L" unicode="L" horiz-adv-x="872" 
d="M92 168l0.000976562 1143c0 106 51.333 159 154 159c102 0 153 -53 153 -159v-1028h365c43.333 0 78.666 -13 105.999 -39s41 -60.333 41 -103v-6c-1.33301 -38.667 -16.333 -70.834 -45 -96.501s-62.667 -38.5 -102 -38.5h-512c-106.667 0 -160 56 -160 168z" />
    <glyph glyph-name="M" unicode="M" horiz-adv-x="1782" 
d="M51 170l191.003 1143c7.33301 44.667 31.333 82.334 72 113.001c38.667 29.333 81.334 44 128.001 44s89.167 -13.5 127.5 -40.5s64.166 -62.5 77.499 -106.5l242 -811h4l242 811c13.333 46 39.333 82 78 108s80.667 39 126 39c46 0 89.167 -15 129.5 -45
s64.166 -67.333 71.499 -112l191 -1143c1.33301 -8 2 -14 2 -18v-17c0 -44 -13.667 -79.5 -41 -106.5s-63 -40.5 -107 -40.5c-92.667 0 -146 47.667 -160 143l-120 834h-5l-245 -859c-22.667 -78.667 -77.334 -118 -164.001 -118s-141.334 39.333 -164.001 118l-246 859h-4
l-121 -834c-14 -95.333 -67 -143 -159 -143c-44 0 -79.667 13.5 -107 40.5s-41 62.5 -41 106.5v17c0 4 0.666992 10 2 18z" />
    <glyph glyph-name="N" unicode="N" horiz-adv-x="1403" 
d="M80 147l0.00195312 1164c0 106 51 159 153 159c23.333 0 47.166 -6.66699 71.499 -20s43.5 -29 57.5 -47l650 -866h4v774c0 106 51 159 153 159c102.667 0 154 -53 154 -159v-1164c0 -47.333 -13.833 -85.666 -41.5 -114.999s-65.167 -44 -112.5 -44
c-18.667 0 -41.667 7.33301 -69 22c-29.333 15.333 -49.333 30.333 -60 45l-649 856h-4v-764c0 -47.333 -13.833 -85.666 -41.5 -114.999s-65.167 -44 -112.5 -44c-46.667 0 -83.834 14.667 -111.501 44s-41.5 67.666 -41.5 114.999z" />
    <glyph glyph-name="O" unicode="O" horiz-adv-x="1479" 
d="M739 258c126 0 223.667 49.333 293 148c61.333 87.333 92 195 92 323c0 208.667 -72.333 352.667 -217 432c-47.333 26 -103.333 39 -168 39c-124 0 -221.667 -49.667 -293 -149c-61.333 -86 -92 -193.333 -92 -322c0 -132 32.333 -241.333 97 -328
c70.667 -95.333 166.667 -143 288 -143zM739 -25c-209.333 0 -380.667 75.333 -514 226c-126.667 142.667 -190 318.667 -190 528c0 216 65.333 395.667 196 539s300 215 508 215c206 0 376.333 -75 511 -225c129.333 -144 194 -320.333 194 -529
c0 -212.667 -65 -390.667 -195 -534c-133.333 -146.667 -303.333 -220 -510 -220z" />
    <glyph glyph-name="P" unicode="P" horiz-adv-x="1139" 
d="M92 147l0.000976562 1151c0 106.667 53.333 160 160 160h362c150.667 0 274.667 -43.333 372 -130c102 -90 153 -209.667 153 -359c0 -104.667 -27.833 -197 -83.5 -277s-132.5 -138 -230.5 -174c-63.333 -23.333 -129.333 -35 -198 -35h-228v-336
c0 -47.333 -13.833 -85.666 -41.5 -114.999s-64.834 -44 -111.501 -44c-47.333 0 -84.833 14.667 -112.5 44s-41.5 67.666 -41.5 114.999zM399.001 1188v-434h209c64 0 115.167 20.167 153.5 60.5s57.5 92.5 57.5 156.5s-19.333 116.167 -58 156.5s-89.667 60.5 -153 60.5
h-209z" />
    <glyph glyph-name="Q" unicode="Q" horiz-adv-x="1479" 
d="M1217 -33l-117.001 98.999c-106.667 -60.667 -227 -91 -361 -91c-209.333 0 -380.666 75.333 -513.999 226c-126.667 142.667 -190 318.667 -190 528c0 216 65.333 395.667 196 539s300 215 508 215c206 0 376.333 -75 511 -225c129.333 -144 194 -320.333 194 -529
c0 -184 -45.667 -341.667 -137 -473l116 -100c48 -41.333 72 -83 72 -125c0 -35.333 -14.5 -65.666 -43.5 -90.999s-61.5 -38 -97.5 -38c-40 0 -85.667 21.667 -137 65zM974.999 546.999l100 -79.998c32.667 70.667 49 158 49 262c0 129.333 -32 238 -96 326
c-70 96.667 -166.333 145 -289 145c-124 0 -221.667 -49.667 -293 -149c-61.333 -86 -92 -193.333 -92 -322c0 -132 32.333 -241.333 97 -328c70.667 -95.333 166.667 -143 288 -143c40 0 83.667 4.66699 131 14l-73 72c-26 25.333 -39 52.666 -39 81.999
c0 41.333 13 76.166 39 104.499s59.333 42.5 100 42.5c24.667 0 50.667 -8.66699 78 -26z" />
    <glyph glyph-name="R" unicode="R" horiz-adv-x="1139" 
d="M92 147v1151c0 106.667 52.667 160 158 160h360c340 0 510 -154.333 510 -463c0 -108 -37 -196.667 -111 -266c-67.333 -62.667 -156.666 -103 -267.999 -121l349 -372c26.667 -28.667 40 -59 40 -91c0 -42.667 -15 -79.5 -45 -110.5s-66 -46.5 -108 -46.5
c-50 0 -89.667 17.667 -119 53l-455 551h-4v-445c0 -47.333 -13.833 -85.666 -41.5 -114.999s-64.834 -44 -111.501 -44c-47.333 0 -84.833 14.667 -112.5 44s-41.5 67.666 -41.5 114.999zM399 1176v-363h211c58.667 0 105.167 16.167 139.5 48.5s51.5 76.833 51.5 133.5
c0 120.667 -63.667 181 -191 181h-211z" />
    <glyph glyph-name="S" unicode="S" horiz-adv-x="1100" 
d="M553 1483c151.333 0 269.333 -35 354 -105c31.333 -26 47 -59.333 47 -100c0 -43.333 -12 -79 -36 -107c-25.333 -30 -59 -45 -101 -45c-24.667 0 -56.667 7 -96 21l-94 33c-24.667 5.33301 -52 8 -82 8c-44.667 0 -82.667 -10.667 -114 -32
c-36 -24.667 -54 -58.334 -54 -101.001c0 -54 59.333 -98.333 178 -133c74 -21.333 130 -38.666 168 -51.999c65.333 -22.667 119.333 -47.667 162 -75c117.333 -75.333 176 -190 176 -344c0 -144.667 -52 -261.334 -156 -350.001c-98 -84 -220.667 -126 -368 -126
c-204 0 -351.667 37.667 -443 113c-36.667 30 -55 69 -55 117c0 41.333 12.667 75.833 38 103.5s58.333 41.5 99 41.5c32 0 84.667 -13 158 -39c76.667 -27.333 138.667 -41 186 -41c59.333 0 108 14 146 42c42 32 63 76.667 63 134c0 66.667 -58.667 117.334 -176 152.001
l-170 47c-56 17.333 -109.333 40 -160 68c-118.667 66 -178 167.667 -178 305c0 140 50.333 253.667 151 341c96 82.667 215 124 357 124z" />
    <glyph glyph-name="T" unicode="T" horiz-adv-x="983" 
d="M338 147l0.000976562 1029h-223c-42.667 0 -76.667 12.833 -102 38.5s-38 59.834 -38 102.501c0 39.333 13.5 72.666 40.5 99.999s60.167 41 99.5 41h753c40.667 0 74.167 -13.333 100.5 -40s39.5 -60.334 39.5 -101.001c0 -44 -12.5 -78.5 -37.5 -103.5
s-59.167 -37.5 -102.5 -37.5h-223v-1029c0 -47.333 -13.833 -85.666 -41.5 -114.999s-64.834 -44 -111.501 -44c-47.333 0 -84.833 14.667 -112.5 44s-41.5 67.666 -41.5 114.999z" />
    <glyph glyph-name="U" unicode="U" horiz-adv-x="1403" 
d="M80 580v731c0 106 51 159 153 159c102.667 0 154 -53 154 -159v-715c0 -97.333 28 -177.333 84 -240c58 -65.333 135 -98 231 -98c92 0 168 33.667 228 101c57.333 64.667 86 143.667 86 237v715c0 106 51 159 153 159c102.667 0 154 -53 154 -159v-731
c0 -171.333 -60.5 -315 -181.5 -431s-267.5 -174 -439.5 -174c-174 0 -320.667 57 -440 171c-121.333 116 -182 260.667 -182 434z" />
    <glyph glyph-name="V" unicode="V" horiz-adv-x="1212" 
d="M455 106l-448.999 1141c-9.33301 24 -14 49.333 -14 76c0 43.333 15.333 78.666 46 105.999s68 41 112 41c60 0 106.333 -33.333 139 -100l317 -852l318 852c32.667 66.667 79 100 139 100c44 0 81.333 -13.667 112 -41s46 -62.666 46 -105.999
c0 -25.333 -5 -50.666 -15 -75.999l-448 -1141c-30.667 -78.667 -81.334 -118 -152.001 -118c-70 0 -120.333 39.333 -151 118z" />
    <glyph glyph-name="W" unicode="W" horiz-adv-x="1860" 
d="M285 147l-259.999 1119c-6 26 -9 49 -9 69c0 39.333 14.333 71.666 43 96.999s63 38 103 38c90 0 144.667 -49 164 -147l174 -870h4l266 897c24 80 77.333 120 160 120s136 -40 160 -120l266 -897h4l174 870c19.333 98 74 147 164 147c39.333 0 73.333 -12.667 102 -38
s43 -57.666 43 -96.999c0 -23.333 -2.66699 -46.333 -8 -69l-260 -1119c-24.667 -106 -92.334 -159 -203.001 -159c-105.333 0 -173 49.667 -203 149l-237 791h-4l-238 -791c-30 -99.333 -97.667 -149 -203 -149c-110 0 -177.333 53 -202 159z" />
    <glyph glyph-name="X" unicode="X" horiz-adv-x="1253" 
d="M43 236l406.003 544l-332 451c-22 30 -33 60 -33 90c0 45.333 14.667 81.5 44 108.5s66.666 40.5 111.999 40.5c53.333 0 97.666 -25 132.999 -75l254 -361l254 361c35.333 50 79.666 75 132.999 75c46 0 83.333 -13.333 112 -40s43 -63 43 -109
c0 -31.333 -10.667 -61.333 -32 -90l-332 -451l405 -544c23.333 -31.333 35 -66.333 35 -105c0 -44.667 -14.5 -79.667 -43.5 -105s-66.167 -38 -111.5 -38c-52.667 0 -95 22.333 -127 67l-336 467l-336 -467c-32 -44.667 -74.333 -67 -127 -67c-44 0 -81 13 -111 39
s-45 60.667 -45 104c0 38.667 11.667 73.667 35 105z" />
    <glyph glyph-name="Y" unicode="Y" horiz-adv-x="1098" 
d="M395 137l-0.000976562 547l-387 545c-18.667 26 -28 56.667 -28 92c0 40.667 14 75.667 42 105s63 44 105 44c56.667 0 99 -20.333 127 -61l295 -428l295 428c28 40.667 70.333 61 127 61c42.667 0 77.834 -14.167 105.501 -42.5s41.5 -63.833 41.5 -106.5
c0 -35.333 -9.33301 -66 -28 -92l-388 -545v-547c0 -99.333 -51 -149 -153 -149c-102.667 0 -154 49.667 -154 149z" />
    <glyph glyph-name="Z" unicode="Z" horiz-adv-x="1214" 
d="M428 270h594.001c98 0 147 -45 147 -135c0 -38 -14.833 -70 -44.5 -96s-63.834 -39 -102.501 -39h-805c-48.667 0 -88.667 12 -120 36c-34.667 26.667 -52 63.667 -52 111c0 41.333 13.667 81 41 119l659 922h-538c-96 0 -144 43.667 -144 131c0 40 14 73.167 42 99.5
s62 39.5 102 39.5h749c48.667 0 88.667 -12 120 -36c34.667 -26.667 52 -63.667 52 -111c0 -45.333 -15 -89 -45 -131z" />
    <glyph glyph-name="bracketleft" unicode="[" horiz-adv-x="569" 
d="M90 -168v1503c0 98.667 50 148 150 148h204c72.667 0 109 -39 109 -117s-36.333 -117 -109 -117h-96v-1331h96c72.667 0 109 -39 109 -117c0 -77.333 -36.333 -116 -109 -116h-204c-44 0 -80 13.333 -108 40s-42 62.334 -42 107.001z" />
    <glyph glyph-name="backslash" unicode="\" horiz-adv-x="834" 
d="M252 1407l547.001 -1262c12 -28 18 -47 18 -57c0 -32 -12.333 -58.833 -37 -80.5s-53.334 -32.5 -86.001 -32.5c-52.667 0 -90 25.333 -112 76l-549 1262c-11.333 26 -17 45 -17 57c0 32.667 11.833 59.667 35.5 81s52.167 32 85.5 32c54.667 0 93 -25.333 115 -76z" />
    <glyph glyph-name="bracketright" unicode="]" horiz-adv-x="569" 
d="M479 1335v-1503c0 -44.667 -13.833 -80.334 -41.5 -107.001s-63.5 -40 -107.5 -40h-205c-72.667 0 -109 38.667 -109 116c0 78 36.333 117 109 117h96v1331h-96c-72.667 0 -109 39 -109 117s36.333 117 109 117h205c99.333 0 149 -49.333 149 -148z" />
    <glyph glyph-name="asciicircum" unicode="^" horiz-adv-x="1229" 
d="M614 1163l-256 -473c-21.333 -30 -56 -45 -104 -45c-69.333 0 -104 27.333 -104 82c0 23.333 8.66699 50.666 26 81.999l330 600c22.667 40.667 58.667 61 108 61c50 0 86.333 -20.333 109 -61l330 -600c17.333 -31.333 26 -58.666 26 -81.999
c0 -54.667 -34.667 -82 -104 -82c-48 0 -83 15 -105 45z" />
    <glyph glyph-name="underscore" unicode="_" horiz-adv-x="1024" 
d="M1024 -256h-1024c-39.333 0 -59 17 -59 51s19.667 51 59 51h1024c39.333 0 59 -17 59 -51s-19.667 -51 -59 -51z" />
    <glyph glyph-name="grave" unicode="`" horiz-adv-x="455" 
d="M164 1563l257.999 -107c38 -16 57 -43.333 57 -82c0 -35.333 -9.5 -69 -28.5 -101s-45.5 -48 -79.5 -48h-21c-6.66699 0 -27 6.66699 -61 20l-230 90c-56 22 -84 62.333 -84 121c0 29.333 11.333 57.833 34 85.5s48.334 41.5 77.001 41.5c20 0 46 -6.66699 78 -20z" />
    <glyph glyph-name="a" unicode="a" 
d="M1092 909l0.000976562 -729c0 -88 -20 -145.333 -60 -172c-20 -13.333 -47.333 -20 -82 -20c-73.333 0 -120.333 41.667 -141 125c-76.667 -92 -170.334 -138 -281.001 -138c-106 0 -199.333 31.333 -280 94c-77.333 60 -134 141.333 -170 244
c-24.667 70.667 -37 147.334 -37 230.001c0 150 43 280.333 129 391c92.667 120 212 180 358 180c123.333 0 217 -45 281 -135c4 35.333 19.5 64.666 46.5 87.999s58.5 35 94.5 35c62 0 103.667 -22.667 125 -68c11.333 -24 17 -65.667 17 -125zM336.001 543
c0 -80 18.998 -147.666 56.998 -202.999c42.667 -62.667 101.334 -94 176.001 -94c72 0 129.333 32.667 172 98c37.333 57.333 56 123.666 56 198.999c0 128.667 -42.333 220 -127 274c-28 18 -61.667 27 -101 27c-75.333 0 -134.666 -33 -177.999 -99
c-36.667 -56 -55 -123.333 -55 -202z" />
    <glyph glyph-name="b" unicode="b" 
d="M84 152v1261c0 45.333 13.333 84 40 116s62.334 48 107.001 48c46.667 0 83 -15.5 109 -46.5s39 -70.167 39 -117.5v-401c79.333 68 172.666 102 279.999 102c151.333 0 271 -62 359 -186c78 -110 117 -242.667 117 -398c0 -148.667 -43.667 -276.334 -131 -383.001
c-94 -114.667 -212.333 -172 -355 -172c-125.333 0 -215.333 45.333 -270 136c-19.333 -82 -68.666 -123 -147.999 -123c-44.667 0 -80.334 16 -107.001 48s-40 70.667 -40 116zM379 553.001c0 -80 17.999 -148.667 53.999 -206c42 -67.333 101 -101 177 -101
c72.667 0 130.667 32.667 174 98c37.333 56 56 122.333 56 199c0 73.333 -19.333 140 -58 200c-43.333 67.333 -100.666 101 -171.999 101c-74 0 -132.667 -31.333 -176 -94c-36.667 -53.333 -55 -119 -55 -197z" />
    <glyph glyph-name="c" unicode="c" horiz-adv-x="948" 
d="M930 928c0 -35.333 -10.498 -67.834 -31.498 -97.501s-48.167 -44.5 -81.5 -44.5c-24.667 0 -61.834 9.66699 -111.501 29s-90.167 29 -121.5 29c-80.667 0 -143.667 -31.333 -189 -94c-39.333 -54 -59 -123 -59 -207c0 -80 21 -147.667 63 -203
c47.333 -62.667 109 -94 185 -94c33.333 0 75.5 10.167 126.5 30.5s81.833 30.5 92.5 30.5c36 0 66.167 -12.5 90.5 -37.5s36.5 -55.5 36.5 -91.5c0 -68 -46.333 -120.667 -139 -158c-74 -30 -148 -45 -222 -45c-156.667 0 -285 56 -385 168
c-95.333 108 -143 241.333 -143 400c0 154.667 48.667 287.334 146 398.001c102 115.333 229.333 173 382 173c143.333 0 250.666 -32 321.999 -96c26 -23.333 39 -53.333 39 -90z" />
    <glyph glyph-name="d" unicode="d" 
d="M1092 1413v-1261c0 -47.333 -12.667 -86 -38 -116c-26.667 -32 -63.334 -48 -110.001 -48c-79.333 0 -128.333 41 -147 123c-54.667 -90.667 -145 -136 -271 -136c-142 0 -260 58.333 -354 175c-87.333 108.667 -131 235.334 -131 380.001c0 113.333 21 215.333 63 306
c46 98.667 114.333 174.334 205 227.001c58.667 34 127.667 51 207 51c108 0 201.667 -34 281 -102v401c0 45.333 13.333 84 40 116s62.334 48 107.001 48c46.667 0 83 -15.5 109 -46.5s39 -70.167 39 -117.5zM797 552.998c0 77.333 -19.001 143.335 -57.001 198.002
c-42.667 62 -101 93 -175 93c-72.667 0 -130.667 -33.667 -174 -101c-36.667 -56.667 -55 -123.334 -55 -200.001s18.667 -143.334 56 -200.001c42.667 -64.667 100.334 -97 173.001 -97c76.667 0 136 33.333 178 100c36 56.667 54 125.667 54 207z" />
    <glyph glyph-name="e" unicode="e" horiz-adv-x="1100" 
d="M950 446h-628c9.33301 -68 40.333 -120.5 93 -157.5s114.334 -55.5 185.001 -55.5c45.333 0 92.333 11 141 33l129 68c22.667 12 44 18 64 18c32 0 60.167 -13 84.5 -39s36.5 -55.333 36.5 -88c0 -75.333 -64.333 -138.333 -193 -189
c-103.333 -40.667 -199.666 -61 -288.999 -61c-163.333 0 -296.333 53.667 -399 161s-154 243 -154 407c0 155.333 49 288.333 147 399c101.333 114.667 228.666 172 381.999 172c110 0 210 -32.333 300 -97c87.333 -63.333 151.666 -147 192.999 -251
c24.667 -62 37 -124.667 37 -188c0 -88 -43 -132 -129 -132zM315 643l469 -0.000976562c-8 68.667 -32.333 123.334 -73 164.001s-94.667 61 -162 61c-65.333 0 -118.833 -21 -160.5 -63s-66.167 -96 -73.5 -162z" />
    <glyph glyph-name="f" unicode="f" horiz-adv-x="606" 
d="M152 152v679h-66c-86 0 -129 43.333 -129 130c0 36.667 12.333 67.334 37 92.001s55.334 37 92.001 37h66v151c0 101.333 26 181.666 78 240.999c54.667 63.333 131.667 95 231 95c136.667 0 205 -44.333 205 -133c0 -83.333 -40.333 -125 -121 -125
c-39.333 0 -65.666 -8 -78.999 -24s-20 -44.333 -20 -85v-120h93c99.333 0 149 -43 149 -129c0 -86.667 -49.667 -130 -149 -130h-93v-679c0 -47.333 -12.333 -86 -37 -116c-26.667 -32 -63.334 -48 -110.001 -48s-83.334 16 -110.001 48c-24.667 29.333 -37 68 -37 116z
" />
    <glyph glyph-name="g" unicode="g" 
d="M1092 938l-0.000976562 -852c0 -172.667 -52 -305.667 -156 -399c-99.333 -88.667 -236.666 -133 -411.999 -133c-87.333 0 -180 16.333 -278 49c-124.667 41.333 -187 98.666 -187 171.999c0 28.667 12.833 57.334 38.5 86.001s52.5 43 80.5 43
c25.333 0 80 -15.333 164 -46s152.333 -46 205 -46c76 0 136 19.667 180 59c46.667 41.333 70 99.333 70 174v70h-4c-63.333 -93.333 -162.333 -140 -297 -140c-144.667 0 -258.667 58.333 -342 175c-75.333 106 -113 236.333 -113 391c0 108.667 24 209.667 72 303
c52 100.667 123 175 213 223c59.333 31.333 126 47 200 47c126 0 216.333 -45 271 -135c18.667 82 67.667 123 147 123c46.667 0 83 -15.5 109 -46.5s39 -70.167 39 -117.5zM796.999 537c0 78.667 -18.668 147.332 -56.001 205.999
c-42.667 67.333 -101.334 101 -176.001 101c-72 0 -130 -33 -174 -99c-36.667 -55.333 -55 -121.333 -55 -198c0 -81.333 17.667 -149.666 53 -204.999c40.667 -64 99.334 -96 176.001 -96c74.667 0 133.334 31 176.001 93c37.333 54.667 56 120.667 56 198z" />
    <glyph glyph-name="h" unicode="h" horiz-adv-x="1139" 
d="M84 152l0.00292969 1261c0 45.333 13.333 84 40 116s62.334 48 107.001 48c46.667 0 83 -15.5 109 -46.5s39 -70.167 39 -117.5v-401h4c56 68 145.333 102 268 102s220.667 -35.5 294 -106.5s110 -167.833 110 -290.5v-565c0 -47.333 -12.667 -86 -38 -116
c-26.667 -32 -63.334 -48 -110.001 -48c-44.667 0 -80.334 16 -107.001 48s-40 70.667 -40 116v514c0 61.333 -17 110.333 -51 147s-81.333 55 -142 55c-59.333 0 -105.5 -18.667 -138.5 -56s-49.5 -86 -49.5 -146v-514c0 -47.333 -12.667 -86 -38 -116
c-26.667 -32 -63.334 -48 -110.001 -48c-44.667 0 -80.334 16 -107.001 48s-40 70.667 -40 116z" />
    <glyph glyph-name="i" unicode="i" horiz-adv-x="455" 
d="M80 152l0.000976562 786c0 45.333 13.333 84 40 116s62.334 48 107.001 48c46.667 0 83 -15.5 109 -46.5s39 -70.167 39 -117.5v-786c0 -47.333 -12.667 -86 -38 -116c-26.667 -32 -63.334 -48 -110.001 -48c-44.667 0 -80.334 16 -107.001 48s-40 70.667 -40 116z
M227.001 1544c45.333 0 84.333 -15.667 117 -47s49 -69.666 49 -114.999c0 -46.667 -16.167 -86.667 -48.5 -120s-71.5 -50 -117.5 -50c-44.667 0 -83.5 17 -116.5 51s-49.5 73.667 -49.5 119c0 43.333 16.667 81.166 50 113.499s72 48.5 116 48.5z" />
    <glyph glyph-name="j" unicode="j" horiz-adv-x="455" 
d="M80 -283l-0.000976562 1221c0 45.333 13.333 84 40 116s62.334 48 107.001 48c46.667 0 83 -15.5 109 -46.5s39 -70.167 39 -117.5v-1221c0 -46.667 -12.667 -85 -38 -115c-27.333 -32 -64 -48 -110 -48c-44.667 0 -80.667 16.333 -108 49c-26 30.667 -39 68.667 -39 114
zM226.999 1544c45.333 0 84.333 -15.667 117 -47s49 -69.666 49 -114.999c0 -46.667 -16.167 -86.667 -48.5 -120s-71.5 -50 -117.5 -50c-44.667 0 -83.5 17 -116.5 51s-49.5 73.667 -49.5 119c0 43.333 16.667 81.166 50 113.499s72 48.5 116 48.5z" />
    <glyph glyph-name="k" unicode="k" horiz-adv-x="1024" 
d="M84 152v1261c0 45.333 13.333 84 40 116s62.334 48 107.001 48c46.667 0 83 -15.5 109 -46.5s39 -70.167 39 -117.5v-688l323 313c44 42.667 88.667 64 134 64c36.667 0 66.667 -13 90 -39s35 -57.333 35 -94c0 -43.333 -19.333 -82.333 -58 -117l-262 -234l346 -405
c24.667 -28.667 37 -61.334 37 -98.001c0 -38.667 -13.5 -71.667 -40.5 -99s-59.833 -41 -98.5 -41c-45.333 0 -92.666 30.333 -141.999 91l-360 444h-4v-358c0 -47.333 -12.667 -86 -38 -116c-26.667 -32 -63.334 -48 -110.001 -48c-44.667 0 -80.334 16 -107.001 48
s-40 70.667 -40 116z" />
    <glyph glyph-name="l" unicode="l" horiz-adv-x="455" 
d="M80 152l0.000976562 1261c0 45.333 13.333 84 40 116s62.334 48 107.001 48c46.667 0 83 -15.5 109 -46.5s39 -70.167 39 -117.5v-1261c0 -47.333 -12.667 -86 -38 -116c-26.667 -32 -63.334 -48 -110.001 -48c-44.667 0 -80.334 16 -107.001 48s-40 70.667 -40 116z" />
    <glyph glyph-name="m" unicode="m" horiz-adv-x="1745" 
d="M84 152l0.00488281 786c0 45.333 13.333 84 40 116s62.334 48 107.001 48c79.333 0 124.666 -37 135.999 -111c76 82 167.333 123 274 123c124 0 225.667 -49.667 305 -149c86 99.333 189.667 149 311 149c125.333 0 224 -34.833 296 -104.5s108 -167.167 108 -292.5
v-565c0 -47.333 -12.667 -86 -38 -116c-26.667 -32 -63.334 -48 -110.001 -48c-44.667 0 -80.334 16 -107.001 48s-40 70.667 -40 116v514c0 58 -14 105 -42 141c-30.667 40.667 -74 61 -130 61c-56.667 0 -100.667 -20 -132 -60c-28 -36 -42 -83.333 -42 -142v-514
c0 -47.333 -12.667 -86 -38 -116c-26.667 -32 -63.334 -48 -110.001 -48c-46 0 -82.333 16 -109 48c-25.333 30 -38 68.667 -38 116v514c0 58 -14 105 -42 141c-30.667 40.667 -74 61 -130 61c-116 0 -174 -67.333 -174 -202v-514c0 -47.333 -12.667 -86 -38 -116
c-26.667 -32 -63.334 -48 -110.001 -48c-44.667 0 -80.334 16 -107.001 48s-40 70.667 -40 116z" />
    <glyph glyph-name="n" unicode="n" horiz-adv-x="1139" 
d="M84 152l0.00292969 786c0 45.333 13.333 84 40 116s62.334 48 107.001 48c79.333 0 124.666 -36.333 135.999 -109c58.667 80.667 153.334 121 284.001 121c122.667 0 220.667 -35.5 294 -106.5s110 -167.833 110 -290.5v-565c0 -47.333 -12.667 -86 -38 -116
c-26.667 -32 -63.334 -48 -110.001 -48c-44.667 0 -80.334 16 -107.001 48s-40 70.667 -40 116v514c0 61.333 -17 110.333 -51 147s-81.333 55 -142 55c-59.333 0 -105.5 -18.667 -138.5 -56s-49.5 -86 -49.5 -146v-514c0 -47.333 -12.667 -86 -38 -116
c-26.667 -32 -63.334 -48 -110.001 -48c-44.667 0 -80.334 16 -107.001 48s-40 70.667 -40 116z" />
    <glyph glyph-name="o" unicode="o" horiz-adv-x="1139" 
d="M569 1114c154 0 281.667 -57.334 383 -172.001c97.333 -110.667 146 -243.667 146 -399c0 -158 -48 -291 -144 -399c-100 -112.667 -228.333 -169 -385 -169s-285 56 -385 168c-95.333 108 -143 241.333 -143 400c0 154.667 48.667 287.334 146 398.001
c102 115.333 229.333 173 382 173zM569 843.999c-75.333 0 -134.667 -32.999 -178 -98.999c-36.667 -56 -55 -123.333 -55 -202c0 -80 19 -147.667 57 -203c42.667 -62.667 101.334 -94 176.001 -94c74 0 132.667 32 176 96c38.667 57.333 58 124.333 58 201
c0 129.333 -42.333 220.666 -127 273.999c-28.667 18 -64.334 27 -107.001 27z" />
    <glyph glyph-name="p" unicode="p" 
d="M84 -283v1221c0 45.333 13.333 84 40 116s62.334 48 107.001 48c79.333 0 128.666 -41 147.999 -123c54.667 90 148 135 280 135c151.333 0 271 -62 359 -186c78 -110 117 -242.667 117 -398c0 -148.667 -43.667 -276.334 -131 -383.001
c-94 -114.667 -212.333 -172 -355 -172c-100.667 0 -190.667 34.333 -270 103v-361c0 -46.667 -12.667 -85 -38 -115c-27.333 -32 -64 -48 -110 -48c-44.667 0 -80.667 16.333 -108 49c-26 30.667 -39 68.667 -39 114zM379 553.001c0 -80 17.999 -148.667 53.999 -206
c42 -67.333 101 -101 177 -101c72.667 0 130.667 32.667 174 98c37.333 56 56 122.333 56 199c0 73.333 -19.333 140 -58 200c-43.333 67.333 -100.666 101 -171.999 101c-74 0 -132.667 -31.333 -176 -94c-36.667 -53.333 -55 -119 -55 -197z" />
    <glyph glyph-name="q" unicode="q" 
d="M1092 938l-0.00195312 -1221c0 -46.667 -12.667 -85 -38 -115c-27.333 -32 -64 -48 -110 -48c-44.667 0 -80.667 16.333 -108 49c-26 30.667 -39 68.667 -39 114v361c-79.333 -68.667 -169.666 -103 -270.999 -103c-142 0 -260 58.333 -354 175
c-87.333 108.667 -131 235.334 -131 380.001c0 113.333 21 215.333 63 306c46 98.667 114.333 174.334 205 227.001c58.667 34 127.667 51 207 51c132.667 0 226.334 -45 281.001 -135c18.667 82 67.667 123 147 123c46.667 0 83 -15.5 109 -46.5s39 -70.167 39 -117.5z
M796.998 552.998c0 77.333 -19.001 143.335 -57.001 198.002c-42.667 62 -101 93 -175 93c-72.667 0 -130.667 -33.667 -174 -101c-36.667 -56.667 -55 -123.334 -55 -200.001s18.667 -143.334 56 -200.001c42.667 -64.667 100.334 -97 173.001 -97
c76.667 0 136 33.333 178 100c36 56.667 54 125.667 54 207z" />
    <glyph glyph-name="r" unicode="r" horiz-adv-x="682" 
d="M80 152l0.00195312 802.001c0 44 14.167 79.667 42.5 107s64.5 41 108.5 41c96 0 144 -41 144 -123h4c54.667 82 123.667 123 207 123c44 0 79.333 -15.667 106 -47c24.667 -29.333 37 -66.333 37 -111c0 -40.667 -20.333 -72.667 -61 -96
c-26 -10 -64.333 -25.667 -115 -47c-54 -23.333 -95 -47.333 -123 -72c-36.667 -32.667 -55 -74.334 -55 -125.001v-452c0 -47.333 -12.667 -86 -38 -116c-26.667 -32 -63.334 -48 -110.001 -48c-44.667 0 -80.334 16 -107.001 48s-40 70.667 -40 116z" />
    <glyph glyph-name="s" unicode="s" horiz-adv-x="872" 
d="M825 901c0 -36.667 -10.835 -67.667 -32.502 -93s-50.834 -38 -87.501 -38c-15.333 0 -54.666 14.333 -117.999 43s-112.333 43 -147 43c-66.667 0 -100 -27.333 -100 -82c0 -35.333 44.333 -70 133 -104l123 -47c170.667 -65.333 256 -165.666 256 -300.999
c0 -110 -43.667 -197 -131 -261c-78 -57.333 -174.333 -86 -289 -86c-93.333 0 -182.666 21.333 -267.999 64c-96 48 -144 102.667 -144 164c0 34 12.667 64.333 38 91s55 40 89 40c30.667 0 67.5 -11 110.5 -33s77.667 -38.833 104 -50.5s56.833 -17.5 91.5 -17.5
c77.333 0 116 28 116 84c0 33.333 -44.333 67.666 -133 102.999l-123 49c-170.667 68 -256 168.333 -256 301c0 108.667 41 194.667 123 258c74.667 57.333 167 86 277 86c86.667 0 166.334 -17 239.001 -51c86 -40 129 -94 129 -162z" />
    <glyph glyph-name="t" unicode="t" horiz-adv-x="606" 
d="M156 152l0.00195312 679h-66c-86 0 -129 43.333 -129 130c0 36.667 12.333 67.334 37 92.001s55.334 37 92.001 37h66v176c0 46.667 12.667 85 38 115c27.333 32.667 63.666 49 108.999 49c46 0 82.667 -16 110 -48c25.333 -30.667 38 -69.334 38 -116.001v-176h84
c94 0 141 -43 141 -129c0 -86.667 -47 -130 -141 -130h-84v-679c0 -47.333 -12.667 -86 -38 -116c-26.667 -32 -63.334 -48 -110.001 -48s-83.334 16 -110.001 48c-24.667 30 -37 68.667 -37 116z" />
    <glyph glyph-name="u" unicode="u" horiz-adv-x="1139" 
d="M84 406l-0.00292969 532c0 45.333 13.333 84 40 116s62.334 48 107.001 48c46.667 0 83 -15.5 109 -46.5s39 -70.167 39 -117.5v-526c0 -56.667 17.5 -102.667 52.5 -138s80.833 -53 137.5 -53s102.667 17.667 138 53s53 81.333 53 138v526c0 45.333 13.333 84 40 116
s62.334 48 107.001 48c46.667 0 83 -15.5 109 -46.5s39 -70.167 39 -117.5v-532c0 -142 -46.667 -250.667 -140 -326c-86 -70 -201.333 -105 -346 -105c-145.333 0 -260.666 35 -345.999 105c-92.667 75.333 -139 184 -139 326z" />
    <glyph glyph-name="v" unicode="v" horiz-adv-x="946" 
d="M313 111l-297.005 761.001c-12 30.667 -18 59.334 -18 86.001c0 43.333 14.667 78.166 44 104.499s66 39.5 110 39.5c64.667 0 108.334 -35 131.001 -105l188 -581h4l189 581c22.667 70 66.334 105 131.001 105c44.667 0 81.334 -13 110.001 -39s43 -61 43 -105
c0 -26.667 -6 -55.334 -18 -86.001l-297 -761c-17.333 -44 -36.666 -75 -57.999 -93c-23.333 -20 -57.333 -30 -102 -30c-44 0 -78 10 -102 30c-21.333 18 -40.666 49 -57.999 93z" />
    <glyph glyph-name="w" unicode="w" horiz-adv-x="1593" 
d="M295 137l-250.002 707.001c-20.667 58.667 -31 105 -31 139c0 38 15.667 68 47 90c28 19.333 61.667 29 101 29c69.333 0 115.666 -39 138.999 -117l170 -563h4l172 551c26.667 86 76.667 129 150 129c72.667 0 122.334 -43 149.001 -129l172 -551h4l170 563
c23.333 78 70 117 140 117c44 0 79.5 -13 106.5 -39s40.5 -61 40.5 -105c0 -18.667 -9.66699 -55.334 -29 -110.001l-252 -711c-35.333 -99.333 -94.666 -149 -177.999 -149c-84 0 -140.667 45.667 -170 137l-151 475h-4l-152 -475c-29.333 -91.333 -86 -137 -170 -137
c-83.333 0 -142.666 49.667 -177.999 149z" />
    <glyph glyph-name="x" unicode="x" horiz-adv-x="1024" 
d="M41 231l299 340l-250 281c-30 34 -45 69.333 -45 106c0 38.667 15.5 72.334 46.5 101.001s66.167 43 105.5 43c40.667 0 76.667 -19.333 108 -58l207 -258l207 258c31.333 38.667 67.333 58 108 58c39.333 0 74.5 -14.333 105.5 -43s46.5 -62.334 46.5 -101.001
c0 -36.667 -15 -72 -45 -106l-250 -281l299 -340c27.333 -31.333 41 -64.666 41 -99.999c0 -44 -13.167 -78.833 -39.5 -104.5s-61.5 -38.5 -105.5 -38.5c-46.667 0 -87.667 21.667 -123 65l-244 299l-244 -299c-35.333 -43.333 -76.333 -65 -123 -65
c-42.667 0 -77.5 13.167 -104.5 39.5s-40.5 60.833 -40.5 103.5c0 35.333 13.667 68.666 41 99.999z" />
    <glyph glyph-name="y" unicode="y" horiz-adv-x="985" 
d="M336 86l-325.999 813c-9.33301 23.333 -14 48.666 -14 75.999c0 34 14.5 63.667 43.5 89s60.833 38 95.5 38c73.333 0 122.666 -35 147.999 -105l202 -555l217 555c27.333 70 76.666 105 147.999 105c36 0 68.167 -12.333 96.5 -37s42.5 -54.667 42.5 -90
c0 -27.333 -4.66699 -52.666 -14 -75.999l-494 -1229c-31.333 -77.333 -77.666 -116 -138.999 -116c-40.667 0 -75.667 10.667 -105 32c-32.667 24 -49 55.667 -49 95c0 26 6.33301 54.667 19 86z" />
    <glyph glyph-name="z" unicode="z" horiz-adv-x="985" 
d="M49 180l463 651h-342c-40 0 -72.167 11.667 -96.5 35s-36.5 55 -36.5 95c0 39.333 12.333 70.666 37 93.999s56.667 35 96 35h670c64 0 96 -31 96 -93c0 -30 -10.333 -59.333 -31 -88l-465 -651h389c40 0 72.333 -11.5 97 -34.5s37 -54.5 37 -94.5
s-12.333 -71.5 -37 -94.5s-57 -34.5 -97 -34.5h-686c-80 0 -120 33.333 -120 100c0 28.667 8.66699 55.334 26 80.001z" />
    <glyph glyph-name="braceleft" unicode="{" horiz-adv-x="682" 
d="M176 -47v396.999c0 65.333 -17 106.333 -51 123l-94 21c-34 10 -51 40 -51 90c0 49.333 17 79 51 89l94 21c34 16.667 51 57.667 51 123v397c0 179.333 91 269 273 269h126c62 0 93 -30.667 93 -92c0 -62 -31 -93 -93 -93h-51c-60 0 -90 -39.333 -90 -118v-387
c0 -78 -28 -134.667 -84 -170c-33.333 -20.667 -79 -33 -137 -37v-4c96 -7.33301 161.667 -39.666 197 -96.999c16 -26 24 -62.667 24 -110v-387c0 -79.333 30 -119 90 -119h51c62 0 93 -30.667 93 -92s-31 -92 -93 -92h-126c-182 0 -273 89.333 -273 268z" />
    <glyph glyph-name="bar" unicode="|" horiz-adv-x="455" 
d="M350 1454v-1356c0 -82 -41 -123 -123 -123s-123 41 -123 123v1356c0 82 41 123 123 123s123 -41 123 -123z" />
    <glyph glyph-name="braceright" unicode="}" horiz-adv-x="682" 
d="M506 1214v-397.002c0 -65.333 17 -106.333 51 -123l94 -21c34 -10 51 -39.667 51 -89c0 -50 -17 -80 -51 -90l-94 -21c-34 -16.667 -51 -57.667 -51 -123v-397c0 -178.667 -91 -268 -273 -268h-127c-61.333 0 -92 30.667 -92 92s30.667 92 92 92h52
c60 0 90 39.667 90 119v387c0 80 28 137.333 84 172c30 18.667 75.667 30.334 137 35.001v4c-95.333 6.66699 -161 39.334 -197 98.001c-16 26 -24 62.333 -24 109v387c0 78.667 -30 118 -90 118h-52c-61.333 0 -92 31 -92 93c0 61.333 30.667 92 92 92h127
c182 0 273 -89.667 273 -269z" />
    <glyph glyph-name="asciitilde" unicode="~" horiz-adv-x="1229" 
d="M829 571c34.667 0 66.332 12.333 94.999 37l60 57c24.667 20.667 49 31 73 31c58.667 0 88 -33.333 88 -100c0 -70 -26.667 -130.667 -80 -182c-60.667 -58.667 -137.667 -88 -231 -88c-54.667 0 -133.167 23.167 -235.5 69.5s-168.833 69.5 -199.5 69.5
c-30 0 -61 -12.333 -93 -37l-77 -68c-15.333 -13.333 -34.333 -20 -57 -20c-58.667 0 -88 33.333 -88 100c0 69.333 27.333 130.333 82 183c60.667 58.667 137 88 229 88c53.333 0 131.333 -23.333 234 -70s169.334 -70 200.001 -70z" />
    <glyph glyph-name="exclamdown" unicode="&#xa1;" horiz-adv-x="684" 
d="M195 -254l-0.00195312 789c0 42 13.833 75.667 41.5 101s62.834 38 105.501 38c44.667 0 80.334 -12.333 107.001 -37s40 -58.667 40 -102v-789c0 -42.667 -13.667 -76.5 -41 -101.5s-62.666 -37.5 -105.999 -37.5c-42.667 0 -77.834 12.833 -105.501 38.5
s-41.5 59.167 -41.5 100.5zM341.998 1114c44 0 81.667 -15.667 113 -47s47 -69 47 -113s-15.667 -81.5 -47 -112.5s-69 -46.5 -113 -46.5s-81.667 15.5 -113 46.5s-47 68.5 -47 112.5s15.667 81.667 47 113s69 47 113 47z" />
    <glyph glyph-name="cent" unicode="&#xa2;" horiz-adv-x="948" 
d="M487 270v551c-100.667 -42 -151 -134.667 -151 -278c0 -58 12.333 -111 37 -159c26.667 -54 64.667 -92 114 -114zM598 842l0.00195312 -595.998c22 1.33301 57.5 11.833 106.5 31.5s81.833 29.5 98.5 29.5c36 0 66.167 -12.5 90.5 -37.5s36.5 -55.5 36.5 -91.5
c0 -64 -40.333 -115 -121 -153c-60.667 -28.667 -131 -45.334 -211 -50.001v-47c0 -64 -18.333 -96 -55 -96c-37.333 0 -56 32 -56 96v56c-141.333 18.667 -252.333 83 -333 193c-75.333 102.667 -113 227.334 -113 374.001c0 140 39.667 261 119 363
c82 106 191 170 327 192v57c0 30.667 2.33301 52.667 7 66c7.33301 20.667 23.666 31 48.999 31c26 0 42.333 -10.333 49 -31c4 -12 6 -34 6 -66v-49c129.333 0 228.333 -33.333 297 -100c23.333 -22.667 35 -51.334 35 -86.001c0 -36 -9.66699 -68.333 -29 -97
c-22 -32.667 -50 -49 -84 -49c-26 0 -62.333 9.66699 -109 29c-48.667 19.333 -85.334 29.666 -110.001 30.999z" />
    <glyph glyph-name="sterling" unicode="&#xa3;" horiz-adv-x="1251" 
d="M559 868l311.002 0.00292969c44.667 0 80.5 -12.5 107.5 -37.5s40.5 -59.5 40.5 -103.5c0 -42.667 -13.833 -76.834 -41.5 -102.501s-63.167 -38.5 -106.5 -38.5h-264c0 -106.667 -34.667 -207.667 -104 -303h569c98.667 0 148 -47.333 148 -142
c0 -42.667 -13.833 -76.834 -41.5 -102.501s-63.167 -38.5 -106.5 -38.5h-803c-106 0 -159 53.333 -159 160c0 17.333 11.333 43.333 34 78l56 71c58.667 81.333 88 173.666 88 276.999h-107c-43.333 0 -78.666 12.833 -105.999 38.5s-41 59.834 -41 102.501
c0 44 13.5 78.5 40.5 103.5s62.5 37.5 106.5 37.5h43c-35.333 67.333 -53 139.666 -53 216.999c0 90.667 31.333 170 94 238c56.667 62 131 106.333 223 133c61.333 18 127.666 27 198.999 27c147.333 0 269.666 -33.667 366.999 -101c100.667 -70 151 -154.667 151 -254
c0 -47.333 -14.667 -85 -44 -113s-68 -42 -116 -42c-30.667 0 -58.334 11.667 -83.001 35c-6 6 -26.667 30.333 -62 73c-58.667 71.333 -125.667 107 -201 107c-52 0 -96.667 -13 -134 -39c-41.333 -29.333 -62 -69 -62 -119c0 -42 8.66699 -78 26 -108z" />
    <glyph glyph-name="currency" unicode="&#xa4;" horiz-adv-x="1229" 
d="M614 223c-125.333 0 -222 31.333 -290 94l-117 -120c-16 -16.667 -36 -25 -60 -25c-48.667 0 -78.667 24 -90 72c-2.66699 11.333 -4 23 -4 35s9.66699 27.667 29 47l119 118c-63.333 71.333 -95 166.333 -95 285c0 130 31.667 226.333 95 289l-119 119
c-15.333 15.333 -25 31 -29 47c0 29.333 8.66699 54.333 26 75s40 31 68 31c24 0 44 -8 60 -24l117 -117c76 60 172.667 90 290 90c118 0 215 -30 291 -90l117 117c16 16 35.667 24 59 24c48.667 0 78.667 -23.667 90 -71c3.33301 -14 5 -25.667 5 -35
c0 -12 -9.66699 -27.667 -29 -47l-119 -119c62.667 -62.667 94 -159 94 -289c0 -118.667 -31.333 -213.667 -94 -285l119 -118c19.333 -19.333 29 -35 29 -47c0 -29.333 -8.33301 -54 -25 -74c-18 -22 -41.333 -33 -70 -33c-23.333 0 -43 8.33301 -59 25l-117 120
c-68 -62.667 -165 -94 -291 -94zM614 1006c-78 0 -141.167 -26.333 -189.5 -79s-72.5 -118.667 -72.5 -198c0 -76 24.833 -140.333 74.5 -193s112.167 -79 187.5 -79c76 0 138.833 26.5 188.5 79.5s74.5 117.167 74.5 192.5c0 80.667 -24 147 -72 199s-111.667 78 -191 78z
" />
    <glyph glyph-name="yen" unicode="&#xa5;" 
d="M434 137l-0.000976562 248h-291c-26 0 -48.333 8.33301 -67 25c-20.667 14.667 -31 35 -31 61s9.66699 46.833 29 62.5s42.333 23.5 69 23.5h291v139h-291c-26 0 -48.333 8.33301 -67 25c-20.667 14.667 -31 35 -31 61s9.66699 46.833 29 62.5s42.333 23.5 69 23.5h166
l-260 361c-19.333 26.667 -29 57.334 -29 92.001c0 42 14.167 77.333 42.5 106s63.5 43 105.5 43c56.667 0 99 -20.333 127 -61l293 -428l293 428c28 40.667 70.333 61 127 61c42.667 0 77.834 -14.167 105.501 -42.5s41.5 -63.833 41.5 -106.5
c0 -34.667 -9.66699 -65.334 -29 -92.001l-260 -361h166c26 0 49.333 -7.33301 70 -22c18.667 -16.667 28 -38 28 -64s-9.83301 -46.833 -29.5 -62.5s-42.5 -23.5 -68.5 -23.5h-291v-139h291c26 0 49.333 -7.33301 70 -22c18.667 -16.667 28 -38 28 -64
s-9.83301 -46.833 -29.5 -62.5s-42.5 -23.5 -68.5 -23.5h-291v-248c0 -99.333 -51 -149 -153 -149c-102.667 0 -154 49.667 -154 149z" />
    <glyph glyph-name="brokenbar" unicode="&#xa6;" horiz-adv-x="455" 
d="M104 98v398c0 81.333 41 122 123 122s123 -40.667 123 -122v-398c0 -82 -41 -123 -123 -123s-123 41 -123 123zM104 1057v397c0 82 41 123 123 123s123 -41 123 -123v-397c0 -82 -41 -123 -123 -123s-123 41 -123 123z" />
    <glyph glyph-name="section" unicode="&#xa7;" 
d="M573 1483c115.333 0 222.001 -21.9961 320.001 -65.9961c124 -56 186 -135 186 -237c0 -38.667 -13.167 -72.667 -39.5 -102s-58.833 -44 -97.5 -44c-36 0 -85.833 29.667 -149.5 89s-124.5 89 -182.5 89c-42 0 -77.667 -12.833 -107 -38.5s-44 -59.834 -44 -102.501
c0 -48.667 35.333 -87.667 106 -117c67.333 -26 187 -77 359 -153c140.667 -67.333 211 -164.333 211 -291c0 -84.667 -18.667 -155.667 -56 -213c-31.333 -48.667 -85 -99.334 -161 -152.001c58.667 -73.333 88 -145 88 -215c0 -114.667 -44.667 -207.334 -134 -278.001
c-82.667 -65.333 -182.334 -98 -299.001 -98c-84 0 -168 16.333 -252 49c-91.333 35.333 -161.333 83 -210 143c-30 36.667 -45 75.667 -45 117c0 51.333 22 92.333 66 123c28 20 60.333 30 97 30c27.333 0 71.333 -32 132 -96s119.334 -96 176.001 -96
c37.333 0 70.666 10 99.999 30c32.667 22 49 51 49 87c0 48.667 -33.333 91.667 -100 129l-221 90c-107.333 43.333 -184 87.666 -230 132.999c-62.667 62 -94 141 -94 237c0 135.333 60.667 253 182 353c-64 69.333 -96 141 -96 215c0 120.667 45.333 216.667 136 288
c82.667 64.667 186 97 310 97zM453.001 428.004l258 -108.999c69.333 41.333 104 91.333 104 150c0 63.333 -50.333 114.666 -151 153.999l-226 88c-60 -44 -90 -92.667 -90 -146c0 -62 35 -107.667 105 -137z" />
    <glyph glyph-name="dieresis" unicode="&#xa8;" horiz-adv-x="948" 
d="M92 154l0.00195312 1126c0 118.667 53.333 178 160 178h508c42 0 76.667 -13 104 -39s41 -60 41 -102c0 -40.667 -14 -74.334 -42 -101.001s-62.333 -40 -103 -40h-361v-299h336c45.333 0 81.666 -12.333 108.999 -37s41 -59.667 41 -105c0 -42 -14.333 -76 -43 -102
s-64.334 -39 -107.001 -39h-336v-311h379c42.667 0 77.667 -13 105 -39s41 -60.333 41 -103c0 -41.333 -14 -75.166 -42 -101.499s-62.667 -39.5 -104 -39.5h-528c-45.333 -0 -83 14.333 -113 43s-45 65.667 -45 111zM553.002 1714c0 41.333 14.1689 76.3311 42.502 104.998
s63.166 43 104.499 43s76.333 -14.333 105 -43s43 -63.667 43 -105s-14.333 -76.166 -43 -104.499s-63.667 -42.5 -105 -42.5c-40.667 0 -75.334 14.333 -104.001 43s-43 63.334 -43 104.001zM102.004 1714c0 41.333 14.335 76.335 43.002 105.002s63.667 43 105 43
s76.166 -14.333 104.499 -43s42.5 -63.667 42.5 -105c0 -40.667 -14.333 -75.334 -43 -104.001s-63.334 -43 -104.001 -43c-41.333 0 -76.333 14.167 -105 42.5s-43 63.166 -43 104.499z" />
    <glyph glyph-name="copyright" unicode="&#xa9;" horiz-adv-x="1638" 
d="M1098 797c-32.667 0 -56.666 7.99902 -71.999 23.999c-9.33301 10 -22.333 32.667 -39 68c-34 52 -88 78 -162 78c-124 0 -186 -79.333 -186 -238c0 -158 62 -237 186 -237c74 0 128 25.667 162 77c16 35.333 29 58 39 68c16 16.667 40 25 72 25
c34 -7.33301 56.167 -18.666 66.5 -33.999s15.5 -41 15.5 -77c0 -52 -32.333 -104 -97 -156c-73.333 -58.667 -159.333 -88 -258 -88c-122.667 0 -221.667 40 -297 120c-73.333 77.333 -110 178 -110 302c0 125.333 37.333 227 112 305s173 117 295 117
c98.667 0 184.667 -29.333 258 -88c64.667 -52 97 -104 97 -156c0 -36.667 -4.66699 -62 -14 -76c-10.667 -16 -33.334 -27.333 -68.001 -34zM66.001 728.999c0 209.333 73.167 387.333 219.5 534s324.166 220 533.499 220c210.667 0 389 -73.667 535 -221
s219 -325 219 -533c0 -208.667 -73.5 -386.5 -220.5 -533.5s-324.833 -220.5 -533.5 -220.5c-207.333 0 -384.666 74.667 -531.999 224s-221 326 -221 530zM250.001 728.999c0 -158 55.334 -292.333 166.001 -403s245 -166 403 -166s292.5 55.333 403.5 166
s166.5 245 166.5 403c0 158.667 -55.333 293.167 -166 403.5s-245.334 165.5 -404.001 165.5c-158 0 -292.333 -55.333 -403 -166s-166 -245 -166 -403z" />
    <glyph glyph-name="ordfeminine" unicode="&#xaa;" horiz-adv-x="764" 
d="M709 1372v-481c0 -60 -30.333 -90 -91 -90c-58.667 0 -89.334 26.667 -92.001 80c-48.667 -53.333 -104.667 -80 -168 -80c-98.667 0 -178.5 31.833 -239.5 95.5s-91.5 145.167 -91.5 244.5c0 69.333 16.667 132 50 188c34.667 58.667 82.667 101.667 144 129
c38 16.667 79 25 123 25c79.333 0 140 -26.667 182 -80c2.66699 53.333 33.334 80 92.001 80c60.667 0 91 -37 91 -111zM371 961c46.667 0 82.667 19 108 57c22 32.667 33 73.667 33 123c0 50 -11 91.667 -33 125c-25.333 38 -61.333 57 -108 57c-48 0 -85.333 -19 -112 -57
c-24 -33.333 -36 -75 -36 -125c0 -48 12.333 -89 37 -123c27.333 -38 64.333 -57 111 -57z" />
    <glyph glyph-name="guillemotleft" unicode="&#xab;" horiz-adv-x="1024" 
d="M543 698l197.999 280.998c20.667 23.333 50 35 88 35c36 0 64.833 -10.5 86.5 -31.5s32.5 -48.167 32.5 -81.5c0 -29.333 -7.33301 -55.333 -22 -78l-162 -248l162 -243c14.667 -22 22 -45.333 22 -70c0 -37.333 -11.167 -68.166 -33.5 -92.499
s-52.166 -36.5 -89.499 -36.5c-46 0 -80 17 -102 51l-211 326c-12 18.667 -18 43.334 -18 74.001c0 29.333 16.333 67.333 49 114zM124.999 697.998l199 280.999c20 23.333 49.333 35 88 35c36 0 64.667 -10.333 86 -31s32 -48 32 -82c0 -29.333 -7.33301 -55.333 -22 -78
l-162 -248l162 -243c14.667 -22 22 -45.333 22 -70c0 -38 -10.833 -69 -32.5 -93s-51.5 -36 -89.5 -36c-46.667 0 -81 17 -103 51l-211 326c-12 18.667 -18 43.334 -18 74.001c0 30 16.333 68 49 114z" />
    <glyph glyph-name="logicalnot" unicode="&#xac;" horiz-adv-x="1229" 
d="M195 870h839c82 0 123 -40.667 123 -122v-465c0 -82 -41 -123 -123 -123s-123 41 -123 123v342h-716c-82 0 -123 41 -123 123c0 81.333 41 122 123 122z" />
    <glyph glyph-name="minus.0" unicode="&#xad;" horiz-adv-x="1229" 
d="M195 641h839c82 0 123 -41 123 -123s-41 -123 -123 -123h-839c-82 0 -123 41 -123 123s41 123 123 123z" />
    <glyph glyph-name="registered" unicode="&#xae;" horiz-adv-x="1638" 
d="M700 647v-241c0 -66 -30.667 -99 -92 -99s-92 33 -92 99v632c0 57.333 31.333 86 94 86h232c203.333 0 305 -79.667 305 -239c0 -144.667 -68.333 -220 -205 -226l145 -237c8.66699 -14 13 -28.333 13 -43c0 -48 -32 -72 -96 -72c-28 0 -51.333 10.333 -70 31
c-10.667 12 -25 34.667 -43 68l-129 241h-62zM700 795h154c72.667 0 109 30 109 90c0 61.333 -36.333 92 -109 92h-154v-182zM66 729c0 209.333 73.167 387.333 219.5 534s324.166 220 533.499 220c210.667 0 389 -73.667 535 -221s219 -325 219 -533
c0 -208.667 -73.5 -386.5 -220.5 -533.5s-324.833 -220.5 -533.5 -220.5c-207.333 0 -384.666 74.667 -531.999 224s-221 326 -221 530zM250 729c0 -158 55.334 -292.333 166.001 -403s245 -166 403 -166s292.5 55.333 403.5 166s166.5 245 166.5 403
c0 158.667 -55.333 293.167 -166 403.5s-245.334 165.5 -404.001 165.5c-158 0 -292.333 -55.333 -403 -166s-166 -245 -166 -403z" />
    <glyph glyph-name="u_extra" unicode="&#xaf;" horiz-adv-x="455" 
d="M37 1495h381c88.667 0 133 -41 133 -123s-44.333 -123 -133 -123h-381c-88.667 0 -133 41 -133 123s44.333 123 133 123z" />
    <glyph glyph-name="degree" unicode="&#xb0;" horiz-adv-x="819" 
d="M240 1153c0 -45.333 17 -85 51 -119s73.667 -51 119 -51c46.667 0 86.667 16.667 120 50s50 73.333 50 120c0 47.333 -16.5 87.5 -49.5 120.5s-73.167 49.5 -120.5 49.5c-46.667 0 -86.667 -16.667 -120 -50s-50 -73.333 -50 -120zM80 1153c0 92 32 169.999 96 233.999
s142 96 234 96c91.333 0 169 -32.167 233 -96.5s96 -142.166 96 -233.499c0 -92 -31.833 -170 -95.5 -234s-141.5 -96 -233.5 -96s-170 32 -234 96s-96 142 -96 234z" />
    <glyph glyph-name="plusminus" unicode="&#xb1;" horiz-adv-x="1229" 
d="M492 807v131c0 82 40.667 123 122 123c82 0 123 -41 123 -123v-131h297c82 0 123 -41 123 -123s-41 -123 -123 -123h-297v-131c0 -82 -41 -123 -123 -123c-81.333 0 -122 41 -122 123v131h-297c-82 0 -123 41 -123 123s41 123 123 123h297zM195 246h839
c82 0 123 -41 123 -123s-41 -123 -123 -123h-839c-82 0 -123 41 -123 123s41 123 123 123z" />
    <glyph glyph-name="twosuperior" unicode="&#xb2;" horiz-adv-x="764" 
d="M406 805l208 0.000976562c60.667 0 91 -35 91 -105c0 -69.333 -30.333 -104 -91 -104h-458c-64.667 0 -97 26.667 -97 80c0 18 10.833 38.833 32.5 62.5l168.5 179.5c138 146 207 246.333 207 301c0 52.667 -31.333 79 -94 79c-55.333 0 -93 -30.667 -113 -92
s-52 -92 -96 -92c-64 0 -96 38.333 -96 115c0 53.333 27.333 107.333 82 162c61.333 61.333 138.333 92 231 92c80.667 0 149 -22 205 -66c60 -47.333 90 -110 90 -188c0 -78.667 -37.667 -161.334 -113 -248.001z" />
    <glyph glyph-name="threesuperior" unicode="&#xb3;" horiz-adv-x="764" 
d="M373 1483c73.333 0 137.333 -18.666 192 -55.999c62.667 -42.667 94 -98.334 94 -167.001c0 -80.667 -37.333 -143.667 -112 -189c109.333 -46.667 164 -120.334 164 -221.001c0 -86.667 -36 -154.334 -108 -203.001c-62.667 -42 -139.334 -63 -230.001 -63
c-74 0 -143.667 20.333 -209 61c-74 46 -111 101.333 -111 166c0 24 11.667 44 35 60c20.667 14.667 43.334 22 68.001 22c20.667 0 49.834 -20.833 87.501 -62.5s80.834 -62.5 129.501 -62.5c31.333 0 59.666 7.66699 84.999 23c29.333 18 44 41.667 44 71
c0 57.333 -37.667 92.333 -113 105c-38.667 6.66699 -64.667 13.334 -78 20.001c-24.667 12.667 -37 34.667 -37 66c0 36 18 60.333 54 73l106 37c19.333 11.333 29 34 29 68c0 44.667 -30 67 -90 67c-33.333 0 -69.333 -17.333 -108 -52s-71 -52 -97 -52
c-57.333 0 -86 30 -86 90c0 54.667 34.667 102.334 104 143.001c63.333 37.333 125.666 56 186.999 56z" />
    <glyph glyph-name="acute" unicode="&#xb4;" horiz-adv-x="455" 
d="M49 1464l242 99.001c32.667 13.333 58.667 20 78 20c29.333 0 55 -13.667 77 -41s33 -56 33 -86c0 -58.667 -28 -99 -84 -121l-229 -90c-34 -13.333 -54 -20 -60 -20h-22c-32 0 -59 17.333 -81 52c-18.667 30.667 -28 63 -28 97c0 35.333 19.333 62.666 58 81.999z" />
    <glyph glyph-name="ch260" unicode="&#xb5;" horiz-adv-x="1139" 
d="M84 -283l-0.00195312 1221c0 45.333 13.333 84 40 116s62.334 48 107.001 48c46.667 0 83 -15.5 109 -46.5s39 -70.167 39 -117.5v-526c0 -56.667 17.5 -102.667 52.5 -138s80.833 -53 137.5 -53s102.667 17.667 138 53s53 81.333 53 138v526c0 45.333 13.333 84 40 116
s62.334 48 107.001 48c46.667 0 83 -15.5 109 -46.5s39 -70.167 39 -117.5v-786c0 -47.333 -12.667 -86 -38 -116c-26.667 -32 -63.334 -48 -110.001 -48c-42 0 -77 13.167 -105 39.5s-42 60.166 -42 101.499h-4c-40 -102.667 -103 -154 -189 -154
c-32.667 0 -67.167 10.167 -103.5 30.5s-63.166 44.5 -80.499 72.5h-4v-361c0 -46.667 -12.667 -85 -38 -115c-27.333 -32 -64 -48 -110 -48c-44.667 0 -80.667 16.333 -108 49c-26 30.667 -39 68.667 -39 114z" />
    <glyph glyph-name="paragraph" unicode="&#xb6;" horiz-adv-x="1270" 
d="M487 -311l0.000976562 1054c-130.667 0 -235.334 25 -314.001 75c-94.667 60 -142 152 -142 276c0 140.667 52 240 156 298c78.667 44 194.667 66 348 66h520c82 0 123 -41 123 -123v-1646c0 -82 -41 -123 -123 -123s-123 41 -123 123v1585h-199v-1585
c0 -82 -41 -123 -123 -123s-123 41 -123 123z" />
    <glyph glyph-name="periodcentered.0" unicode="&#xb7;" horiz-adv-x="549" 
d="M274 735c44 0 81.666 -15.667 112.999 -47s47 -69 47 -113c0 -45.333 -15.333 -83.166 -46 -113.499s-68.667 -45.5 -114 -45.5c-43.333 0 -80.666 15.667 -111.999 47s-47 68.666 -47 111.999c0 44 15.5 81.667 46.5 113s68.5 47 112.5 47z" />
    <glyph glyph-name="cedilla" unicode="&#xb8;" horiz-adv-x="1100" 
d="M950 446h-628c9.33301 -68 40.333 -120.5 93 -157.5s114.334 -55.5 185.001 -55.5c45.333 0 92.333 11 141 33l129 68c22.667 12 44 18 64 18c32 0 60.167 -13 84.5 -39s36.5 -55.333 36.5 -88c0 -75.333 -64.333 -138.333 -193 -189
c-103.333 -40.667 -199.666 -61 -288.999 -61c-163.333 0 -296.333 53.667 -399 161s-154 243 -154 407c0 155.333 49 288.333 147 399c101.333 114.667 228.666 172 381.999 172c110 0 210 -32.333 300 -97c87.333 -63.333 151.666 -147 192.999 -251
c24.667 -62 37 -124.667 37 -188c0 -88 -43 -132 -129 -132zM315 643l469 -0.000976562c-8 68.667 -32.333 123.334 -73 164.001s-94.667 61 -162 61c-65.333 0 -118.833 -21 -160.5 -63s-66.167 -96 -73.5 -162zM629 1382c0 41.333 14.1689 76.3311 42.502 104.998
s63.166 43 104.499 43s76.333 -14.333 105 -43s43 -63.667 43 -105s-14.333 -76.166 -43 -104.499s-63.667 -42.5 -105 -42.5c-40.667 0 -75.334 14.333 -104.001 43s-43 63.334 -43 104.001zM178.002 1382c0 41.333 14.335 76.335 43.002 105.002s63.667 43 105 43
s76.166 -14.333 104.499 -43s42.5 -63.667 42.5 -105c0 -40.667 -14.333 -75.334 -43 -104.001s-63.334 -43 -104.001 -43c-41.333 0 -76.333 14.167 -105 42.5s-43 63.166 -43 104.499z" />
    <glyph glyph-name="onesuperior" unicode="&#xb9;" horiz-adv-x="2271" 
d="M80 147l0.00195312 1164c0 106 51 159 153 159c23.333 0 47.166 -6.66699 71.499 -20s43.5 -29 57.5 -47l650 -866h4v774c0 106 51 159 153 159c102.667 0 154 -53 154 -159v-1164c0 -47.333 -13.833 -85.666 -41.5 -114.999s-65.167 -44 -112.5 -44
c-18.667 0 -41.667 7.33301 -69 22c-29.333 15.333 -49.333 30.333 -60 45l-649 856h-4v-764c0 -47.333 -13.833 -85.666 -41.5 -114.999s-65.167 -44 -112.5 -44c-46.667 0 -83.834 14.667 -111.501 44s-41.5 67.666 -41.5 114.999zM1824 1418
c96.667 0 177.832 -32.832 243.499 -98.499s98.5 -146.834 98.5 -243.501s-33.167 -177.5 -99.5 -242.5s-147.166 -97.5 -242.499 -97.5c-98 0 -179.833 32.167 -245.5 96.5s-98.5 145.5 -98.5 243.5c0 96 33.333 177 100 243s148 99 244 99zM1824 896
c45.333 0 81.667 19.3311 109 57.998c24 34.667 36 75.334 36 122.001c0 50.667 -11.333 92.334 -34 125.001c-26 38 -63 57 -111 57s-85.333 -19 -112 -57c-24 -33.333 -36 -75 -36 -125c0 -48 12.333 -89 37 -123c27.333 -38 64.333 -57 111 -57zM1603 615.998h436
c82 0 123 -41 123 -123s-41 -123 -123 -123h-436c-82 0 -123 41 -123 123s41 123 123 123z" />
    <glyph glyph-name="ordmasculine" unicode="&#xba;" horiz-adv-x="739" 
d="M371 1483c96.667 0 177.832 -32.832 243.499 -98.499s98.5 -146.834 98.5 -243.501s-33.167 -177.5 -99.5 -242.5s-147.166 -97.5 -242.499 -97.5c-98 0 -179.833 32.167 -245.5 96.5s-98.5 145.5 -98.5 243.5c0 96 33.333 177 100 243s148 99 244 99zM370.998 961.001
c45.333 0 81.667 19.3311 109 57.998c24 34.667 36 75.334 36 122.001c0 50.667 -11.333 92.334 -34 125.001c-26 38 -63 57 -111 57s-85.333 -19 -112 -57c-24 -33.333 -36 -75 -36 -125c0 -48 12.333 -89 37 -123c27.333 -38 64.333 -57 111 -57z" />
    <glyph glyph-name="guillemotright" unicode="&#xbb;" horiz-adv-x="1024" 
d="M516 324l162 251.002l-162 240c-14.667 22 -22 45.333 -22 70c0 37.333 11.167 68.166 33.5 92.499s51.833 36.5 88.5 36.5c46.667 0 81 -17 103 -51l211 -326c12 -18.667 18 -43.334 18 -74.001c0 -30 -16.333 -68 -49 -114l-199 -281c-20 -23.333 -49.333 -35 -88 -35
c-32.667 0 -60.5 10.833 -83.5 32.5s-34.5 48.5 -34.5 80.5c0 29.333 7.33301 55.333 22 78zM98 324.002l162 251l-162 240c-14.667 22 -22 45.333 -22 70c0 36.667 11.5 67.334 34.5 92.001s52.5 37 88.5 37c46 0 80 -17 102 -51l211 -326
c12 -18.667 18 -43.334 18 -74.001c0 -29.333 -16.333 -67.333 -49 -114l-198 -281c-20.667 -23.333 -50 -35 -88 -35c-32.667 0 -60.667 11 -84 33s-35 48.667 -35 80c0 29.333 7.33301 55.333 22 78z" />
    <glyph glyph-name="onequarter" unicode="&#xbc;" horiz-adv-x="1763" 
d="M332 152l677.999 1278c22.667 43.333 54 65 94 65c32.667 0 61 -11.167 85 -33.5s36 -49.5 36 -81.5c0 -19.333 -5.66699 -39.666 -17 -60.999l-688 -1288c-31.333 -45.333 -62 -68 -92 -68c-29.333 0 -56.166 11.667 -80.499 35s-36.5 49.333 -36.5 78
c0 24 7 49.333 21 76zM232.999 673.999v588h-69c-60 0 -90 35.333 -90 106c0 68 30 102 90 102h190c58.667 0 88 -28.667 88 -86v-710c0 -60 -34.667 -90 -104 -90c-70 0 -105 30 -105 90zM972.999 314.999l296.999 500.001c28.667 48 77 72 145 72
c50.667 0 90.334 -13.667 119.001 -41s43 -66.333 43 -117v-362h20c62 0 93 -32.333 93 -97c0 -66.667 -31 -100 -93 -100h-20v-92c0 -60 -34.667 -90 -104 -90c-70 0 -105 30 -105 90v92h-334c-53.333 0 -80 28 -80 84c0 19.333 6.33301 39.666 19 60.999zM1368 367v313h-4
l-172 -313h176z" />
    <glyph glyph-name="onehalf" unicode="&#xbd;" horiz-adv-x="1763" 
d="M332 152l677.999 1278c22.667 43.333 54 65 94 65c32.667 0 61 -11.167 85 -33.5s36 -49.5 36 -81.5c0 -19.333 -5.66699 -39.666 -17 -60.999l-688 -1288c-31.333 -45.333 -62 -68 -92 -68c-29.333 0 -56.166 11.667 -80.499 35s-36.5 49.333 -36.5 78
c0 24 7 49.333 21 76zM1606 -0.000976562l-465.001 0.00195312c-64.667 0 -97 27.333 -97 82c0 19.333 10.333 39.666 31 60.999c0.666992 0.666992 57.334 61 170.001 181c138 146.667 207 247 207 301c0 51.333 -31.333 77 -94 77c-55.333 0 -93 -30.333 -113 -91
s-52 -91 -96 -91c-64 0 -96 38.333 -96 115c0 54 27.333 107.333 82 160c63.333 61.333 140.333 92 231 92c82 0 150.333 -21 205 -63c60 -46.667 90 -109.667 90 -189c0 -78.667 -37.667 -161.334 -113 -248.001l-157 -178h202c28.667 0 52 -11 70 -33s27 -47.333 27 -76
c0 -66.667 -28 -100 -84 -100zM232.998 674.001v588h-69c-60 0 -90 35.333 -90 106c0 68 30 102 90 102h190c58.667 0 88 -28.667 88 -86v-710c0 -60 -34.667 -90 -104 -90c-70 0 -105 30 -105 90z" />
    <glyph glyph-name="threequarters" unicode="&#xbe;" horiz-adv-x="1763" 
d="M487 152l677.998 1278c22.667 43.333 54.334 65 95.001 65c32 0 60 -11.167 84 -33.5s36 -49.5 36 -81.5c0 -20.667 -5.33301 -41 -16 -61l-688 -1288c-31.333 -45.333 -62 -68 -92 -68c-29.333 0 -56.166 11.667 -80.499 35s-36.5 49.333 -36.5 78
c0 25.333 6.66699 50.666 20 75.999zM366.998 1483c73.333 0 137.335 -18.666 192.002 -55.999c62.667 -42.667 94 -98.334 94 -167.001c0 -80.667 -37.333 -143.667 -112 -189c109.333 -46.667 164 -120.334 164 -221.001c0 -86.667 -36 -154.334 -108 -203.001
c-62.667 -42 -139.334 -63 -230.001 -63c-74 0 -143.667 20.333 -209 61c-74 46 -111 101.333 -111 166c0 24 11.667 44 35 60c20.667 14.667 43.334 22 68.001 22c18.667 0 47 -20.833 85 -62.5s82 -62.5 132 -62.5c31.333 0 59.666 7.66699 84.999 23
c29.333 18 44 41.667 44 71c0 57.333 -37.667 92.333 -113 105c-38.667 6.66699 -64.667 13.334 -78 20.001c-24.667 12.667 -37 34.667 -37 66c0 36 18 60.333 54 73l106 37c19.333 11.333 29 34 29 68c0 44.667 -30 67 -90 67c-28 0 -55.333 -9.66699 -82 -29l-66 -59
c-14.667 -10.667 -33.667 -16 -57 -16c-57.333 0 -86 30 -86 90c0 54.667 34.667 102.334 104 143.001c63.333 37.333 125.666 56 186.999 56zM999 315.002l296.998 500c28.667 48 77.334 72 146.001 72c50.667 0 90.334 -13.667 119.001 -41s43 -66.333 43 -117v-362h20
c61.333 0 92 -32.333 92 -97c0 -66.667 -30.667 -100 -92 -100h-20v-92c0 -60 -35 -90 -105 -90c-69.333 0 -104 30 -104 90v92h-334c-53.333 0 -80 28 -80 84c0 20.667 6 41 18 61zM1395 367.002v313h-4l-172 -313h176z" />
    <glyph glyph-name="questiondown" unicode="&#xbf;" horiz-adv-x="985" 
d="M684 532l0.000976562 -203.999c0 -34.667 -19.667 -60.667 -59 -78c-10 -4.66699 -45.667 -15 -107 -31c-109.333 -29.333 -164 -87.333 -164 -174c0 -44.667 17.5 -81.834 52.5 -111.501s74.167 -44.5 117.5 -44.5c54.667 0 114.5 33.833 179.5 101.5
s115.167 101.5 150.5 101.5c39.333 0 70.666 -15 93.999 -45c20.667 -27.333 31 -61.333 31 -102c0 -100 -52.667 -183.333 -158 -250c-92.667 -58.667 -191.667 -88 -297 -88c-220 0 -370 84.667 -450 254c-26 54.667 -39 116 -39 184c0 214.667 118 352.667 354 414v73
c0 42 14 76.167 42 102.5s63.333 39.5 106 39.5c98 0 147 -47.333 147 -142zM537.001 1114c44 0 81.499 -15.668 112.499 -47.001s46.5 -69 46.5 -113c0 -43.333 -15.667 -80.666 -47 -111.999s-68.666 -47 -111.999 -47c-44 0 -81.667 15.5 -113 46.5s-47 68.5 -47 112.5
s15.667 81.667 47 113s69 47 113 47z" />
    <glyph glyph-name="Agrave" unicode="&#xc0;" horiz-adv-x="1323" 
d="M51 199l412 1114c42 113.333 115 170 219 170c105.333 0 178.333 -56.667 219 -170l402 -1114c10.667 -29.333 16 -54.666 16 -75.999c0 -39.333 -14 -71.666 -42 -96.999s-61 -38 -99 -38c-77.333 0 -127.333 35.333 -150 106l-61 193h-570l-61 -191
c-22.667 -72 -72 -108 -148 -108c-41.333 0 -76.833 13.667 -106.5 41s-44.5 61.333 -44.5 102c0 6.66699 4.66699 29.334 14 68.001zM680 1163l-195 -594h389l-190 594h-4z" />
    <glyph glyph-name="Aacute" unicode="&#xc1;" horiz-adv-x="1188" 
d="M418 975l227 0.000976562c147.333 0 268.666 -44 363.999 -132c98.667 -90 148 -208 148 -354c0 -148 -51 -267.333 -153 -358c-98 -87.333 -221.667 -131 -371 -131h-363c-49.333 0 -88.166 14.333 -116.499 43s-42.5 67.667 -42.5 117v1151
c0 34.667 14.333 68.667 43 102c26 30 64 45 114 45h637c42.667 0 76.167 -12.833 100.5 -38.5s36.5 -59.834 36.5 -102.501c0 -42 -12.5 -76 -37.5 -102s-58.167 -39 -99.5 -39l-487 -2v-199zM418 270.001h209c62.667 0 113.5 20.333 152.5 61s58.5 92.667 58.5 156
s-19.333 115.5 -58 156.5s-89.667 61.5 -153 61.5h-209v-435z" />
    <glyph glyph-name="Acircumflex" unicode="&#xc2;" 
d="M92 156v1149c0 47.333 15 84.666 45 111.999s69 41 117 41h393c170.667 0 288.667 -70.333 354 -211c20.667 -44.667 31 -94.334 31 -149.001c0 -140.667 -63.333 -241 -190 -301v-4c90 -14 164.333 -53 223 -117s88 -141.333 88 -232c0 -142 -44.333 -252.333 -133 -331
c-84 -75.333 -198 -113 -342 -113h-422c-47.333 0 -86.5 14.333 -117.5 43s-46.5 66.334 -46.5 113.001zM399 1188v-307h160c50.667 0 91 14.333 121 43s45 68 45 118c0 97.333 -55.333 146 -166 146h-160zM399 610.001v-340h242c57.333 0 103.833 15.667 139.5 47
s53.5 75.333 53.5 132c0 107.333 -72.667 161 -218 161h-217z" />
    <glyph glyph-name="Atilde" unicode="&#xc3;" horiz-adv-x="909" 
d="M399 147c0 -47.333 -13.832 -85.666 -41.499 -114.999s-64.834 -44 -111.501 -44c-47.333 0 -84.833 14.667 -112.5 44s-41.5 67.666 -41.5 114.999v1151c0 46.667 15 85 45 115s68.333 45 115 45h524c42.667 0 76.167 -12.833 100.5 -38.5s36.5 -59.834 36.5 -102.501
c0 -41.333 -12.5 -75.166 -37.5 -101.499s-58.167 -39.5 -99.5 -39.5h-377v-1029z" />
    <glyph glyph-name="Adieresis" unicode="&#xc4;" horiz-adv-x="1352" 
d="M506 285h405v903h-356l-2 -526c0 -153.333 -15.667 -279 -47 -377zM1219 285c95.333 -6 143.001 -59.334 143.001 -160.001v-406c0 -47.333 -13.833 -85.666 -41.5 -114.999s-65.167 -44 -112.5 -44c-46.667 0 -83.834 14.667 -111.501 44s-41.5 67.666 -41.5 114.999
v283h-746v-283c0 -47.333 -13.833 -85.666 -41.5 -114.999s-64.834 -44 -111.501 -44c-47.333 0 -84.833 14.667 -112.5 44s-41.5 67.666 -41.5 114.999v406c0 72 28.667 120.333 86 145c4.66699 4.66699 24.334 11 59.001 19c70 16.667 105 107.334 105 272.001v8l-4 742
c0 48 13.5 86.5 40.5 115.5s64.5 43.5 112.5 43.5h664c102.667 0 154 -53 154 -159v-1026z" />
    <glyph glyph-name="Aring" unicode="&#xc5;" horiz-adv-x="948" 
d="M92 154l0.00195312 1126c0 118.667 53.333 178 160 178h508c42 0 76.667 -13 104 -39s41 -60 41 -102c0 -40.667 -14 -74.334 -42 -101.001s-62.333 -40 -103 -40h-361v-299h336c45.333 0 81.666 -12.333 108.999 -37s41 -59.667 41 -105c0 -42 -14.333 -76 -43 -102
s-64.334 -39 -107.001 -39h-336v-311h379c42.667 0 77.667 -13 105 -39s41 -60.333 41 -103c0 -41.333 -14 -75.166 -42 -101.499s-62.667 -39.5 -104 -39.5h-528c-45.333 -0 -83 14.333 -113 43s-45 65.667 -45 111z" />
    <glyph glyph-name="AE" unicode="&#xc6;" horiz-adv-x="1993" 
d="M844 135c0 -44 14.3311 -79.4961 42.998 -106.496s65.334 -40.5 110.001 -40.5c43.333 0 79.833 13.667 109.5 41s44.5 62.666 44.5 105.999v522l530 -573c59.333 -64 111.333 -96 156 -96c46.667 0 84.334 11.667 113.001 35c31.333 25.333 47 60.666 47 105.999
c0 44 -28.667 96 -86 156l-473 493l387 381c66.667 65.333 100 120 100 164c0 43.333 -14.667 78.666 -44 105.999s-65 41 -107 41c-43.333 0 -83 -19 -119 -57l-504 -536v442c0 46 -14 82.667 -42 110s-65.333 41 -112 41c-46 0 -83 -13.667 -111 -41s-42 -64 -42 -110
v-442l-504 536c-36 38 -75.667 57 -119 57s-79.333 -13.833 -108 -41.5s-43 -62.834 -43 -105.501c0 -44 33.333 -98.667 100 -164l387 -381l-473 -493c-58.667 -61.333 -88 -113.333 -88 -156c0 -44.667 16.333 -80 49 -106c29.333 -23.333 67 -35 113 -35
c44 0 95.667 32 155 96l531 573v-522z" />
    <glyph glyph-name="Ccedilla" unicode="&#xc7;" horiz-adv-x="1110" 
d="M555 1483c137.333 0 247.334 -42.3301 330.001 -126.997c70.667 -72 106 -154.667 106 -248c0 -138 -56 -242.333 -168 -313c76.667 -35.333 137.5 -85.166 182.5 -149.499s67.5 -136.833 67.5 -217.5c0 -93.333 -30.333 -178.333 -91 -255
c-57.333 -72.667 -131.333 -126.334 -222 -161.001c-64.667 -24.667 -132.334 -37 -203.001 -37c-137.333 0 -256.666 44.667 -357.999 134c-88.667 78 -133 161.667 -133 251c0 39.333 16.667 72.666 50 99.999c30.667 25.333 66.334 38 107.001 38
c29.333 0 56.666 -13.667 81.999 -41c6 -6.66699 23.667 -32.667 53 -78c52 -80.667 119.667 -121 203 -121c54.667 0 100.5 18.333 137.5 55s55.5 82 55.5 136c0 81.333 -30 133.666 -90 156.999c-18 7.33301 -46 13.666 -84 18.999c-40 6 -68 11.333 -84 16
c-60 18 -90 59.667 -90 125c0 45.333 13.333 78.666 40 99.999c19.333 15.333 54.333 29.833 105 43.5s86 29.167 106 46.5c26 22.667 39 58.334 39 107.001c0 42.667 -13.667 76.167 -41 100.5s-62.666 36.5 -105.999 36.5c-68.667 0 -126.667 -33.333 -174 -100
c-28.667 -40 -46.334 -63.333 -53.001 -70c-21.333 -20.667 -48 -31 -80 -31c-40.667 0 -73.334 15.333 -98.001 46c-23.333 28.667 -35 64 -35 106c0 92.667 52.667 173 158 241c94 60.667 190 91 288 91z" />
    <glyph glyph-name="Egrave" unicode="&#xc8;" horiz-adv-x="1403" 
d="M1323 147l-0.00195312 1164c0 106 -51.333 159 -154 159c-52.667 0 -95.667 -22.333 -129 -67l-649 -866h-4v774c0 106 -51.333 159 -154 159c-102 0 -153 -53 -153 -159v-1164c0 -47.333 13.833 -85.666 41.5 -114.999s64.834 -44 111.501 -44
c20.667 0 44.167 7 70.5 21s45.833 29.333 58.5 46l650 856h4v-764c0 -47.333 13.833 -85.666 41.5 -114.999s64.834 -44 111.501 -44c47.333 0 84.833 14.667 112.5 44s41.5 67.666 41.5 114.999z" />
    <glyph glyph-name="Eacute" unicode="&#xc9;" horiz-adv-x="1403" 
d="M1323 147l-0.00195312 1164c0 106 -51.333 159 -154 159c-52.667 0 -95.667 -22.333 -129 -67l-649 -866h-4v774c0 106 -51.333 159 -154 159c-102 0 -153 -53 -153 -159v-1164c0 -47.333 13.833 -85.666 41.5 -114.999s64.834 -44 111.501 -44
c20.667 0 44.167 7 70.5 21s45.833 29.333 58.5 46l650 856h4v-764c0 -47.333 13.833 -85.666 41.5 -114.999s64.834 -44 111.501 -44c47.333 0 84.833 14.667 112.5 44s41.5 67.666 41.5 114.999zM1073 1755c0 41.333 -14.168 76.332 -42.501 104.999
s-63.166 43 -104.499 43s-76.333 -14.333 -105 -43s-43 -63.667 -43 -105c-4 -26 -27 -39 -69 -39h-4c-54.667 0.666992 -82 13.667 -82 39c0 41.333 -14.333 76.333 -43 105s-63.667 43 -105 43s-76.166 -14.333 -104.499 -43s-42.5 -63.667 -42.5 -105
c0 -96 37.333 -172.667 112 -230c67.333 -51.333 150.666 -77.666 249.999 -78.999h17c95.333 0 177 24.667 245 74c80.667 58.667 121 137 121 235z" />
    <glyph glyph-name="Ecircumflex" unicode="&#xca;" horiz-adv-x="1219" 
d="M92 135l0.000976562 1184c0 46 14 82.667 42 110s65.333 41 112 41c46 0 83 -13.667 111 -41s42 -64 42 -110v-442l504 536c36 38 75.667 57 119 57c44 0 80.333 -13.667 109 -41s43 -62.666 43 -105.999s-33.667 -98 -101 -164l-387 -381l473 -493
c57.333 -60 86 -112 86 -156c0 -94 -53.333 -141 -160 -141c-44 0 -95.667 32 -155 96l-531 573v-522c0 -44 -14.333 -79.5 -43 -106.5s-65.334 -40.5 -110.001 -40.5s-81.5 13.5 -110.5 40.5s-43.5 62.5 -43.5 106.5z" />
    <glyph glyph-name="Edieresis" unicode="&#xcb;" horiz-adv-x="1286" 
d="M1032 1470c102.667 0 153.999 -53.002 153.999 -159.002v-1164c0 -47.333 -13.833 -85.666 -41.5 -114.999s-65.167 -44 -112.5 -44c-46.667 0 -83.834 14.667 -111.501 44s-41.5 67.666 -41.5 114.999v1041h-357l-2 -526v-29c0 -144 -18.333 -268.333 -55 -373
c-63.333 -180 -168.666 -270 -315.999 -270h-2c-49.333 0 -88 17 -116 51c-23.333 28.667 -35 61.334 -35 98.001v13c2.66699 44 18.334 80 47.001 108c10.667 10 21 17 31 21c9.33301 1.33301 23 4 41 8c69.333 15.333 104 106 104 272v8l-4 742
c0 48.667 13.667 87.334 41 116.001s65 43 113 43h663z" />
    <glyph glyph-name="Igrave" unicode="&#xcc;" horiz-adv-x="1782" 
d="M51 170l170.001 1143c6.66699 44 30.667 81.667 72 113c40 29.333 83 44 129 44c46.667 0 89 -13.333 127 -40s64 -62.334 78 -107.001l262 -811h4l262 811c14 44.667 40 80.334 78 107.001s80.333 40 127 40c47.333 0 90.333 -14.333 129 -43
c41.333 -30.667 65.333 -68.667 72 -114l170 -1143c1.33301 -8.66699 2 -14.667 2 -18v-17c0 -44 -13.667 -79.5 -41 -106.5s-63 -40.5 -107 -40.5c-95.333 0 -148.666 47.667 -159.999 143l-100 834h-4l-266 -859c-24.667 -78.667 -79.334 -118 -164.001 -118
s-139.334 39.333 -164.001 118l-266 859h-4l-101 -834c-11.333 -95.333 -64.333 -143 -159 -143c-44 0 -79.667 13.5 -107 40.5s-41 62.5 -41 106.5v17c0 4 0.666992 10 2 18z" />
    <glyph glyph-name="Iacute" unicode="&#xcd;" horiz-adv-x="1442" 
d="M92 147l0.000976562 1164c0 106 51.333 159 154 159c102 0 153 -53 153 -159v-434h643v434c0 106 51.333 159 154 159s154 -53 154 -159v-1164c0 -47.333 -13.833 -85.666 -41.5 -114.999s-65.167 -44 -112.5 -44s-84.833 14.667 -112.5 44s-41.5 67.666 -41.5 114.999
v447h-643v-447c0 -47.333 -13.833 -85.666 -41.5 -114.999s-64.834 -44 -111.501 -44c-47.333 0 -84.833 14.667 -112.5 44s-41.5 67.666 -41.5 114.999z" />
    <glyph glyph-name="Icircumflex" unicode="&#xce;" horiz-adv-x="1503" 
d="M772 258c126 0 223.667 49.333 293 148c61.333 87.333 92 195 92 323c0 208.667 -72.333 352.667 -217 432c-47.333 26 -103.333 39 -168 39c-124 0 -221.667 -49.667 -293 -149c-61.333 -86 -92 -193.333 -92 -322c0 -132.667 32 -242 96 -328
c70.667 -95.333 167 -143 289 -143zM772 -25c-209.333 0 -380.667 75.333 -514 226c-126.667 142.667 -190 318.667 -190 528c0 216 65.333 395.667 196 539s300 215 508 215c206 0 376.333 -75 511 -225c129.333 -144 194 -320.333 194 -529c0 -212 -64 -389.333 -192 -532
c-132 -148 -303 -222 -513 -222z" />
    <glyph glyph-name="Idieresis" unicode="&#xcf;" horiz-adv-x="1376" 
d="M1135 1470c102 0 153.002 -53 153.002 -159v-1164c0 -47.333 -13.833 -85.666 -41.5 -114.999s-64.834 -44 -111.501 -44c-47.333 0 -84.833 14.667 -112.5 44s-41.5 67.666 -41.5 114.999v1041h-582v-1041c0 -47.333 -13.833 -85.666 -41.5 -114.999
s-64.834 -44 -111.501 -44c-47.333 0 -84.833 14.667 -112.5 44s-41.5 67.666 -41.5 114.999v1164c0 106 51.333 159 154 159h889z" />
    <glyph glyph-name="Eth" unicode="&#xd0;" horiz-adv-x="1155" 
d="M109 147l-0.000976562 1151c0 49.333 14.167 88.333 42.5 117s67.166 43 116.499 43h363c154 0 279 -44.333 375 -133c99.333 -91.333 149 -210 149 -356c0 -104 -27.833 -196.167 -83.5 -276.5s-132.167 -138.5 -229.5 -174.5
c-63.333 -23.333 -129.666 -35 -198.999 -35h-227v-336c0 -47.333 -13.833 -85.666 -41.5 -114.999s-65.167 -44 -112.5 -44s-84.666 15 -111.999 45s-41 68 -41 114zM415.999 1188v-434h209c63.333 0 114.333 20.167 153 60.5s58 92.5 58 156.5
c0 63.333 -19.5 115.333 -58.5 156s-89.833 61 -152.5 61h-209z" />
    <glyph glyph-name="Ntilde" unicode="&#xd1;" horiz-adv-x="1219" 
d="M51 729c0 214 63.333 391.667 190 533c132 147.333 303.667 221 515 221c177.333 0 308.333 -39 393 -117c31.333 -28.667 47 -66.334 47 -113.001c0 -38 -11.833 -70.333 -35.5 -97s-54.167 -40 -91.5 -40c-18.667 0 -63.334 12 -134.001 36s-130.334 36 -179.001 36
c-125.333 0 -223 -48.667 -293 -146c-61.333 -85.333 -92 -191.666 -92 -318.999c0 -126 32 -231 96 -315c70 -92 166.333 -138 289 -138c50.667 0 112 14.333 184 43s119 43 141 43c62 0 104.333 -32 127 -96c6 -16.667 9 -31 9 -43c0 -86 -58.333 -150.667 -175 -194
c-85.333 -32 -180.666 -48 -285.999 -48c-209.333 0 -380.666 75.333 -513.999 226c-127.333 144 -191 320 -191 528z" />
    <glyph glyph-name="Ograve" unicode="&#xd2;" horiz-adv-x="983" 
d="M338 147l0.000976562 1029h-223c-42.667 0 -76.667 12.833 -102 38.5s-38 59.834 -38 102.501c0 39.333 13.5 72.666 40.5 99.999s60.167 41 99.5 41h753c40.667 0 74.167 -13.333 100.5 -40s39.5 -60.334 39.5 -101.001c0 -44 -12.5 -78.5 -37.5 -103.5
s-59.167 -37.5 -102.5 -37.5h-223v-1029c0 -47.333 -13.833 -85.666 -41.5 -114.999s-64.834 -44 -111.501 -44c-47.333 0 -84.833 14.667 -112.5 44s-41.5 67.666 -41.5 114.999z" />
    <glyph glyph-name="Oacute" unicode="&#xd3;" horiz-adv-x="1192" 
d="M184 270c34 31.333 64.001 47 90.001 47h9c24 -4 46.333 -6 67 -6c75.333 0 128 41 158 123l-440 813c-12.667 23.333 -19 46.666 -19 69.999c0 6.66699 0.666992 15.334 2 26.001c4.66699 37.333 20.5 68.333 47.5 93s59.167 37 96.5 37c6.66699 0 14 -1 22 -3
c54.667 -6.66699 94.334 -32.334 119.001 -77.001l334 -609l278 605c26 56 74 84 144 84c35.333 0 66.166 -11.667 92.499 -35s42.5 -52.666 48.5 -87.999c1.33301 -7.33301 2 -17 2 -29c0 -26 -4.66699 -48.667 -14 -68l-287 -604
c-98.667 -208 -156.667 -326.667 -174 -356c-88.667 -152 -175.334 -243 -260.001 -273c-41.333 -14.667 -85 -22 -131 -22c-122 0 -194.333 50.667 -217 152c-1.33301 10.667 -2 20.667 -2 30c0 38.667 11.333 68.667 34 90z" />
    <glyph glyph-name="Ocircumflex" unicode="&#xd4;" horiz-adv-x="1786" 
d="M1047 983h208c64 0 115.167 -20.167 153.5 -60.5s57.5 -92.5 57.5 -156.5s-19.167 -116.167 -57.5 -156.5s-89.5 -60.5 -153.5 -60.5h-208v434zM739 147c1.33301 -9.33301 5.66504 -30.332 12.998 -62.999c6.66699 -30 24.334 -53.667 53.001 -71
c26.667 -16.667 56 -25 88 -25c47.333 0 84.833 14.667 112.5 44s41.5 67.666 41.5 114.999v132h227c146.667 0 268 44 364 132c98.667 90.667 148 208.334 148 353.001c0 148 -51 267.333 -153 358c-98 87.333 -221.667 131 -371 131h-215v58c0 106 -51.333 159 -154 159
s-154 -53 -154 -159v-58h-215c-150.667 0 -274.667 -43.333 -372 -130c-101.333 -90.667 -152 -210.334 -152 -359.001c0 -105.333 27.833 -197.833 83.5 -277.5s132.834 -137.5 231.501 -173.5c62 -22.667 127.667 -34 197 -34h227v-132zM738.999 983.001v-434h-209
c-62 0 -112.667 20.5 -152 61.5s-59 92.833 -59 155.5s19.667 114.5 59 155.5s90 61.5 152 61.5h209z" />
    <glyph glyph-name="Otilde" unicode="&#xd5;" horiz-adv-x="1253" 
d="M43 236l406.003 544l-332 451c-22 30 -33 60 -33 90c0 45.333 14.667 81.5 44 108.5s66.666 40.5 111.999 40.5c53.333 0 97.666 -25 132.999 -75l254 -361l254 361c35.333 50 79.666 75 132.999 75c46 0 83.333 -13.333 112 -40s43 -63 43 -109
c0 -31.333 -10.667 -61.333 -32 -90l-332 -451l405 -544c23.333 -31.333 35 -66.333 35 -105c0 -44.667 -14.5 -79.667 -43.5 -105s-66.167 -38 -111.5 -38c-52.667 0 -95 22.333 -127 67l-336 467l-336 -467c-32 -44.667 -74.333 -67 -127 -67c-44 0 -81 13 -111 39
s-45 60.667 -45 104c0 38.667 11.667 73.667 35 105z" />
    <glyph glyph-name="Odieresis" unicode="&#xd6;" horiz-adv-x="1425" 
d="M246 2c-47.333 0 -84.833 14.667 -112.5 44s-41.5 68 -41.5 116v1163c0 106.667 51.333 160 154 160c102 0 153 -53.333 153 -160v-1040h582v1040c0 106.667 51.333 160 154 160c102 0 153 -53.333 153 -160v-1040c96 -6 144 -59.333 144 -160v-406
c0 -47.333 -13.833 -85.666 -41.5 -114.999s-65.167 -44 -112.5 -44s-84.833 14.667 -112.5 44s-41.5 67.666 -41.5 114.999v283h-878z" />
    <glyph glyph-name="multiply" unicode="&#xd7;" horiz-adv-x="1300" 
d="M899 1311c0 106 51.333 159.002 154 159.002c102 0 153 -53 153 -159v-1164c0 -47.333 -13.833 -85.666 -41.5 -114.999s-64.834 -44 -111.501 -44c-47.333 0 -84.833 14.667 -112.5 44s-41.5 67.666 -41.5 114.999v406c-229.333 0 -344 -0.333008 -344 -1
s23.667 -1.33398 71 -2.00098c-115.333 1.33301 -204.666 12.666 -267.999 33.999c-190.667 64 -286 203 -286 417v310c0.666992 52.667 16.334 93 47.001 121c27.333 25.333 62.666 38 105.999 38c45.333 0 82.333 -13.333 111 -40s43 -63.667 43 -111v-262
c0 -84.667 24 -143.667 72 -177c40 -28 104.667 -42 194 -42h115l139 -2v475z" />
    <glyph glyph-name="Oslash" unicode="&#xd8;" horiz-adv-x="2062" 
d="M246 2c-47.333 0 -84.834 14.667 -112.501 44s-41.5 68 -41.5 116v1163c0 106.667 51.333 160 154 160c102 0 153 -53.333 153 -160v-1040h500v1040c0 106.667 51.333 160 154 160c102 0 153 -53.333 153 -160v-1040h500v1040c0 106.667 51.333 160 154 160
c102 0 153 -53.333 153 -160v-1163c0 -47.333 -13.667 -85.833 -41 -115.5s-64.666 -44.5 -111.999 -44.5h-1614z" />
    <glyph glyph-name="Ugrave" unicode="&#xd9;" horiz-adv-x="2126" 
d="M246 2c-47.333 0 -84.833 14.668 -112.5 44.001s-41.5 68 -41.5 116v1163c0 106.667 51.333 160 154 160c102 0 153 -53.333 153 -160v-1040h500v1040c0 106.667 51.333 160 154 160c102 0 153 -53.333 153 -160v-1040h500v1040c0 106.667 51.333 160 154 160
c102 0 153 -53.333 153 -160l-2 -1040c95.333 -6 143 -59.333 143 -160v-406c0 -48 -13.667 -86.5 -41 -115.5s-64.666 -43.5 -112 -43.5c-47.333 0 -84.833 14.667 -112.5 44s-41.5 67.666 -41.5 114.999v283h-1601z" />
    <glyph glyph-name="Uacute" unicode="&#xda;" horiz-adv-x="1403" 
d="M115 1458c-39.333 0 -72.5 -13.668 -99.5 -41.001s-40.5 -60.666 -40.5 -99.999c0 -42.667 12.667 -76.834 38 -102.501s59.333 -38.5 102 -38.5h223v-1016c0 -106.667 53.333 -160 160 -160h362c150 0 273.667 43.667 371 131c102 90.667 153 210 153 358
c0 104.667 -27.667 197.334 -83 278.001s-132 139 -230 175c-60 22 -126.333 33 -199 33h-227v323c0 106.667 -51 160 -153 160h-377zM645 269.999v435h209c64 0 115.167 -20.333 153.5 -61s57.5 -93 57.5 -157s-19.333 -116.167 -58 -156.5s-89.667 -60.5 -153 -60.5h-209z
" />
    <glyph glyph-name="Ucircumflex" unicode="&#xdb;" horiz-adv-x="1630" 
d="M1253 147v1164c0 47.333 14 85.666 42 114.999s65.333 44 112 44c102.667 0 154 -53 154 -159v-1164c0 -47.333 -13.833 -85.666 -41.5 -114.999s-65.167 -44 -112.5 -44c-45.333 0 -82.333 15 -111 45s-43 68 -43 114zM68 1311l0.000976562 -1151
c0 -49.333 14.167 -88.333 42.5 -117s67.166 -43 116.499 -43h363c150 0 273.667 43.667 371 131c102 90.667 153 210 153 358c0 104.667 -27.667 197.334 -83 278.001s-132 139 -230 175c-60 22 -126.333 33 -199 33h-227v336c0 106 -51.333 159 -154 159
c-102 0 -153 -53 -153 -159zM375.001 269.999v435h209c63.333 0 114.333 -20.5 153 -61.5s58 -93.167 58 -156.5s-19.5 -115.333 -58.5 -156s-89.833 -61 -152.5 -61h-209z" />
    <glyph glyph-name="Udieresis" unicode="&#xdc;" horiz-adv-x="1188" 
d="M117 1311l0.000976562 -1151c0 -49.333 14.167 -88.333 42.5 -117s67.166 -43 116.499 -43h363c150 0 273.667 43.667 371 131c102 90.667 153 210 153 358c0 104.667 -27.667 197.334 -83 278.001s-132 139 -230 175c-60 22 -126.333 33 -199 33h-227v336
c0 106 -51.333 159 -154 159c-102 0 -153 -53 -153 -159zM424.001 269.999v435h209c63.333 0 114.333 -20.5 153 -61.5s58 -93.167 58 -156.5s-19.5 -115.333 -58.5 -156s-89.833 -61 -152.5 -61h-209z" />
    <glyph glyph-name="Yacute" unicode="&#xdd;" horiz-adv-x="1219" 
d="M860 877c-23.333 95.333 -65.333 170.001 -126 224.001c-64.667 58 -144.667 87 -240 87c-48.667 0 -108.5 -12 -179.5 -36s-115.833 -36 -134.5 -36c-37.333 0 -67.833 13.333 -91.5 40s-35.5 59 -35.5 97c0 79.333 55.333 140.333 166 183c81.333 31.333 173 47 275 47
c210.667 0 382 -73.667 514 -221c126.667 -142 190 -319.667 190 -533c0 -212.667 -63.667 -390 -191 -532c-132 -148 -303 -222 -513 -222c-186 0 -322.667 40.333 -410 121c-34 31.333 -51 71.666 -51 120.999c0 36 13.5 68.167 40.5 96.5s58.5 42.5 94.5 42.5
c22 0 69.167 -14.333 141.5 -43s133.833 -43 184.5 -43c96 0 177.667 30.667 245 92c64.667 58.667 107 136 127 232h-467c-42.667 0 -78.167 13 -106.5 39s-42.5 60 -42.5 102c0 44 13.833 78.667 41.5 104s63.5 38 107.5 38h461z" />
    <glyph glyph-name="Thorn" unicode="&#xde;" horiz-adv-x="2159" 
d="M1405 258c126 0 223.667 49.333 293 148c61.333 87.333 92 195 92 323c0 208.667 -72.333 352.667 -217 432c-47.333 26 -103.333 39 -168 39c-124 0 -221.667 -49.667 -293 -149c-61.333 -86 -92 -193.333 -92 -322c0 -132.667 32 -242 96 -328
c70.667 -95.333 167 -143 289 -143zM1405 -25c-182.667 0 -337.499 57.667 -464.499 173s-203.5 264 -229.5 446h-312v-447c0 -47.333 -13.833 -85.666 -41.5 -114.999s-64.834 -44 -111.501 -44c-47.333 0 -84.833 14.667 -112.5 44s-41.5 67.666 -41.5 114.999v1164
c0 106 51.333 159 154 159c102 0 153 -53 153 -159v-434h314c24.667 151.333 86 281 184 389c131.333 144.667 300.666 217 507.999 217c206.667 0 377.334 -76 512.001 -228c128 -144 192 -319.333 192 -526c0 -212.667 -63.667 -390 -191 -532
c-132 -148 -303 -222 -513 -222z" />
    <glyph glyph-name="germandbls" unicode="&#xdf;" horiz-adv-x="1139" 
d="M1055 147l0.00195312 1151c0 106.667 -52.667 160 -158 160h-360c-340 0 -510 -154.333 -510 -463c0 -108 37 -196.667 111 -266c67.333 -62.667 156.666 -103 267.999 -121l-349 -372c-27.333 -29.333 -41 -59.666 -41 -90.999c0 -42.667 15 -79.5 45 -110.5
s66.333 -46.5 109 -46.5c50 0 89.667 17.667 119 53l454 551h5v-445c0 -48 13.667 -86.5 41 -115.5s64.666 -43.5 111.999 -43.5s84.833 14.667 112.5 44s41.5 67.666 41.5 114.999zM748.002 1176v-363.001h-211c-57.333 0 -103.5 16.167 -138.5 48.5
s-52.5 76.833 -52.5 133.5s18 101.334 54 134.001c34 31.333 79.667 47 137 47h211z" />
    <glyph glyph-name="agrave" unicode="&#xe0;" horiz-adv-x="1225" 
d="M1141 909l0.000976562 -729c0 -88 -20 -145.333 -60 -172c-20 -13.333 -47.333 -20 -82 -20c-73.333 0 -120.333 41.667 -141 125c-76.667 -92 -170 -138 -280 -138c-106.667 0 -200.334 31.333 -281.001 94c-77.333 60 -134 141.333 -170 244
c-24.667 70.667 -37 147.334 -37 230.001c0 150 43 280.333 129 391c93.333 120 213 180 359 180c122.667 0 216 -45 280 -135c4 35.333 19.5 64.666 46.5 87.999s58.5 35 94.5 35c62 0 103.667 -22.667 125 -68c11.333 -24 17 -65.667 17 -125zM385.001 543
c0 -80 18.9971 -147.667 56.9971 -203c42.667 -62.667 101.334 -94 176.001 -94c72.667 0 130.334 32.667 173.001 98c36.667 56 55 122.333 55 199c0 128.667 -42.333 220 -127 274c-28 18 -61.667 27 -101 27c-75.333 0 -134.666 -33 -177.999 -99
c-36.667 -56 -55 -123.333 -55 -202z" />
    <glyph glyph-name="aacute" unicode="&#xe1;" horiz-adv-x="1188" 
d="M618 844c-74.667 0 -134 -33 -178 -99c-36.667 -55.333 -55 -122.666 -55 -201.999c0 -80 19 -147.667 57 -203c42.667 -62.667 101.334 -94 176.001 -94c76 0 135.667 32 179 96c36.667 54.667 55 121.667 55 201c0 129.333 -42.333 220.666 -127 273.999
c-28.667 18 -64.334 27 -107.001 27zM301 993c84 80.667 189.667 121 317 121c154 0 281.667 -57.333 383 -172c97.333 -110.667 146 -243.667 146 -399c0 -158 -48 -291 -144 -399c-100 -112.667 -228.333 -169 -385 -169s-285 56.667 -385 170
c-95.333 108 -143 240.667 -143 398c0 60 2.66699 112.333 8 157c-18.667 87.333 -28 179 -28 275c0 370 147.333 587 442 651c74 16 111 47.333 111 94c0 106.667 39.333 160 118 160c93.333 0 140 -67 140 -201c0 -99.333 -26.667 -176.333 -80 -231
c-33.333 -34 -149.333 -84 -348 -150c-102.667 -57.333 -154 -148 -154 -272c0 -10.667 0.666992 -21.667 2 -33z" />
    <glyph glyph-name="acircumflex" unicode="&#xe2;" horiz-adv-x="1110" 
d="M385 864v-194h150c104.667 0 157 34 157 102c0 61.333 -52.333 92 -157 92h-150zM385 469v-219h227c122 0 183 38.333 183 115c0 69.333 -68.333 104 -205 104h-205zM973 88c-82.667 -57.333 -191.333 -86.001 -326 -86.001h-399c-49.333 0 -88.333 17.667 -117 53
c-26 32.667 -39 74.334 -39 125.001v750c0 51.333 12.667 93.666 38 126.999c27.333 36.667 66 55 116 55h372c162.667 0 274.667 -54 336 -162c19.333 -34 29 -71.333 29 -112c0 -120.667 -43.667 -198 -131 -232c54.667 -13.333 108 -42.666 160 -87.999
c44.667 -52 67 -113.333 67 -184c0 -46 -8.66699 -91.333 -26 -136c-20 -50 -46.667 -86.667 -80 -110z" />
    <glyph glyph-name="atilde" unicode="&#xe3;" horiz-adv-x="954" 
d="M109 901c0 -36 11.002 -66.333 33.002 -91c22.667 -26.667 51.667 -40 87 -40c15.333 0 54.666 14.333 117.999 43s112.333 43 147 43c66.667 0 100 -27.333 100 -82c0 -35.333 -44.333 -70 -133 -104l-123 -47c-170.667 -65.333 -256 -165.666 -256 -300.999
c0 -110 43.667 -197 131 -261c78 -57.333 174.333 -86 289 -86c94 0 183.333 21.333 268 64c95.333 48 143 102.667 143 164c0 34.667 -12.667 65.167 -38 91.5s-55 39.5 -89 39.5c-30 0 -66.5 -11 -109.5 -33s-78.167 -39 -105.5 -51c-23.333 -11.333 -53.333 -17 -90 -17
c-77.333 0 -116 28 -116 84c0 33.333 44.333 67.666 133 102.999l123 49c170.667 68 256 168.333 256 301c0 108.667 -41 194.667 -123 258c-74.667 57.333 -167 86 -277 86c-86.667 0 -166.334 -17 -239.001 -51c-86 -40 -129 -94 -129 -162z" />
    <glyph glyph-name="adieresis" unicode="&#xe4;" horiz-adv-x="1208" 
d="M1124 938l0.000976562 -852c0 -173.333 -51.667 -306.333 -155 -399c-98.667 -88.667 -236 -133 -412 -133c-87.333 0 -180 16.333 -278 49c-124.667 41.333 -187 98.666 -187 171.999c0 28.667 12.833 57.334 38.5 86.001s52.5 43 80.5 43c26.667 0 78.667 -15 156 -45
c80.667 -31.333 151.667 -47 213 -47c76 0 136.5 20.167 181.5 60.5s67.5 97.833 67.5 172.5v70h-4c-62.667 -93.333 -161.667 -140 -297 -140c-144.667 0 -258.667 58.333 -342 175c-74.667 104.667 -112 235 -112 391c0 109.333 23.667 210.333 71 303
c50.667 100 121.667 174.333 213 223c59.333 31.333 126.333 47 201 47c126 0 216 -45 270 -135c19.333 82 68.666 123 147.999 123c46 0 82 -15.5 108 -46.5s39 -70.167 39 -117.5zM829.001 537c0 79.333 -18.333 148 -55 206c-42.667 67.333 -101.334 101 -176.001 101
c-72.667 0 -130.667 -33 -174 -99c-36.667 -55.333 -55 -121.333 -55 -198c0 -81.333 17.333 -149.333 52 -204c41.333 -64.667 100.333 -97 177 -97c74.667 0 133.334 31.333 176.001 94c36.667 54 55 119.667 55 197z" />
    <glyph glyph-name="aring" unicode="&#xe5;" horiz-adv-x="1133" 
d="M983 446h-628.997c10 -68.667 41.167 -121.334 93.5 -158.001s114.166 -55 185.499 -55c43.333 0 90.333 11 141 33c8 4.66699 51 27.334 129 68.001c23.333 12 44.666 18 63.999 18c32 0 60 -13 84 -39s36 -55.333 36 -88c0 -75.333 -64 -138.333 -192 -189
c-103.333 -40.667 -199.666 -61 -288.999 -61c-163.333 0 -296.333 54 -399 162s-154 243.333 -154 406c0 155.333 49 288.333 147 399c101.333 114.667 228.666 172 381.999 172c110 0 210 -32.333 300 -97c87.333 -63.333 151.666 -147 192.999 -251
c24.667 -62 37 -124.667 37 -188c0 -88 -43 -132 -129 -132zM348.003 643l469 -0.000976562c-8 68 -32.5 122.5 -73.5 163.5s-94.833 61.5 -161.5 61.5c-64.667 0 -118.167 -21.167 -160.5 -63.5s-66.833 -96.166 -73.5 -161.499z" />
    <glyph glyph-name="ae" unicode="&#xe6;" horiz-adv-x="1577" 
d="M637 729v684c0 45.333 13.333 84 40 116s62.334 48 107.001 48c46.667 0 83 -15.5 109 -46.5s39 -70.167 39 -117.5v-688l323 313c44 42.667 88.667 64 134 64c36.667 0 66.5 -12.833 89.5 -38.5s34.5 -57.167 34.5 -94.5c0 -44 -19 -83 -57 -117l-262 -234l346 -405
c24.667 -28.667 37 -61.334 37 -98.001c0 -38.667 -13.5 -71.667 -40.5 -99s-59.833 -41 -98.5 -41c-45.333 0 -92.666 30.333 -141.999 91l-360 444h-4v-358c0 -47.333 -12.667 -86 -38 -116c-26.667 -32 -63.334 -48 -110.001 -48c-44.667 0 -80.334 16 -107.001 48
s-40 70.667 -40 116v358l-361 -444c-49.333 -60.667 -96.333 -91 -141 -91c-38.667 0 -71.5 13.667 -98.5 41s-40.5 60.333 -40.5 99c0 36.667 12.333 69.334 37 98.001l346 405l-262 234c-38.667 34.667 -58 73.667 -58 117c0 36 12 67.167 36 93.5s53.667 39.5 89 39.5
c44.667 0 89 -21.333 133 -64z" />
    <glyph glyph-name="ccedilla" unicode="&#xe7;" horiz-adv-x="889" 
d="M461 434c88.667 0 133.002 -31.334 133.002 -94.001c0 -71.333 -47 -107 -141 -107c-36 0 -75.333 10 -118 30l-110 56c-20.667 10 -46.667 15 -78 15c-34 0 -63.667 -13.333 -89 -40s-38 -57 -38 -91c0 -61.333 48 -116 144 -164
c85.333 -42.667 174.666 -64 267.999 -64c114.667 0 211 28.667 289 86c87.333 64 131 151 131 261c0 57.333 -12.333 104.333 -37 141c-14.667 22 -30.334 42.333 -47.001 61c-24 26.667 -48.667 46 -74 58c38.667 10.667 69.667 34.667 93 72
c21.333 34.667 32 73.334 32 116.001c0 108.667 -41 194.667 -123 258c-74 57.333 -166 86 -276 86c-87.333 0 -167.333 -17 -240 -51c-86 -40 -129 -94 -129 -162c0 -34.667 11.5 -65.167 34.5 -91.5s51.833 -39.5 86.5 -39.5c14 0 31 4.66699 51 14l66 50
c16.667 12 40.334 23.333 71.001 34c17.333 6 42.666 9 75.999 9c26.667 0 50 -6.33301 70 -19c35.333 -22.667 53 -50 53 -82c0 -20.667 -7.33301 -40.5 -22 -59.5s-32 -29.167 -52 -30.5c-30.667 -2 -68.667 -6.66699 -114 -14c-56 -19.333 -85.333 -52.333 -88 -99v-8
c0 -40.667 20.333 -73.667 61 -99c34.667 -21.333 73.667 -32 117 -32z" />
    <glyph glyph-name="egrave" unicode="&#xe8;" horiz-adv-x="1139" 
d="M1059 934v-787c0 -46 -13.333 -84.667 -40 -116s-62.667 -47 -108 -47c-78.667 0 -123.667 36 -135 108c-58.667 -80.667 -153.334 -121 -284.001 -121c-122 0 -219.833 36 -293.5 108s-110.5 168.667 -110.5 290v565c0 46 13.333 84.833 40 116.5s62.667 47.5 108 47.5
c46 0 82 -15.5 108 -46.5s39 -70.167 39 -117.5v-514c0 -60.667 17 -109.667 51 -147s81 -56 141 -56s106.5 18.833 139.5 56.5s49.5 86.5 49.5 146.5v514c0 45.333 13.333 84 40 116s62.334 48 107.001 48c46.667 0 83 -15.5 109 -46.5s39 -70.167 39 -117.5z" />
    <glyph glyph-name="eacute" unicode="&#xe9;" horiz-adv-x="1139" 
d="M1059 934v-787c0 -46 -13.333 -84.667 -40 -116s-62.667 -47 -108 -47c-78.667 0 -123.667 36 -135 108c-58.667 -80.667 -153.334 -121 -284.001 -121c-122 0 -219.833 36 -293.5 108s-110.5 168.667 -110.5 290v565c0 47.333 13 86.5 39 117.5s62.333 46.5 109 46.5
c46 0 82 -15.5 108 -46.5s39 -70.167 39 -117.5v-514c0 -58.667 16.833 -107.167 50.5 -145.5s80.834 -57.5 141.501 -57.5c60 0 106.5 18.833 139.5 56.5s49.5 86.5 49.5 146.5v514c0 47.333 13 86.5 39 117.5s62 46.5 108 46.5c46.667 0 83 -15.5 109 -46.5
s39 -70.167 39 -117.5zM887 1448c-0.666992 34 -12.834 62.667 -36.501 86s-52.5 35 -86.5 35c-33.333 0 -62.166 -11.833 -86.499 -35.5s-36.5 -52.167 -36.5 -85.5c-2.66699 -20.667 -21.667 -31 -57 -31h-4c-45.333 0.666992 -68 11 -68 31c0 34 -11.667 62.667 -35 86
s-52 35 -86 35c-33.333 0 -62.166 -11.833 -86.499 -35.5s-36.5 -52.167 -36.5 -85.5c0 -77.333 31.333 -139.333 94 -186c57.333 -42.667 126.333 -64.667 207 -66h9c81.333 0 151.666 21.333 210.999 64c65.333 46.667 98 108.667 98 186v2z" />
    <glyph glyph-name="ecircumflex" unicode="&#xea;" horiz-adv-x="1040" 
d="M100 152l-0.000976562 1261c0 46 13.333 84.833 40 116.5s62.667 47.5 108 47.5c46 0 82 -15.5 108 -46.5s39 -70.167 39 -117.5v-688l324 313c44 42.667 88.333 64 133 64c36.667 0 66.667 -13 90 -39s35 -57.333 35 -94c0 -44 -19 -83 -57 -117l-263 -234l347 -405
c24 -28 36 -60.667 36 -98c0 -38.667 -13.5 -71.667 -40.5 -99s-59.833 -41 -98.5 -41c-44.667 0 -91.667 30.333 -141 91l-361 444h-4v-358c0 -47.333 -12.667 -86 -38 -116c-26.667 -32 -63 -48 -109 -48c-45.333 0 -81.666 16.333 -108.999 49c-26 30.667 -39 69 -39 115
z" />
    <glyph glyph-name="edieresis" unicode="&#xeb;" horiz-adv-x="1141" 
d="M928 1102c95.333 0 143 -39.667 143 -119v-866c0 -79.333 -47.667 -119 -143 -119c-96 0 -144 39.667 -144 119v733h-292l-3 -371c0 -213.333 -59.333 -357.333 -178 -432c-49.333 -31.333 -105.333 -47 -168 -47h-4c-43.333 0.666992 -78.666 13.667 -105.999 39
c-23.333 22 -35 48 -35 78v4c2.66699 32.667 17 59.334 43 80.001c9.33301 7.33301 32.666 14.666 69.999 21.999c64 12.667 96 79.667 96 201v8l-4 551v2c0 78 48.333 117 145 117h580z" />
    <glyph glyph-name="igrave" unicode="&#xec;" horiz-adv-x="1593" 
d="M1360 952l188.003 -706c10.667 -25.333 19 -50.666 25 -75.999c4 -16 6 -37.333 6 -64c0 -36.667 -15.667 -66 -47 -88c-28 -20 -61.333 -30 -100 -30c-78.667 0 -125.334 38.667 -140.001 116l-108 564h-4l-234 -551c-11.333 -26 -28.333 -57.333 -51 -94
c-23.333 -23.333 -56 -35 -98 -35c-42.667 0 -75.667 11.667 -99 35c-12.667 12.667 -29.667 44 -51 94l-233 551h-4l-109 -564c-6.66699 -34 -22.834 -61.833 -48.501 -83.5s-55.834 -32.5 -90.501 -32.5c-44 0 -79.667 12.833 -107 38.5s-41 60.5 -41 104.5
c2 10 11.667 47 29 111l190 710c10 36 32 71.667 66 107c28 28.667 65.667 43 113 43c44.667 0 80.667 -12.333 108 -37c19.333 -18 40 -51.333 62 -100l213 -476h4l213 476c22 49.333 42.333 82.666 61 99.999c26.667 24.667 63 37 109 37c92 0 151.333 -50 178 -150z" />
    <glyph glyph-name="iacute" unicode="&#xed;" horiz-adv-x="1139" 
d="M381 643l381.001 0.00195312l2 291c0 46.667 13 85.667 39 117s62 47 108 47c46.667 0 83 -15.5 109 -46.5s39 -70.167 39 -117.5v-787c0 -44 -14.333 -81.5 -43 -112.5s-65 -46.5 -109 -46.5c-44.667 0 -80 15.667 -106 47s-39 69.666 -39 114.999v296h-381l-2 -294
c-4 -30.667 -17.667 -70.334 -41 -119.001c-28.667 -30 -64.334 -45 -107.001 -45c-46 0 -82.333 17 -109 51c-24 30.667 -36 69.667 -36 117l2 778c0 46 13.333 84.833 40 116.5s62.667 47.5 108 47.5c96.667 0 145 -55.333 145 -166v-289z" />
    <glyph glyph-name="icircumflex" unicode="&#xee;" horiz-adv-x="1139" 
d="M569 1114c154 0 281.667 -57.334 383 -172.001c97.333 -110.667 146 -243.667 146 -399c0 -158 -48 -291 -144 -399c-100 -112.667 -228.333 -169 -385 -169s-285 56 -385 168c-95.333 108 -143 241.333 -143 400c0 154.667 48.667 287.334 146 398.001
c102 115.333 229.333 173 382 173zM569 843.999c-75.333 0 -134.667 -32.999 -178 -98.999c-36.667 -56 -55 -123.333 -55 -202c0 -80 19 -147.667 57 -203c42.667 -62.667 101.334 -94 176.001 -94c74 0 132.667 32 176 96c38.667 57.333 58 124.333 58 201
c0 129.333 -42.333 220.666 -127 273.999c-28.667 18 -64.334 27 -107.001 27z" />
    <glyph glyph-name="idieresis" unicode="&#xef;" horiz-adv-x="1139" 
d="M84 152l0.00292969 786c0 45.333 13.333 84 40 116s62.334 48 107.001 48c79.333 0 124.666 -36.333 135.999 -109c58.667 80.667 153.334 121 284.001 121c122.667 0 220.667 -35.5 294 -106.5s110 -167.833 110 -290.5v-565c0 -47.333 -12.667 -86 -38 -116
c-26.667 -32 -63.334 -48 -110.001 -48c-44.667 0 -80.334 16 -107.001 48s-40 70.667 -40 116v514c0 61.333 -17 110.333 -51 147s-81.333 55 -142 55c-59.333 0 -105.5 -18.667 -138.5 -56s-49.5 -86 -49.5 -146v-514c0 -47.333 -12.667 -86 -38 -116
c-26.667 -32 -63.334 -48 -110.001 -48c-44.667 0 -80.334 16 -107.001 48s-40 70.667 -40 116z" />
    <glyph glyph-name="eth" unicode="&#xf0;" 
d="M84 -283v1221c0 45.333 13.333 84 40 116s62.334 48 107.001 48c79.333 0 128.666 -41 147.999 -123c54.667 90 148 135 280 135c151.333 0 271 -62 359 -186c78 -110 117 -242.667 117 -398c0 -148.667 -43.667 -276.334 -131 -383.001
c-94 -114.667 -212.333 -172 -355 -172c-100.667 0 -190.667 34.333 -270 103v-361c0 -46.667 -12.667 -85 -38 -115c-27.333 -32 -64 -48 -110 -48c-44.667 0 -80.667 16.333 -108 49c-26 30.667 -39 68.667 -39 114zM379 553.001c0 -80 17.999 -148.667 53.999 -206
c42 -67.333 101 -101 177 -101c72.667 0 130.667 32.667 174 98c37.333 56 56 122.333 56 199c0 73.333 -19.333 140 -58 200c-43.333 67.333 -100.666 101 -171.999 101c-74 0 -132.667 -31.333 -176 -94c-36.667 -53.333 -55 -119 -55 -197z" />
    <glyph glyph-name="ntilde" unicode="&#xf1;" horiz-adv-x="948" 
d="M930 928c0 -35.333 -10.498 -67.834 -31.498 -97.501s-48.167 -44.5 -81.5 -44.5c-24.667 0 -61.834 9.66699 -111.501 29s-90.167 29 -121.5 29c-80.667 0 -143.667 -31.333 -189 -94c-39.333 -54 -59 -123 -59 -207c0 -80 21 -147.667 63 -203
c47.333 -62.667 109 -94 185 -94c33.333 0 75.5 10.167 126.5 30.5s81.833 30.5 92.5 30.5c36 0 66.167 -12.5 90.5 -37.5s36.5 -55.5 36.5 -91.5c0 -68 -46.333 -120.667 -139 -158c-74 -30 -148 -45 -222 -45c-156.667 0 -285 56 -385 168
c-95.333 108 -143 241.333 -143 400c0 154.667 48.667 287.334 146 398.001c102 115.333 229.333 173 382 173c143.333 0 250.666 -32 321.999 -96c26 -23.333 39 -53.333 39 -90z" />
    <glyph glyph-name="ograve" unicode="&#xf2;" horiz-adv-x="1745" 
d="M84 152l0.00488281 786c0 45.333 13.333 84 40 116s62.334 48 107.001 48c79.333 0 124.666 -37 135.999 -111c76 82 167.333 123 274 123c124 0 225.667 -49.667 305 -149c86 99.333 189.667 149 311 149c125.333 0 224 -34.833 296 -104.5s108 -167.167 108 -292.5
v-565c0 -47.333 -12.667 -86 -38 -116c-26.667 -32 -63.334 -48 -110.001 -48c-44.667 0 -80.334 16 -107.001 48s-40 70.667 -40 116v514c0 58 -14 105 -42 141c-30.667 40.667 -74 61 -130 61c-56.667 0 -100.667 -20 -132 -60c-28 -36 -42 -83.333 -42 -142v-514
c0 -47.333 -12.667 -86 -38 -116c-26.667 -32 -63.334 -48 -110.001 -48c-46 0 -82.333 16 -109 48c-25.333 30 -38 68.667 -38 116v514c0 58 -14 105 -42 141c-30.667 40.667 -74 61 -130 61c-116 0 -174 -67.333 -174 -202v-514c0 -47.333 -12.667 -86 -38 -116
c-26.667 -32 -63.334 -48 -110.001 -48c-44.667 0 -80.334 16 -107.001 48s-40 70.667 -40 116z" />
    <glyph glyph-name="oacute" unicode="&#xf3;" horiz-adv-x="1034" 
d="M385 86l-326 813c-9.33301 23.333 -14 48.666 -14 75.999c0 34 14.5 63.667 43.5 89s60.833 38 95.5 38c73.333 0 122.666 -35 147.999 -105l203 -555l217 555c27.333 70 76.333 105 147 105c36 0 68.167 -12.333 96.5 -37s42.5 -54.667 42.5 -90
c0 -27.333 -4.66699 -52.666 -14 -75.999l-494 -1229c-31.333 -77.333 -77.666 -116 -138.999 -116c-40.667 0 -75.667 10.667 -105 32c-32 24 -48 55.667 -48 95c0 27.333 6 56 18 86z" />
    <glyph glyph-name="ocircumflex" unicode="&#xf4;" horiz-adv-x="1888" 
d="M795 492l-0.000976562 83c-7.33301 73.333 -28.666 133.666 -63.999 180.999c-41.333 56 -96.666 84 -165.999 84c-72.667 0 -130.667 -33 -174 -99c-36.667 -55.333 -55 -121.333 -55 -198c0 -75.333 19 -142.333 57 -201c43.333 -66.667 100.666 -100 171.999 -100
c67.333 0 122 25.667 164 77c36.667 44.667 58.667 102.334 66 173.001zM794.999 -283v385.001c-54.667 -87.333 -147.667 -131 -279 -131c-150.667 0 -270 62.333 -358 187c-78 110 -117 242.333 -117 397c0 148 43.667 275.667 131 383
c93.333 114.667 211.333 172 354 172c101.333 0 191.666 -34 270.999 -102v381c0 45.333 13.333 83.833 40 115.5s62.334 47.5 107.001 47.5c46 0 82.667 -16 110 -48c25.333 -30 38 -68.333 38 -115v-406c54.667 87.333 147.334 131 278.001 131
c151.333 0 271 -62 359 -186c77.333 -108.667 116 -241.334 116 -398.001c0 -148 -43.667 -275.667 -131 -383c-93.333 -114.667 -211.333 -172 -354 -172c-101.333 0 -191.333 34.333 -270 103v-361c0 -46.667 -12.667 -85 -38 -115c-27.333 -32 -64 -48 -110 -48
c-44.667 0 -80.334 16 -107.001 48s-40 70.333 -40 115zM1550 543.001c0 74 -19.0029 140.666 -57.0029 199.999c-43.333 67.333 -100.666 101 -171.999 101c-74.667 0 -133.334 -31.333 -176.001 -94c-36.667 -54 -55 -119.667 -55 -197
c0 -131.333 42.333 -224.333 127 -279c28.667 -18.667 61.334 -28 98.001 -28s70.334 7.83301 101.001 23.5s56.334 39.834 77.001 72.501c38 59.333 57 126.333 57 201z" />
    <glyph glyph-name="otilde" unicode="&#xf5;" horiz-adv-x="1024" 
d="M41 231l299 340l-250 281c-30 34 -45 69.333 -45 106c0 38.667 15.5 72.334 46.5 101.001s66.167 43 105.5 43c40.667 0 76.667 -19.333 108 -58l207 -258l207 258c31.333 38.667 67.333 58 108 58c39.333 0 74.5 -14.333 105.5 -43s46.5 -62.334 46.5 -101.001
c0 -36.667 -15 -72 -45 -106l-250 -281l299 -340c27.333 -31.333 41 -64.666 41 -99.999c0 -44 -13.167 -78.833 -39.5 -104.5s-61.5 -38.5 -105.5 -38.5c-46.667 0 -87.667 21.667 -123 65l-244 299l-244 -299c-35.333 -43.333 -76.333 -65 -123 -65
c-42.667 0 -77.5 13.167 -104.5 39.5s-40.5 60.833 -40.5 103.5c0 35.333 13.667 68.666 41 99.999z" />
    <glyph glyph-name="odieresis" unicode="&#xf6;" horiz-adv-x="1249" 
d="M1022 -18l-68.002 -2.00098h-16c-67.333 0 -107.666 44.333 -120.999 133c-30.667 -42 -81 -79 -151 -111c-45.333 -20.667 -103.333 -31 -174 -31c-122 0 -219.833 36 -293.5 108s-110.5 168.667 -110.5 290v565c0 46 13.333 84.833 40 116.5s62.667 47.5 108 47.5
c46 0 82 -15.5 108 -46.5s39 -70.167 39 -117.5v-514c0 -60.667 17 -109.667 51 -147s81 -56 141 -56s106.5 18.833 139.5 56.5s49.5 86.5 49.5 146.5v514c0 45.333 13.333 84 40 116s62.334 48 107.001 48c46.667 0 83 -15.5 109 -46.5s39 -70.167 39 -117.5l-2 -735h114
c86 0 129 -52 129 -156v-248c0 -40.667 -13.667 -75.667 -41 -105s-61.333 -44.666 -102 -45.999h-8c-40.667 0 -72.667 16.667 -96 50c-20.667 29.333 -31 65 -31 107v181z" />
    <glyph glyph-name="divide" unicode="&#xf7;" horiz-adv-x="1122" 
d="M760 129l0.000976562 -15.999c0 -44.667 14.333 -78.334 43 -101.001c24 -18.667 54.667 -28 92 -28c45.333 0 81.666 16 108.999 48c25.333 30.667 38 69 38 115v787c0 48 -13 87.333 -39 118s-62 46 -108 46s-82.333 -16.333 -109 -49
c-25.333 -30 -38 -68.333 -38 -115v-166c0 -56.667 -17 -104.667 -51 -144s-80 -59 -138 -59c-59.333 0 -106.166 19 -140.499 57s-51.5 86.667 -51.5 146v166c0 47.333 -13 86.5 -39 117.5s-62.333 46.5 -109 46.5c-44.667 0 -80.334 -16 -107.001 -48
s-40 -70.667 -40 -116v-217c0 -121.333 36.833 -218 110.5 -290s171.167 -108 292.5 -108c131.333 0 226.333 40.333 285 121c-1.33301 -13.333 -2 -46 -2 -98c0 -46.667 0.666992 -117.667 2 -213z" />
    <glyph glyph-name="oslash" unicode="&#xf8;" horiz-adv-x="1745" 
d="M1659 938v-785.999c0 -47.333 -12.667 -86 -38 -116c-26.667 -32 -63.334 -48 -110.001 -48c-78.667 0 -123.667 36.667 -135 110c-76 -82 -167.333 -123 -274 -123c-124.667 0 -226.334 50 -305.001 150c-86 -100 -190 -150 -312 -150
c-124 0 -222.167 35.333 -294.5 106s-108.5 168 -108.5 292v565c0 45.333 13.333 84 40 116s62.334 48 107.001 48c46.667 0 83 -15.5 109 -46.5s39 -70.167 39 -117.5v-514c0 -56.667 14.333 -103.667 43 -141c31.333 -41.333 74.333 -62 129 -62
c55.333 0 99 20.333 131 61c28.667 37.333 43 84.666 43 141.999v514c0 47.333 13 86.5 39 117.5s62 46.5 108 46.5c46.667 0 83 -15.5 109 -46.5s39 -70.167 39 -117.5v-514c0 -56.667 14.333 -103.667 43 -141c31.333 -41.333 74.333 -62 129 -62
c116 0 174 67.667 174 203v514c0 45.333 13.333 84 40 116s62.334 48 107.001 48c46.667 0 83 -15.5 109 -46.5s39 -70.167 39 -117.5z" />
    <glyph glyph-name="ugrave" unicode="&#xf9;" horiz-adv-x="1855" 
d="M1102 -25c-124.667 0 -226.334 50 -305.001 150c-86 -100 -190 -150 -312 -150c-124 0 -222.167 35.333 -294.5 106s-108.5 168 -108.5 292v565c0 45.333 13.333 84 40 116s62.334 48 107.001 48c46.667 0 83 -15.5 109 -46.5s39 -70.167 39 -117.5v-514
c0 -56.667 14.333 -103.667 43 -141c31.333 -41.333 74.333 -62 129 -62c55.333 0 99 20.333 131 61c28.667 37.333 43 84.666 43 141.999v514c0 47.333 13 86.5 39 117.5s62 46.5 108 46.5c46.667 0 83 -15.5 109 -46.5s39 -70.167 39 -117.5v-514
c0 -56.667 14.333 -103.667 43 -141c31.333 -41.333 74.333 -62 129 -62c116 0 174 67.667 174 203v514c0 45.333 13.333 84 40 116s62.334 48 107.001 48c46.667 0 83 -15.5 109 -46.5s39 -70.167 39 -117.5v-739h115c86 0 129 -52 129 -156v-248
c0 -40 -13.667 -74.833 -41 -104.5s-61 -45.167 -101 -46.5h-8c-40.667 0 -72.667 16.667 -96 50c-20.667 28.667 -31 64.334 -31 107.001v181l-70 -2h-14c-30 0 -56.667 10.667 -80 32c-20 22 -34.333 55.667 -43 101c-49.333 -52 -96.833 -88 -142.5 -108
s-103.834 -30 -174.501 -30z" />
    <glyph glyph-name="uacute" unicode="&#xfa;" horiz-adv-x="1247" 
d="M96 1077c-51.333 -8.66699 -85.334 -23.001 -102.001 -43.001c-24.667 -30 -37 -62.667 -37 -98c0 -41.333 12.833 -75.166 38.5 -101.499s59.167 -39.5 100.5 -39.5h117v-596c0 -54 12 -99.333 36 -136c28.667 -42 68.667 -63 120 -63h399
c119.333 0 216.333 28.667 291 86c94 72 141 168.333 141 289c0 144.667 -60.667 247.667 -182 309c-86.667 44 -207.667 66 -363 66h-149l-2 163c-0.666992 50.667 -14.667 90.667 -42 120s-62.666 44 -105.999 44h-260zM503.999 497.999l228.999 2h4
c42.667 0 80.334 -8.33301 113.001 -25c42 -20.667 63 -52 63 -94c0 -82 -60 -123 -180 -123h-229v240z" />
    <glyph glyph-name="ucircumflex" unicode="&#xfb;" horiz-adv-x="1577" 
d="M1202 152l-0.000976562 786c0 46 13.333 84.833 40 116.5s62.667 47.5 108 47.5c46 0 82 -15.5 108 -46.5s39 -70.167 39 -117.5v-786c0 -47.333 -12.667 -86 -38 -116c-26.667 -32 -63 -48 -109 -48c-45.333 0 -81.666 16.333 -108.999 49c-26 30.667 -39 69 -39 115z
M372.999 750l148.999 -0.00195312c154 0 275 -22 363 -66c75.333 -38 128.333 -96.667 159 -176c16.667 -43.333 25 -87.666 25 -132.999c0 -76 -21.167 -144.5 -63.5 -205.5s-98.833 -106.5 -169.5 -136.5c-52 -22 -119 -33 -201 -33h-399c-51.333 0 -91.333 21 -120 63
c-24 36.667 -36 82 -36 136v739c0 45.333 13.333 84 40 116s62.334 48 107.001 48c43.333 0 79 -15 107 -45c27.333 -29.333 41 -67.666 41 -114.999v-4zM370.998 497.998l-0.000976562 -240h229c120 0 180 41 180 123c0 42 -20.667 73.667 -62 95
c-31.333 16 -68.666 24 -111.999 24h-6z" />
    <glyph glyph-name="udieresis" unicode="&#xfc;" horiz-adv-x="1122" 
d="M389 750l149.999 -0.000976562c152.667 0 273.334 -22 362.001 -66c76.667 -38 130 -96.667 160 -176c16 -42.667 24 -87 24 -133c0 -76 -21.167 -144.5 -63.5 -205.5s-98.833 -106.5 -169.5 -136.5c-52 -22 -119 -33 -201 -33h-399c-51.333 0 -91.333 21 -120 63
c-24 36.667 -36 82 -36 136v739c0 46 13.333 84.833 40 116.5s62.667 47.5 108 47.5c42.667 0 78 -15 106 -45c27.333 -29.333 41 -67.666 41 -114.999v-4zM386.999 497.999l-0.000976562 -240h229c120.667 0 181 41 181 123c0 42 -21 73.667 -63 95
c-31.333 16 -68.666 24 -111.999 24h-6z" />
    <glyph glyph-name="yacute" unicode="&#xfd;" horiz-adv-x="948" 
d="M299 446c-38 0 -65.334 17.332 -82.001 51.999c-8 16.667 -12 33 -12 49c0 15.333 4.66699 31.666 14 48.999c16.667 31.333 43.334 47 80.001 47h307l-2 12c-34 126 -111.667 189 -233 189c-32 0 -72.667 -9.66699 -122 -29s-86.666 -29 -111.999 -29
c-30.667 0 -57.334 15 -80.001 45c-21.333 27.333 -32 57 -32 89v8c4 38.667 17.667 68.667 41 90c71.333 64 177.666 96 318.999 96c154 0 281.667 -58 383 -174c96.667 -110.667 145 -243 145 -397c0 -158.667 -47.667 -292 -143 -400c-100 -112 -228.333 -168 -385 -168
c-78 0 -152.333 15 -223 45c-91.333 38.667 -137 91.334 -137 158.001c0 36.667 12 67.334 36 92.001s54.333 37 91 37c13.333 0 46 -10.167 98 -30.5s92.333 -30.5 121 -30.5c56 0 104.333 17.667 145 53c38.667 33.333 67.334 78.333 86.001 135l4 12h-307z" />
    <glyph glyph-name="thorn" unicode="&#xfe;" horiz-adv-x="1714" 
d="M1147 1114c152.667 0 280.002 -57.666 382.002 -172.999c97.333 -110.667 146 -243.334 146 -398.001c0 -157.333 -48.333 -290.333 -145 -399c-100 -112.667 -227.667 -169 -383 -169c-136.667 0 -252.834 44.833 -348.501 134.5s-153.5 201.834 -173.5 336.501h-244
l-2 -294c-4 -30.667 -17.667 -70.334 -41 -119.001c-28.667 -30 -64.334 -45 -107.001 -45c-46 0 -82.333 17 -109 51c-24 30.667 -36 69.667 -36 117l2 778c0 46 13.333 84.833 40 116.5s62.667 47.5 108 47.5c96.667 0 145 -55.333 145 -166v-289h246
c21.333 134.667 79 246 173 334c97.333 91.333 213 137 347 137zM1147 844.001c-75.333 0 -134.668 -33 -178.001 -99c-37.333 -57.333 -56 -124.666 -56 -201.999c0 -78.667 19.333 -146.334 58 -203.001c42.667 -62.667 101.334 -94 176.001 -94s133.334 32 176.001 96
c38 56 57 123 57 201c0 128 -43 219.333 -129 274c-28.667 18 -63.334 27 -104.001 27z" />
    <glyph glyph-name="ydieresis" unicode="&#xff;" horiz-adv-x="1110" 
d="M522 864h219v-202h-219c-31.333 0 -59 9 -83 27s-36 42.333 -36 73v4c7.33301 65.333 47 98 119 98zM207 356l-37.001 -74.999c-18 -27.333 -40 -41 -66 -41c-29.333 0 -53.666 -11.5 -72.999 -34.5s-30.333 -49.833 -33 -80.5v-16c0 -80.667 48.333 -121 145 -121
c92 0 168.667 43 230 129l135 239c27.333 46 56.666 69.333 87.999 70l147 2l-2 -276c0 -46 13 -84.333 39 -115c28 -32.667 64.333 -49 109 -49c46 0 82.333 16 109 48c25.333 30 38 68.667 38 116v786c-8 60.667 -23 103 -45 127c-29.333 31.333 -66 47 -110 47h-394
c-76 0 -149.667 -22.667 -221 -68c-38 -24 -70.333 -60.333 -97 -109c-25.333 -46 -40 -92.667 -44 -140v-21c0 -68.667 24 -130 72 -184c26.667 -30 70.334 -55.333 131.001 -76c-24 -6.66699 -46 -25.667 -66 -57c-8.66699 -12.667 -27 -46.334 -55 -101.001z" />
    <glyph glyph-name="dotlessi" unicode="&#x131;" horiz-adv-x="455" 
d="M80 152l0.000976562 786c0 45.333 13.333 84 40 116s62.334 48 107.001 48c46.667 0 83 -15.5 109 -46.5s39 -70.167 39 -117.5v-786c0 -47.333 -12.667 -86 -38 -116c-26.667 -32 -63.334 -48 -110.001 -48c-44.667 0 -80.334 16 -107.001 48s-40 70.667 -40 116z" />
    <glyph glyph-name="Lslash" unicode="&#x141;" horiz-adv-x="872" 
d="M92 168v324.001l-80 -62c-17.333 -13.333 -38.333 -20 -63 -20c-60 0 -90 35.333 -90 106c0 36 36 81 108 135l125 94v566c0 106 51.333 159 154 159c102 0 153 -53 153 -159v-332l226 168c24 18 52.667 27 86 27c24.667 0 45.834 -9.83301 63.501 -29.5
s26.5 -42.167 26.5 -67.5c0 -36 -35 -79.667 -105 -131l-297 -217v-446h365c43.333 0 78.666 -13 105.999 -39s41 -60.333 41 -103v-6c-1.33301 -38.667 -16.333 -70.834 -45 -96.501s-62.667 -38.5 -102 -38.5h-512c-106.667 0 -160 56 -160 168z" />
    <glyph glyph-name="lslash" unicode="&#x142;" horiz-adv-x="455" 
d="M80 152l0.00195312 380l-10 -10c-34 -34 -66.333 -51 -97 -51c-26.667 0 -48.334 10 -65.001 30c-15.333 18 -23 40.667 -23 68s14.333 55.333 43 84l152 152v608c0 45.333 13.333 84 40 116s62.334 48 107.001 48c46.667 0 83 -15.5 109 -46.5s39 -70.167 39 -117.5
v-323l10 10c36.667 36.667 70.667 55 102 55c54.667 0 82 -30.667 82 -92c0 -34 -14.333 -65.333 -43 -94l-151 -152v-665c0 -47.333 -12.667 -86 -38 -116c-26.667 -32 -63.334 -48 -110.001 -48c-44.667 0 -80.334 16 -107.001 48s-40 70.667 -40 116z" />
    <glyph glyph-name="OE" unicode="&#x152;" horiz-adv-x="1972" 
d="M1419 1176l0.00292969 -299.002h340c45.333 0 81.666 -12.333 108.999 -37s41 -59.667 41 -105c0 -42 -14.333 -76 -43 -102s-64.334 -39 -107.001 -39h-340v-311h383c42.667 0 77.667 -13 105 -39s41 -60.333 41 -103c0 -41.333 -14 -75.166 -42 -101.499
s-62.667 -39.5 -104 -39.5h-569c-39.333 0 -65.333 10.333 -78 31c-9.33301 14.667 -14 43.334 -14 86.001h-4c-72.667 -94.667 -205.334 -142 -398.001 -142c-209.333 0 -380.666 75.333 -513.999 226c-126.667 142.667 -190 318.667 -190 528
c0 216 65.333 395.667 196 539s300 215 508 215c166.667 0 300 -51.333 400 -154l4 4c0 54.667 11.667 90.334 35 107.001c17.333 12 54.666 18 111.999 18h494c42 0 76.667 -13 104 -39s41 -60 41 -102c0 -40.667 -14 -74.334 -42 -101.001s-62.333 -40 -103 -40h-365z
M354.003 728.998c0 -132 32.333 -241.333 97 -328c70.667 -95.333 166.667 -143 288 -143c126 0 223.667 49.333 293 148c61.333 87.333 92 195 92 323c0 208.667 -72.333 352.667 -217 432c-47.333 26 -103.333 39 -168 39c-124 0 -221.667 -49.667 -293 -149
c-61.333 -86 -92 -193.333 -92 -322z" />
    <glyph glyph-name="oe" unicode="&#x153;" horiz-adv-x="1858" 
d="M1073 643h469c-8 67.333 -31.667 121 -71 161c-42 42.667 -96 64 -162 64c-64.667 0 -118.667 -21.667 -162 -65c-41.333 -40.667 -66 -94 -74 -160zM1708 446l-629.001 -0.000976562c10 -69.333 42.333 -123 97 -161c50 -34.667 111.333 -52 184 -52
c44 0 90.333 11 139 33l129 68c22.667 12 44 18 64 18c32 0 60 -13 84 -39s36 -55.333 36 -88c0 -75.333 -64 -138.333 -192 -189c-103.333 -40.667 -199.666 -61 -288.999 -61c-165.333 0 -295.666 56.667 -390.999 170c-91.333 -113.333 -215 -170 -371 -170
c-156.667 0 -285 56 -385 168c-95.333 108 -143 241.333 -143 400c0 154.667 48.667 287.334 146 398.001c102 115.333 229.333 173 382 173c143.333 0 270.333 -55.333 381 -166c87.333 110.667 205 166 353 166c145.333 0 270.666 -53 375.999 -159s158 -231.667 158 -377
c0 -88 -43 -132 -129 -132zM335.999 542.999c0 -80 18.999 -147.666 56.999 -202.999c42.667 -62.667 101.334 -94 176.001 -94c74 0 132.667 32 176 96c38.667 57.333 58 124.333 58 201c0 129.333 -42.333 220.666 -127 273.999c-28.667 18 -64.334 27 -107.001 27
c-75.333 0 -134.666 -33 -177.999 -99c-36.667 -56 -55 -123.333 -55 -202z" />
    <glyph glyph-name="Scaron" unicode="&#x160;" horiz-adv-x="1100" 
d="M553 1483c151.333 0 269.333 -35 354 -105c31.333 -26 47 -59.333 47 -100c0 -43.333 -12 -79 -36 -107c-25.333 -30 -59 -45 -101 -45c-24.667 0 -56.667 7 -96 21l-94 33c-24.667 5.33301 -52 8 -82 8c-44.667 0 -82.667 -10.667 -114 -32
c-36 -24.667 -54 -58.334 -54 -101.001c0 -54 59.333 -98.333 178 -133c74 -21.333 130 -38.666 168 -51.999c65.333 -22.667 119.333 -47.667 162 -75c117.333 -75.333 176 -190 176 -344c0 -144.667 -52 -261.334 -156 -350.001c-98 -84 -220.667 -126 -368 -126
c-204 0 -351.667 37.667 -443 113c-36.667 30 -55 69 -55 117c0 41.333 12.667 75.833 38 103.5s58.333 41.5 99 41.5c32 0 84.667 -13 158 -39c76.667 -27.333 138.667 -41 186 -41c59.333 0 108 14 146 42c42 32 63 76.667 63 134c0 66.667 -58.667 117.334 -176 152.001
l-170 47c-56 17.333 -109.333 40 -160 68c-118.667 66 -178 167.667 -178 305c0 140 50.333 253.667 151 341c96 82.667 215 124 357 124zM551 1544l-217 88c-62.667 25.333 -94 67 -94 125c0 31.333 12.667 61 38 89s54.333 42 87 42c12.667 0 48 -12.333 106 -37l80 -34
l80 34c58 24.667 93.333 37 106 37c33.333 0 62.5 -13.333 87.5 -40s37.5 -57 37.5 -91c0 -58 -31.333 -99.667 -94 -125z" />
    <glyph glyph-name="scaron" unicode="&#x161;" horiz-adv-x="872" 
d="M825 901c0 -36.667 -10.835 -67.667 -32.502 -93s-50.834 -38 -87.501 -38c-15.333 0 -54.666 14.333 -117.999 43s-112.333 43 -147 43c-66.667 0 -100 -27.333 -100 -82c0 -35.333 44.333 -70 133 -104l123 -47c170.667 -65.333 256 -165.666 256 -300.999
c0 -110 -43.667 -197 -131 -261c-78 -57.333 -174.333 -86 -289 -86c-93.333 0 -182.666 21.333 -267.999 64c-96 48 -144 102.667 -144 164c0 34 12.667 64.333 38 91s55 40 89 40c30.667 0 67.5 -11 110.5 -33s77.667 -38.833 104 -50.5s56.833 -17.5 91.5 -17.5
c77.333 0 116 28 116 84c0 33.333 -44.333 67.666 -133 102.999l-123 49c-170.667 68 -256 168.333 -256 301c0 108.667 41 194.667 123 258c74.667 57.333 167 86 277 86c86.667 0 166.334 -17 239.001 -51c86 -40 129 -94 129 -162zM435.998 1212l-217.001 88
c-62.667 25.333 -94 67 -94 125c0 33.333 12.667 63.5 38 90.5s54.333 40.5 87 40.5c16 0 51.333 -12 106 -36l80 -35l80 35c54.667 24 90.334 36 107.001 36c33.333 0 62.5 -13.167 87.5 -39.5s37.5 -56.833 37.5 -91.5c0 -57.333 -31.667 -99 -95 -125z" />
    <glyph glyph-name="Ydieresis" unicode="&#x178;" horiz-adv-x="1098" 
d="M395 137l-0.000976562 547l-387 545c-18.667 26 -28 56.667 -28 92c0 40.667 14 75.667 42 105s63 44 105 44c56.667 0 99 -20.333 127 -61l295 -428l295 428c28 40.667 70.333 61 127 61c42.667 0 77.834 -14.167 105.501 -42.5s41.5 -63.833 41.5 -106.5
c0 -35.333 -9.33301 -66 -28 -92l-388 -545v-547c0 -99.333 -51 -149 -153 -149c-102.667 0 -154 49.667 -154 149zM626.999 1714c0 41.333 14.1689 76.3311 42.502 104.998s63.166 43 104.499 43s76.333 -14.333 105 -43s43 -63.667 43 -105s-14.333 -76.166 -43 -104.499
s-63.667 -42.5 -105 -42.5c-40.667 0 -75.334 14.333 -104.001 43s-43 63.334 -43 104.001zM176.001 1714c0 41.333 14.335 76.335 43.002 105.002s63.667 43 105 43s76.166 -14.333 104.499 -43s42.5 -63.667 42.5 -105c0 -40.667 -14.333 -75.334 -43 -104.001
s-63.334 -43 -104.001 -43c-41.333 0 -76.333 14.167 -105 42.5s-43 63.166 -43 104.499z" />
    <glyph glyph-name="Zcaron" unicode="&#x17d;" horiz-adv-x="1214" 
d="M428 270h594.001c98 0 147 -45 147 -135c0 -38 -14.833 -70 -44.5 -96s-63.834 -39 -102.501 -39h-805c-48.667 0 -88.667 12 -120 36c-34.667 26.667 -52 63.667 -52 111c0 41.333 13.667 81 41 119l659 922h-538c-96 0 -144 43.667 -144 131c0 40 14 73.167 42 99.5
s62 39.5 102 39.5h749c48.667 0 88.667 -12 120 -36c34.667 -26.667 52 -63.667 52 -111c0 -45.333 -15 -89 -45 -131zM608.001 1544l-217 88c-62.667 25.333 -94 67 -94 125c0 32.667 12.833 62.667 38.5 90s54.5 41 86.5 41c12.667 0 48 -12.333 106 -37l80 -34l80 34
c58 24.667 93.667 37 107 37c33.333 0 62.5 -13.333 87.5 -40s37.5 -57 37.5 -91c0 -57.333 -31.667 -99 -95 -125z" />
    <glyph glyph-name="zcaron" unicode="&#x17e;" horiz-adv-x="985" 
d="M49 180l463 651h-342c-40 0 -72.167 11.667 -96.5 35s-36.5 55 -36.5 95c0 39.333 12.333 70.666 37 93.999s56.667 35 96 35h670c64 0 96 -31 96 -93c0 -30 -10.333 -59.333 -31 -88l-465 -651h389c40 0 72.333 -11.5 97 -34.5s37 -54.5 37 -94.5
s-12.333 -71.5 -37 -94.5s-57 -34.5 -97 -34.5h-686c-80 0 -120 33.333 -120 100c0 28.667 8.66699 55.334 26 80.001zM494 1212l-218.001 88c-62.667 25.333 -94 67 -94 125c0 33.333 12.667 63.5 38 90.5s54.333 40.5 87 40.5c16.667 0 52.334 -12 107.001 -36l80 -35
l79 35c54 24 89.667 36 107 36c33.333 0 62.5 -13.167 87.5 -39.5s37.5 -56.833 37.5 -91.5c0 -58 -31.333 -99.667 -94 -125z" />
    <glyph glyph-name="florin" unicode="&#x192;" 
d="M453 866l58.998 310c38.667 204.667 151.334 307 338.001 307c134 0 201 -46.667 201 -140c0 -78.667 -53.333 -118 -160 -118c-49.333 0 -80.666 -37 -93.999 -111l-45 -248h71c96 0 144 -42.333 144 -127c0 -87.333 -65 -131 -195 -131h-67l-130 -708
c-42.667 -230.667 -158.667 -346 -348 -346c-132 0 -198 44.333 -198 133c0 55.333 20.333 91.333 61 108c18.667 8 44.5 13 77.5 15s54.833 7.33301 65.5 16c23.333 22 40 59.667 50 113l125 669h-52c-92.667 0 -139 41.667 -139 125c0 88.667 51.333 133 154 133h82z" />
    <glyph glyph-name="circumflex" unicode="&#x2c6;" horiz-adv-x="455" 
d="M10 1477l217.001 88l217 -88c63.333 -26 95 -67.667 95 -125c0 -34 -12.5 -64.333 -37.5 -91s-54.167 -40 -87.5 -40c-16.667 0 -52.334 12 -107.001 36l-80 35l-80 -35c-54.667 -24 -90 -36 -106 -36c-32 0 -60.833 13.667 -86.5 41s-38.5 57.333 -38.5 90
c0 58 31.333 99.667 94 125z" />
    <glyph glyph-name="caron" unicode="&#x2c7;" horiz-adv-x="455" 
d="M227 1212l-217.001 88c-62.667 25.333 -94 67 -94 125c0 33.333 12.667 63.5 38 90.5s54.333 40.5 87 40.5c16 0 51.333 -12 106 -36l80 -35l80 35c54.667 24 90.334 36 107.001 36c33.333 0 62.5 -13.167 87.5 -39.5s37.5 -56.833 37.5 -91.5
c0 -57.333 -31.667 -99 -95 -125z" />
    <glyph glyph-name="_extra1" unicode="&#x2c9;" horiz-adv-x="455" 
d="M37 1495h381c88.667 0 133 -41 133 -123s-44.333 -123 -133 -123h-381c-88.667 0 -133 41 -133 123s44.333 123 133 123z" />
    <glyph glyph-name="ogonek" unicode="&#x2db;" horiz-adv-x="455" 
d="M250 0l140.998 -0.00195312c-43.333 -24 -81.666 -56 -114.999 -96c-38 -46 -57 -91 -57 -135c0 -53.333 24 -80 72 -80c8.66699 0 21.834 2.33301 39.501 7s31.167 7 40.5 7c28.667 0 43 -15 43 -45c0 -34.667 -26.667 -62 -80 -82c-40 -14.667 -81 -22 -123 -22
c-55.333 0 -100 14.667 -134 44c-36 30.667 -54 73.334 -54 128.001c0 58 26.333 114.667 79 170c42 44.667 91.333 79.334 148 104.001z" />
    <glyph glyph-name="tilde" unicode="&#x2dc;" horiz-adv-x="455" 
d="M-10 1239c-24.667 0 -47.9961 11.666 -69.9961 34.999s-33 47.333 -33 72c0 54.667 18.667 98.334 56 131.001s83.666 49 138.999 49c34.667 0 76.167 -8.5 124.5 -25.5s83.166 -25.5 104.499 -25.5c16 0 41.167 9.83301 75.5 29.5s62.5 29.5 84.5 29.5
c31.333 0 55.166 -10.833 71.499 -32.5s24.5 -49.167 24.5 -82.5c0 -51.333 -21 -94.333 -63 -129c-39.333 -32.667 -85 -49 -137 -49c-12 0 -53 9 -123 27l-62 16c-20.667 5.33301 -36.334 8 -47.001 8c-12.667 0 -44.667 -13.667 -96 -41c-14.667 -8 -31 -12 -49 -12z" />
    <glyph glyph-name="hungarumlaut" unicode="&#x2dd;" horiz-adv-x="455" 
d="M-236 1464l242 99c32.667 13.333 58.667 20 78 20c30 0 56 -13.5 78 -40.5s33 -55.833 33 -86.5c0 -58.667 -28 -99 -84 -121l-230 -90c-34 -13.333 -53.667 -20 -59 -20h-23c-32 0 -58.667 17.333 -80 52c-18.667 30.667 -28 63 -28 97c0 36 19 63.333 57 82zM334 1464
l241 99c32.667 13.333 58.667 20 78 20c30 0 56 -13.5 78 -40.5s33 -55.833 33 -86.5c0 -58.667 -28 -99 -84 -121l-229 -90c-34 -13.333 -54 -20 -60 -20h-22c-31.333 0 -58 17.667 -80 53c-19.333 30.667 -29 62.667 -29 96c0 36.667 19 64 57 82z" />
    <glyph glyph-name="_extra2" unicode="&#x3bc;" horiz-adv-x="1139" 
d="M84 -283l-0.00195312 1221c0 45.333 13.333 84 40 116s62.334 48 107.001 48c46.667 0 83 -15.5 109 -46.5s39 -70.167 39 -117.5v-526c0 -56.667 17.5 -102.667 52.5 -138s80.833 -53 137.5 -53s102.667 17.667 138 53s53 81.333 53 138v526c0 45.333 13.333 84 40 116
s62.334 48 107.001 48c46.667 0 83 -15.5 109 -46.5s39 -70.167 39 -117.5v-786c0 -47.333 -12.667 -86 -38 -116c-26.667 -32 -63.334 -48 -110.001 -48c-42 0 -77 13.167 -105 39.5s-42 60.166 -42 101.499h-4c-40 -102.667 -103 -154 -189 -154
c-32.667 0 -67.167 10.167 -103.5 30.5s-63.166 44.5 -80.499 72.5h-4v-361c0 -46.667 -12.667 -85 -38 -115c-27.333 -32 -64 -48 -110 -48c-44.667 0 -80.667 16.333 -108 49c-26 30.667 -39 68.667 -39 114z" />
    <glyph glyph-name="afii10023" unicode="&#x401;" horiz-adv-x="948" 
d="M92 154l0.00195312 1126c0 118.667 53.333 178 160 178h508c42 0 76.667 -13 104 -39s41 -60 41 -102c0 -40.667 -14 -74.334 -42 -101.001s-62.333 -40 -103 -40h-361v-299h336c45.333 0 81.666 -12.333 108.999 -37s41 -59.667 41 -105c0 -42 -14.333 -76 -43 -102
s-64.334 -39 -107.001 -39h-336v-311h379c42.667 0 77.667 -13 105 -39s41 -60.333 41 -103c0 -41.333 -14 -75.166 -42 -101.499s-62.667 -39.5 -104 -39.5h-528c-45.333 -0 -83 14.333 -113 43s-45 65.667 -45 111zM553.002 1714c0 41.333 14.1689 76.3311 42.502 104.998
s63.166 43 104.499 43s76.333 -14.333 105 -43s43 -63.667 43 -105s-14.333 -76.166 -43 -104.499s-63.667 -42.5 -105 -42.5c-40.667 0 -75.334 14.333 -104.001 43s-43 63.334 -43 104.001zM102.004 1714c0 41.333 14.335 76.335 43.002 105.002s63.667 43 105 43
s76.166 -14.333 104.499 -43s42.5 -63.667 42.5 -105c0 -40.667 -14.333 -75.334 -43 -104.001s-63.334 -43 -104.001 -43c-41.333 0 -76.333 14.167 -105 42.5s-43 63.166 -43 104.499z" />
    <glyph glyph-name="afii10017" unicode="&#x410;" horiz-adv-x="1323" 
d="M51 199l412 1114c42 113.333 115 170 219 170c105.333 0 178.333 -56.667 219 -170l402 -1114c10.667 -29.333 16 -54.666 16 -75.999c0 -39.333 -14 -71.666 -42 -96.999s-61 -38 -99 -38c-77.333 0 -127.333 35.333 -150 106l-61 193h-570l-61 -191
c-22.667 -72 -72 -108 -148 -108c-41.333 0 -76.833 13.667 -106.5 41s-44.5 61.333 -44.5 102c0 6.66699 4.66699 29.334 14 68.001zM680 1163l-195 -594h389l-190 594h-4z" />
    <glyph glyph-name="afii10018" unicode="&#x411;" horiz-adv-x="1188" 
d="M418 975l227 0.000976562c147.333 0 268.666 -44 363.999 -132c98.667 -90 148 -208 148 -354c0 -148 -51 -267.333 -153 -358c-98 -87.333 -221.667 -131 -371 -131h-363c-49.333 0 -88.166 14.333 -116.499 43s-42.5 67.667 -42.5 117v1151
c0 34.667 14.333 68.667 43 102c26 30 64 45 114 45h637c42.667 0 76.167 -12.833 100.5 -38.5s36.5 -59.834 36.5 -102.501c0 -42 -12.5 -76 -37.5 -102s-58.167 -39 -99.5 -39l-487 -2v-199zM418 270.001h209c62.667 0 113.5 20.333 152.5 61s58.5 92.667 58.5 156
s-19.333 115.5 -58 156.5s-89.667 61.5 -153 61.5h-209v-435z" />
    <glyph glyph-name="afii10019" unicode="&#x412;" 
d="M92 156v1149c0 47.333 15 84.666 45 111.999s69 41 117 41h393c170.667 0 288.667 -70.333 354 -211c20.667 -44.667 31 -94.334 31 -149.001c0 -140.667 -63.333 -241 -190 -301v-4c90 -14 164.333 -53 223 -117s88 -141.333 88 -232c0 -142 -44.333 -252.333 -133 -331
c-84 -75.333 -198 -113 -342 -113h-422c-47.333 0 -86.5 14.333 -117.5 43s-46.5 66.334 -46.5 113.001zM399 1188v-307h160c50.667 0 91 14.333 121 43s45 68 45 118c0 97.333 -55.333 146 -166 146h-160zM399 610.001v-340h242c57.333 0 103.833 15.667 139.5 47
s53.5 75.333 53.5 132c0 107.333 -72.667 161 -218 161h-217z" />
    <glyph glyph-name="afii10020" unicode="&#x413;" horiz-adv-x="909" 
d="M399 147c0 -47.333 -13.832 -85.666 -41.499 -114.999s-64.834 -44 -111.501 -44c-47.333 0 -84.833 14.667 -112.5 44s-41.5 67.666 -41.5 114.999v1151c0 46.667 15 85 45 115s68.333 45 115 45h524c42.667 0 76.167 -12.833 100.5 -38.5s36.5 -59.834 36.5 -102.501
c0 -41.333 -12.5 -75.166 -37.5 -101.499s-58.167 -39.5 -99.5 -39.5h-377v-1029z" />
    <glyph glyph-name="afii10021" unicode="&#x414;" horiz-adv-x="1352" 
d="M506 285h405v903h-356l-2 -526c0 -153.333 -15.667 -279 -47 -377zM1219 285c95.333 -6 143.001 -59.334 143.001 -160.001v-406c0 -47.333 -13.833 -85.666 -41.5 -114.999s-65.167 -44 -112.5 -44c-46.667 0 -83.834 14.667 -111.501 44s-41.5 67.666 -41.5 114.999
v283h-746v-283c0 -47.333 -13.833 -85.666 -41.5 -114.999s-64.834 -44 -111.501 -44c-47.333 0 -84.833 14.667 -112.5 44s-41.5 67.666 -41.5 114.999v406c0 72 28.667 120.333 86 145c4.66699 4.66699 24.334 11 59.001 19c70 16.667 105 107.334 105 272.001v8l-4 742
c0 48 13.5 86.5 40.5 115.5s64.5 43.5 112.5 43.5h664c102.667 0 154 -53 154 -159v-1026z" />
    <glyph glyph-name="afii10022" unicode="&#x415;" horiz-adv-x="948" 
d="M92 154l0.00195312 1126c0 118.667 53.333 178 160 178h508c42 0 76.667 -13 104 -39s41 -60 41 -102c0 -40.667 -14 -74.334 -42 -101.001s-62.333 -40 -103 -40h-361v-299h336c45.333 0 81.666 -12.333 108.999 -37s41 -59.667 41 -105c0 -42 -14.333 -76 -43 -102
s-64.334 -39 -107.001 -39h-336v-311h379c42.667 0 77.667 -13 105 -39s41 -60.333 41 -103c0 -41.333 -14 -75.166 -42 -101.499s-62.667 -39.5 -104 -39.5h-528c-45.333 -0 -83 14.333 -113 43s-45 65.667 -45 111z" />
    <glyph glyph-name="afii10024" unicode="&#x416;" horiz-adv-x="1993" 
d="M844 135c0 -44 14.3311 -79.4961 42.998 -106.496s65.334 -40.5 110.001 -40.5c43.333 0 79.833 13.667 109.5 41s44.5 62.666 44.5 105.999v522l530 -573c59.333 -64 111.333 -96 156 -96c46.667 0 84.334 11.667 113.001 35c31.333 25.333 47 60.666 47 105.999
c0 44 -28.667 96 -86 156l-473 493l387 381c66.667 65.333 100 120 100 164c0 43.333 -14.667 78.666 -44 105.999s-65 41 -107 41c-43.333 0 -83 -19 -119 -57l-504 -536v442c0 46 -14 82.667 -42 110s-65.333 41 -112 41c-46 0 -83 -13.667 -111 -41s-42 -64 -42 -110
v-442l-504 536c-36 38 -75.667 57 -119 57s-79.333 -13.833 -108 -41.5s-43 -62.834 -43 -105.501c0 -44 33.333 -98.667 100 -164l387 -381l-473 -493c-58.667 -61.333 -88 -113.333 -88 -156c0 -44.667 16.333 -80 49 -106c29.333 -23.333 67 -35 113 -35
c44 0 95.667 32 155 96l531 573v-522z" />
    <glyph glyph-name="afii10025" unicode="&#x417;" horiz-adv-x="1110" 
d="M555 1483c137.333 0 247.334 -42.3301 330.001 -126.997c70.667 -72 106 -154.667 106 -248c0 -138 -56 -242.333 -168 -313c76.667 -35.333 137.5 -85.166 182.5 -149.499s67.5 -136.833 67.5 -217.5c0 -93.333 -30.333 -178.333 -91 -255
c-57.333 -72.667 -131.333 -126.334 -222 -161.001c-64.667 -24.667 -132.334 -37 -203.001 -37c-137.333 0 -256.666 44.667 -357.999 134c-88.667 78 -133 161.667 -133 251c0 39.333 16.667 72.666 50 99.999c30.667 25.333 66.334 38 107.001 38
c29.333 0 56.666 -13.667 81.999 -41c6 -6.66699 23.667 -32.667 53 -78c52 -80.667 119.667 -121 203 -121c54.667 0 100.5 18.333 137.5 55s55.5 82 55.5 136c0 81.333 -30 133.666 -90 156.999c-18 7.33301 -46 13.666 -84 18.999c-40 6 -68 11.333 -84 16
c-60 18 -90 59.667 -90 125c0 45.333 13.333 78.666 40 99.999c19.333 15.333 54.333 29.833 105 43.5s86 29.167 106 46.5c26 22.667 39 58.334 39 107.001c0 42.667 -13.667 76.167 -41 100.5s-62.666 36.5 -105.999 36.5c-68.667 0 -126.667 -33.333 -174 -100
c-28.667 -40 -46.334 -63.333 -53.001 -70c-21.333 -20.667 -48 -31 -80 -31c-40.667 0 -73.334 15.333 -98.001 46c-23.333 28.667 -35 64 -35 106c0 92.667 52.667 173 158 241c94 60.667 190 91 288 91z" />
    <glyph glyph-name="afii10026" unicode="&#x418;" horiz-adv-x="1403" 
d="M1323 147l-0.00195312 1164c0 106 -51.333 159 -154 159c-52.667 0 -95.667 -22.333 -129 -67l-649 -866h-4v774c0 106 -51.333 159 -154 159c-102 0 -153 -53 -153 -159v-1164c0 -47.333 13.833 -85.666 41.5 -114.999s64.834 -44 111.501 -44
c20.667 0 44.167 7 70.5 21s45.833 29.333 58.5 46l650 856h4v-764c0 -47.333 13.833 -85.666 41.5 -114.999s64.834 -44 111.501 -44c47.333 0 84.833 14.667 112.5 44s41.5 67.666 41.5 114.999z" />
    <glyph glyph-name="afii10027" unicode="&#x419;" horiz-adv-x="1403" 
d="M1323 147l-0.00195312 1164c0 106 -51.333 159 -154 159c-52.667 0 -95.667 -22.333 -129 -67l-649 -866h-4v774c0 106 -51.333 159 -154 159c-102 0 -153 -53 -153 -159v-1164c0 -47.333 13.833 -85.666 41.5 -114.999s64.834 -44 111.501 -44
c20.667 0 44.167 7 70.5 21s45.833 29.333 58.5 46l650 856h4v-764c0 -47.333 13.833 -85.666 41.5 -114.999s64.834 -44 111.501 -44c47.333 0 84.833 14.667 112.5 44s41.5 67.666 41.5 114.999zM1073 1755c0 41.333 -14.168 76.332 -42.501 104.999
s-63.166 43 -104.499 43s-76.333 -14.333 -105 -43s-43 -63.667 -43 -105c-4 -26 -27 -39 -69 -39h-4c-54.667 0.666992 -82 13.667 -82 39c0 41.333 -14.333 76.333 -43 105s-63.667 43 -105 43s-76.166 -14.333 -104.499 -43s-42.5 -63.667 -42.5 -105
c0 -96 37.333 -172.667 112 -230c67.333 -51.333 150.666 -77.666 249.999 -78.999h17c95.333 0 177 24.667 245 74c80.667 58.667 121 137 121 235z" />
    <glyph glyph-name="afii10028" unicode="&#x41a;" horiz-adv-x="1219" 
d="M92 135l0.000976562 1184c0 46 14 82.667 42 110s65.333 41 112 41c46 0 83 -13.667 111 -41s42 -64 42 -110v-442l504 536c36 38 75.667 57 119 57c44 0 80.333 -13.667 109 -41s43 -62.666 43 -105.999s-33.667 -98 -101 -164l-387 -381l473 -493
c57.333 -60 86 -112 86 -156c0 -94 -53.333 -141 -160 -141c-44 0 -95.667 32 -155 96l-531 573v-522c0 -44 -14.333 -79.5 -43 -106.5s-65.334 -40.5 -110.001 -40.5s-81.5 13.5 -110.5 40.5s-43.5 62.5 -43.5 106.5z" />
    <glyph glyph-name="afii10029" unicode="&#x41b;" horiz-adv-x="1286" 
d="M1032 1470c102.667 0 153.999 -53.002 153.999 -159.002v-1164c0 -47.333 -13.833 -85.666 -41.5 -114.999s-65.167 -44 -112.5 -44c-46.667 0 -83.834 14.667 -111.501 44s-41.5 67.666 -41.5 114.999v1041h-357l-2 -526v-29c0 -144 -18.333 -268.333 -55 -373
c-63.333 -180 -168.666 -270 -315.999 -270h-2c-49.333 0 -88 17 -116 51c-23.333 28.667 -35 61.334 -35 98.001v13c2.66699 44 18.334 80 47.001 108c10.667 10 21 17 31 21c9.33301 1.33301 23 4 41 8c69.333 15.333 104 106 104 272v8l-4 742
c0 48.667 13.667 87.334 41 116.001s65 43 113 43h663z" />
    <glyph glyph-name="afii10030" unicode="&#x41c;" horiz-adv-x="1782" 
d="M51 170l170.001 1143c6.66699 44 30.667 81.667 72 113c40 29.333 83 44 129 44c46.667 0 89 -13.333 127 -40s64 -62.334 78 -107.001l262 -811h4l262 811c14 44.667 40 80.334 78 107.001s80.333 40 127 40c47.333 0 90.333 -14.333 129 -43
c41.333 -30.667 65.333 -68.667 72 -114l170 -1143c1.33301 -8.66699 2 -14.667 2 -18v-17c0 -44 -13.667 -79.5 -41 -106.5s-63 -40.5 -107 -40.5c-95.333 0 -148.666 47.667 -159.999 143l-100 834h-4l-266 -859c-24.667 -78.667 -79.334 -118 -164.001 -118
s-139.334 39.333 -164.001 118l-266 859h-4l-101 -834c-11.333 -95.333 -64.333 -143 -159 -143c-44 0 -79.667 13.5 -107 40.5s-41 62.5 -41 106.5v17c0 4 0.666992 10 2 18z" />
    <glyph glyph-name="afii10031" unicode="&#x41d;" horiz-adv-x="1442" 
d="M92 147l0.000976562 1164c0 106 51.333 159 154 159c102 0 153 -53 153 -159v-434h643v434c0 106 51.333 159 154 159s154 -53 154 -159v-1164c0 -47.333 -13.833 -85.666 -41.5 -114.999s-65.167 -44 -112.5 -44s-84.833 14.667 -112.5 44s-41.5 67.666 -41.5 114.999
v447h-643v-447c0 -47.333 -13.833 -85.666 -41.5 -114.999s-64.834 -44 -111.501 -44c-47.333 0 -84.833 14.667 -112.5 44s-41.5 67.666 -41.5 114.999z" />
    <glyph glyph-name="afii10032" unicode="&#x41e;" horiz-adv-x="1503" 
d="M772 258c126 0 223.667 49.333 293 148c61.333 87.333 92 195 92 323c0 208.667 -72.333 352.667 -217 432c-47.333 26 -103.333 39 -168 39c-124 0 -221.667 -49.667 -293 -149c-61.333 -86 -92 -193.333 -92 -322c0 -132.667 32 -242 96 -328
c70.667 -95.333 167 -143 289 -143zM772 -25c-209.333 0 -380.667 75.333 -514 226c-126.667 142.667 -190 318.667 -190 528c0 216 65.333 395.667 196 539s300 215 508 215c206 0 376.333 -75 511 -225c129.333 -144 194 -320.333 194 -529c0 -212 -64 -389.333 -192 -532
c-132 -148 -303 -222 -513 -222z" />
    <glyph glyph-name="afii10033" unicode="&#x41f;" horiz-adv-x="1376" 
d="M1135 1470c102 0 153.002 -53 153.002 -159v-1164c0 -47.333 -13.833 -85.666 -41.5 -114.999s-64.834 -44 -111.501 -44c-47.333 0 -84.833 14.667 -112.5 44s-41.5 67.666 -41.5 114.999v1041h-582v-1041c0 -47.333 -13.833 -85.666 -41.5 -114.999
s-64.834 -44 -111.501 -44c-47.333 0 -84.833 14.667 -112.5 44s-41.5 67.666 -41.5 114.999v1164c0 106 51.333 159 154 159h889z" />
    <glyph glyph-name="afii10034" unicode="&#x420;" horiz-adv-x="1155" 
d="M109 147l-0.000976562 1151c0 49.333 14.167 88.333 42.5 117s67.166 43 116.499 43h363c154 0 279 -44.333 375 -133c99.333 -91.333 149 -210 149 -356c0 -104 -27.833 -196.167 -83.5 -276.5s-132.167 -138.5 -229.5 -174.5
c-63.333 -23.333 -129.666 -35 -198.999 -35h-227v-336c0 -47.333 -13.833 -85.666 -41.5 -114.999s-65.167 -44 -112.5 -44s-84.666 15 -111.999 45s-41 68 -41 114zM415.999 1188v-434h209c63.333 0 114.333 20.167 153 60.5s58 92.5 58 156.5
c0 63.333 -19.5 115.333 -58.5 156s-89.833 61 -152.5 61h-209z" />
    <glyph glyph-name="afii10035" unicode="&#x421;" horiz-adv-x="1219" 
d="M51 729c0 214 63.333 391.667 190 533c132 147.333 303.667 221 515 221c177.333 0 308.333 -39 393 -117c31.333 -28.667 47 -66.334 47 -113.001c0 -38 -11.833 -70.333 -35.5 -97s-54.167 -40 -91.5 -40c-18.667 0 -63.334 12 -134.001 36s-130.334 36 -179.001 36
c-125.333 0 -223 -48.667 -293 -146c-61.333 -85.333 -92 -191.666 -92 -318.999c0 -126 32 -231 96 -315c70 -92 166.333 -138 289 -138c50.667 0 112 14.333 184 43s119 43 141 43c62 0 104.333 -32 127 -96c6 -16.667 9 -31 9 -43c0 -86 -58.333 -150.667 -175 -194
c-85.333 -32 -180.666 -48 -285.999 -48c-209.333 0 -380.666 75.333 -513.999 226c-127.333 144 -191 320 -191 528z" />
    <glyph glyph-name="afii10036" unicode="&#x422;" horiz-adv-x="983" 
d="M338 147l0.000976562 1029h-223c-42.667 0 -76.667 12.833 -102 38.5s-38 59.834 -38 102.501c0 39.333 13.5 72.666 40.5 99.999s60.167 41 99.5 41h753c40.667 0 74.167 -13.333 100.5 -40s39.5 -60.334 39.5 -101.001c0 -44 -12.5 -78.5 -37.5 -103.5
s-59.167 -37.5 -102.5 -37.5h-223v-1029c0 -47.333 -13.833 -85.666 -41.5 -114.999s-64.834 -44 -111.501 -44c-47.333 0 -84.833 14.667 -112.5 44s-41.5 67.666 -41.5 114.999z" />
    <glyph glyph-name="afii10037" unicode="&#x423;" horiz-adv-x="1192" 
d="M184 270c34 31.333 64.001 47 90.001 47h9c24 -4 46.333 -6 67 -6c75.333 0 128 41 158 123l-440 813c-12.667 23.333 -19 46.666 -19 69.999c0 6.66699 0.666992 15.334 2 26.001c4.66699 37.333 20.5 68.333 47.5 93s59.167 37 96.5 37c6.66699 0 14 -1 22 -3
c54.667 -6.66699 94.334 -32.334 119.001 -77.001l334 -609l278 605c26 56 74 84 144 84c35.333 0 66.166 -11.667 92.499 -35s42.5 -52.666 48.5 -87.999c1.33301 -7.33301 2 -17 2 -29c0 -26 -4.66699 -48.667 -14 -68l-287 -604
c-98.667 -208 -156.667 -326.667 -174 -356c-88.667 -152 -175.334 -243 -260.001 -273c-41.333 -14.667 -85 -22 -131 -22c-122 0 -194.333 50.667 -217 152c-1.33301 10.667 -2 20.667 -2 30c0 38.667 11.333 68.667 34 90z" />
    <glyph glyph-name="afii10038" unicode="&#x424;" horiz-adv-x="1786" 
d="M1047 983h208c64 0 115.167 -20.167 153.5 -60.5s57.5 -92.5 57.5 -156.5s-19.167 -116.167 -57.5 -156.5s-89.5 -60.5 -153.5 -60.5h-208v434zM739 147c1.33301 -9.33301 5.66504 -30.332 12.998 -62.999c6.66699 -30 24.334 -53.667 53.001 -71
c26.667 -16.667 56 -25 88 -25c47.333 0 84.833 14.667 112.5 44s41.5 67.666 41.5 114.999v132h227c146.667 0 268 44 364 132c98.667 90.667 148 208.334 148 353.001c0 148 -51 267.333 -153 358c-98 87.333 -221.667 131 -371 131h-215v58c0 106 -51.333 159 -154 159
s-154 -53 -154 -159v-58h-215c-150.667 0 -274.667 -43.333 -372 -130c-101.333 -90.667 -152 -210.334 -152 -359.001c0 -105.333 27.833 -197.833 83.5 -277.5s132.834 -137.5 231.501 -173.5c62 -22.667 127.667 -34 197 -34h227v-132zM738.999 983.001v-434h-209
c-62 0 -112.667 20.5 -152 61.5s-59 92.833 -59 155.5s19.667 114.5 59 155.5s90 61.5 152 61.5h209z" />
    <glyph glyph-name="afii10039" unicode="&#x425;" horiz-adv-x="1253" 
d="M43 236l406.003 544l-332 451c-22 30 -33 60 -33 90c0 45.333 14.667 81.5 44 108.5s66.666 40.5 111.999 40.5c53.333 0 97.666 -25 132.999 -75l254 -361l254 361c35.333 50 79.666 75 132.999 75c46 0 83.333 -13.333 112 -40s43 -63 43 -109
c0 -31.333 -10.667 -61.333 -32 -90l-332 -451l405 -544c23.333 -31.333 35 -66.333 35 -105c0 -44.667 -14.5 -79.667 -43.5 -105s-66.167 -38 -111.5 -38c-52.667 0 -95 22.333 -127 67l-336 467l-336 -467c-32 -44.667 -74.333 -67 -127 -67c-44 0 -81 13 -111 39
s-45 60.667 -45 104c0 38.667 11.667 73.667 35 105z" />
    <glyph glyph-name="afii10040" unicode="&#x426;" horiz-adv-x="1425" 
d="M246 2c-47.333 0 -84.833 14.667 -112.5 44s-41.5 68 -41.5 116v1163c0 106.667 51.333 160 154 160c102 0 153 -53.333 153 -160v-1040h582v1040c0 106.667 51.333 160 154 160c102 0 153 -53.333 153 -160v-1040c96 -6 144 -59.333 144 -160v-406
c0 -47.333 -13.833 -85.666 -41.5 -114.999s-65.167 -44 -112.5 -44s-84.833 14.667 -112.5 44s-41.5 67.666 -41.5 114.999v283h-878z" />
    <glyph glyph-name="afii10041" unicode="&#x427;" horiz-adv-x="1300" 
d="M899 1311c0 106 51.333 159.002 154 159.002c102 0 153 -53 153 -159v-1164c0 -47.333 -13.833 -85.666 -41.5 -114.999s-64.834 -44 -111.501 -44c-47.333 0 -84.833 14.667 -112.5 44s-41.5 67.666 -41.5 114.999v406c-229.333 0 -344 -0.333008 -344 -1
s23.667 -1.33398 71 -2.00098c-115.333 1.33301 -204.666 12.666 -267.999 33.999c-190.667 64 -286 203 -286 417v310c0.666992 52.667 16.334 93 47.001 121c27.333 25.333 62.666 38 105.999 38c45.333 0 82.333 -13.333 111 -40s43 -63.667 43 -111v-262
c0 -84.667 24 -143.667 72 -177c40 -28 104.667 -42 194 -42h115l139 -2v475z" />
    <glyph glyph-name="afii10042" unicode="&#x428;" horiz-adv-x="2062" 
d="M246 2c-47.333 0 -84.834 14.667 -112.501 44s-41.5 68 -41.5 116v1163c0 106.667 51.333 160 154 160c102 0 153 -53.333 153 -160v-1040h500v1040c0 106.667 51.333 160 154 160c102 0 153 -53.333 153 -160v-1040h500v1040c0 106.667 51.333 160 154 160
c102 0 153 -53.333 153 -160v-1163c0 -47.333 -13.667 -85.833 -41 -115.5s-64.666 -44.5 -111.999 -44.5h-1614z" />
    <glyph glyph-name="afii10043" unicode="&#x429;" horiz-adv-x="2126" 
d="M246 2c-47.333 0 -84.833 14.668 -112.5 44.001s-41.5 68 -41.5 116v1163c0 106.667 51.333 160 154 160c102 0 153 -53.333 153 -160v-1040h500v1040c0 106.667 51.333 160 154 160c102 0 153 -53.333 153 -160v-1040h500v1040c0 106.667 51.333 160 154 160
c102 0 153 -53.333 153 -160l-2 -1040c95.333 -6 143 -59.333 143 -160v-406c0 -48 -13.667 -86.5 -41 -115.5s-64.666 -43.5 -112 -43.5c-47.333 0 -84.833 14.667 -112.5 44s-41.5 67.666 -41.5 114.999v283h-1601z" />
    <glyph glyph-name="afii10044" unicode="&#x42a;" horiz-adv-x="1403" 
d="M115 1458c-39.333 0 -72.5 -13.668 -99.5 -41.001s-40.5 -60.666 -40.5 -99.999c0 -42.667 12.667 -76.834 38 -102.501s59.333 -38.5 102 -38.5h223v-1016c0 -106.667 53.333 -160 160 -160h362c150 0 273.667 43.667 371 131c102 90.667 153 210 153 358
c0 104.667 -27.667 197.334 -83 278.001s-132 139 -230 175c-60 22 -126.333 33 -199 33h-227v323c0 106.667 -51 160 -153 160h-377zM645 269.999v435h209c64 0 115.167 -20.333 153.5 -61s57.5 -93 57.5 -157s-19.333 -116.167 -58 -156.5s-89.667 -60.5 -153 -60.5h-209z
" />
    <glyph glyph-name="afii10045" unicode="&#x42b;" horiz-adv-x="1630" 
d="M1253 147v1164c0 47.333 14 85.666 42 114.999s65.333 44 112 44c102.667 0 154 -53 154 -159v-1164c0 -47.333 -13.833 -85.666 -41.5 -114.999s-65.167 -44 -112.5 -44c-45.333 0 -82.333 15 -111 45s-43 68 -43 114zM68 1311l0.000976562 -1151
c0 -49.333 14.167 -88.333 42.5 -117s67.166 -43 116.499 -43h363c150 0 273.667 43.667 371 131c102 90.667 153 210 153 358c0 104.667 -27.667 197.334 -83 278.001s-132 139 -230 175c-60 22 -126.333 33 -199 33h-227v336c0 106 -51.333 159 -154 159
c-102 0 -153 -53 -153 -159zM375.001 269.999v435h209c63.333 0 114.333 -20.5 153 -61.5s58 -93.167 58 -156.5s-19.5 -115.333 -58.5 -156s-89.833 -61 -152.5 -61h-209z" />
    <glyph glyph-name="afii10046" unicode="&#x42c;" horiz-adv-x="1188" 
d="M117 1311l0.000976562 -1151c0 -49.333 14.167 -88.333 42.5 -117s67.166 -43 116.499 -43h363c150 0 273.667 43.667 371 131c102 90.667 153 210 153 358c0 104.667 -27.667 197.334 -83 278.001s-132 139 -230 175c-60 22 -126.333 33 -199 33h-227v336
c0 106 -51.333 159 -154 159c-102 0 -153 -53 -153 -159zM424.001 269.999v435h209c63.333 0 114.333 -20.5 153 -61.5s58 -93.167 58 -156.5s-19.5 -115.333 -58.5 -156s-89.833 -61 -152.5 -61h-209z" />
    <glyph glyph-name="afii10047" unicode="&#x42d;" horiz-adv-x="1219" 
d="M860 877c-23.333 95.333 -65.333 170.001 -126 224.001c-64.667 58 -144.667 87 -240 87c-48.667 0 -108.5 -12 -179.5 -36s-115.833 -36 -134.5 -36c-37.333 0 -67.833 13.333 -91.5 40s-35.5 59 -35.5 97c0 79.333 55.333 140.333 166 183c81.333 31.333 173 47 275 47
c210.667 0 382 -73.667 514 -221c126.667 -142 190 -319.667 190 -533c0 -212.667 -63.667 -390 -191 -532c-132 -148 -303 -222 -513 -222c-186 0 -322.667 40.333 -410 121c-34 31.333 -51 71.666 -51 120.999c0 36 13.5 68.167 40.5 96.5s58.5 42.5 94.5 42.5
c22 0 69.167 -14.333 141.5 -43s133.833 -43 184.5 -43c96 0 177.667 30.667 245 92c64.667 58.667 107 136 127 232h-467c-42.667 0 -78.167 13 -106.5 39s-42.5 60 -42.5 102c0 44 13.833 78.667 41.5 104s63.5 38 107.5 38h461z" />
    <glyph glyph-name="afii10048" unicode="&#x42e;" horiz-adv-x="2159" 
d="M1405 258c126 0 223.667 49.333 293 148c61.333 87.333 92 195 92 323c0 208.667 -72.333 352.667 -217 432c-47.333 26 -103.333 39 -168 39c-124 0 -221.667 -49.667 -293 -149c-61.333 -86 -92 -193.333 -92 -322c0 -132.667 32 -242 96 -328
c70.667 -95.333 167 -143 289 -143zM1405 -25c-182.667 0 -337.499 57.667 -464.499 173s-203.5 264 -229.5 446h-312v-447c0 -47.333 -13.833 -85.666 -41.5 -114.999s-64.834 -44 -111.501 -44c-47.333 0 -84.833 14.667 -112.5 44s-41.5 67.666 -41.5 114.999v1164
c0 106 51.333 159 154 159c102 0 153 -53 153 -159v-434h314c24.667 151.333 86 281 184 389c131.333 144.667 300.666 217 507.999 217c206.667 0 377.334 -76 512.001 -228c128 -144 192 -319.333 192 -526c0 -212.667 -63.667 -390 -191 -532
c-132 -148 -303 -222 -513 -222z" />
    <glyph glyph-name="afii10049" unicode="&#x42f;" horiz-adv-x="1139" 
d="M1055 147l0.00195312 1151c0 106.667 -52.667 160 -158 160h-360c-340 0 -510 -154.333 -510 -463c0 -108 37 -196.667 111 -266c67.333 -62.667 156.666 -103 267.999 -121l-349 -372c-27.333 -29.333 -41 -59.666 -41 -90.999c0 -42.667 15 -79.5 45 -110.5
s66.333 -46.5 109 -46.5c50 0 89.667 17.667 119 53l454 551h5v-445c0 -48 13.667 -86.5 41 -115.5s64.666 -43.5 111.999 -43.5s84.833 14.667 112.5 44s41.5 67.666 41.5 114.999zM748.002 1176v-363.001h-211c-57.333 0 -103.5 16.167 -138.5 48.5
s-52.5 76.833 -52.5 133.5s18 101.334 54 134.001c34 31.333 79.667 47 137 47h211z" />
    <glyph glyph-name="afii10065" unicode="&#x430;" horiz-adv-x="1225" 
d="M1141 909l0.000976562 -729c0 -88 -20 -145.333 -60 -172c-20 -13.333 -47.333 -20 -82 -20c-73.333 0 -120.333 41.667 -141 125c-76.667 -92 -170 -138 -280 -138c-106.667 0 -200.334 31.333 -281.001 94c-77.333 60 -134 141.333 -170 244
c-24.667 70.667 -37 147.334 -37 230.001c0 150 43 280.333 129 391c93.333 120 213 180 359 180c122.667 0 216 -45 280 -135c4 35.333 19.5 64.666 46.5 87.999s58.5 35 94.5 35c62 0 103.667 -22.667 125 -68c11.333 -24 17 -65.667 17 -125zM385.001 543
c0 -80 18.9971 -147.667 56.9971 -203c42.667 -62.667 101.334 -94 176.001 -94c72.667 0 130.334 32.667 173.001 98c36.667 56 55 122.333 55 199c0 128.667 -42.333 220 -127 274c-28 18 -61.667 27 -101 27c-75.333 0 -134.666 -33 -177.999 -99
c-36.667 -56 -55 -123.333 -55 -202z" />
    <glyph glyph-name="afii10066" unicode="&#x431;" horiz-adv-x="1188" 
d="M618 844c-74.667 0 -134 -33 -178 -99c-36.667 -55.333 -55 -122.666 -55 -201.999c0 -80 19 -147.667 57 -203c42.667 -62.667 101.334 -94 176.001 -94c76 0 135.667 32 179 96c36.667 54.667 55 121.667 55 201c0 129.333 -42.333 220.666 -127 273.999
c-28.667 18 -64.334 27 -107.001 27zM301 993c84 80.667 189.667 121 317 121c154 0 281.667 -57.333 383 -172c97.333 -110.667 146 -243.667 146 -399c0 -158 -48 -291 -144 -399c-100 -112.667 -228.333 -169 -385 -169s-285 56.667 -385 170
c-95.333 108 -143 240.667 -143 398c0 60 2.66699 112.333 8 157c-18.667 87.333 -28 179 -28 275c0 370 147.333 587 442 651c74 16 111 47.333 111 94c0 106.667 39.333 160 118 160c93.333 0 140 -67 140 -201c0 -99.333 -26.667 -176.333 -80 -231
c-33.333 -34 -149.333 -84 -348 -150c-102.667 -57.333 -154 -148 -154 -272c0 -10.667 0.666992 -21.667 2 -33z" />
    <glyph glyph-name="afii10067" unicode="&#x432;" horiz-adv-x="1110" 
d="M385 864v-194h150c104.667 0 157 34 157 102c0 61.333 -52.333 92 -157 92h-150zM385 469v-219h227c122 0 183 38.333 183 115c0 69.333 -68.333 104 -205 104h-205zM973 88c-82.667 -57.333 -191.333 -86.001 -326 -86.001h-399c-49.333 0 -88.333 17.667 -117 53
c-26 32.667 -39 74.334 -39 125.001v750c0 51.333 12.667 93.666 38 126.999c27.333 36.667 66 55 116 55h372c162.667 0 274.667 -54 336 -162c19.333 -34 29 -71.333 29 -112c0 -120.667 -43.667 -198 -131 -232c54.667 -13.333 108 -42.666 160 -87.999
c44.667 -52 67 -113.333 67 -184c0 -46 -8.66699 -91.333 -26 -136c-20 -50 -46.667 -86.667 -80 -110z" />
    <glyph glyph-name="afii10068" unicode="&#x433;" horiz-adv-x="954" 
d="M109 901c0 -36 11.002 -66.333 33.002 -91c22.667 -26.667 51.667 -40 87 -40c15.333 0 54.666 14.333 117.999 43s112.333 43 147 43c66.667 0 100 -27.333 100 -82c0 -35.333 -44.333 -70 -133 -104l-123 -47c-170.667 -65.333 -256 -165.666 -256 -300.999
c0 -110 43.667 -197 131 -261c78 -57.333 174.333 -86 289 -86c94 0 183.333 21.333 268 64c95.333 48 143 102.667 143 164c0 34.667 -12.667 65.167 -38 91.5s-55 39.5 -89 39.5c-30 0 -66.5 -11 -109.5 -33s-78.167 -39 -105.5 -51c-23.333 -11.333 -53.333 -17 -90 -17
c-77.333 0 -116 28 -116 84c0 33.333 44.333 67.666 133 102.999l123 49c170.667 68 256 168.333 256 301c0 108.667 -41 194.667 -123 258c-74.667 57.333 -167 86 -277 86c-86.667 0 -166.334 -17 -239.001 -51c-86 -40 -129 -94 -129 -162z" />
    <glyph glyph-name="afii10069" unicode="&#x434;" horiz-adv-x="1208" 
d="M1124 938l0.000976562 -852c0 -173.333 -51.667 -306.333 -155 -399c-98.667 -88.667 -236 -133 -412 -133c-87.333 0 -180 16.333 -278 49c-124.667 41.333 -187 98.666 -187 171.999c0 28.667 12.833 57.334 38.5 86.001s52.5 43 80.5 43c26.667 0 78.667 -15 156 -45
c80.667 -31.333 151.667 -47 213 -47c76 0 136.5 20.167 181.5 60.5s67.5 97.833 67.5 172.5v70h-4c-62.667 -93.333 -161.667 -140 -297 -140c-144.667 0 -258.667 58.333 -342 175c-74.667 104.667 -112 235 -112 391c0 109.333 23.667 210.333 71 303
c50.667 100 121.667 174.333 213 223c59.333 31.333 126.333 47 201 47c126 0 216 -45 270 -135c19.333 82 68.666 123 147.999 123c46 0 82 -15.5 108 -46.5s39 -70.167 39 -117.5zM829.001 537c0 79.333 -18.333 148 -55 206c-42.667 67.333 -101.334 101 -176.001 101
c-72.667 0 -130.667 -33 -174 -99c-36.667 -55.333 -55 -121.333 -55 -198c0 -81.333 17.333 -149.333 52 -204c41.333 -64.667 100.333 -97 177 -97c74.667 0 133.334 31.333 176.001 94c36.667 54 55 119.667 55 197z" />
    <glyph glyph-name="afii10070" unicode="&#x435;" horiz-adv-x="1133" 
d="M983 446h-628.997c10 -68.667 41.167 -121.334 93.5 -158.001s114.166 -55 185.499 -55c43.333 0 90.333 11 141 33c8 4.66699 51 27.334 129 68.001c23.333 12 44.666 18 63.999 18c32 0 60 -13 84 -39s36 -55.333 36 -88c0 -75.333 -64 -138.333 -192 -189
c-103.333 -40.667 -199.666 -61 -288.999 -61c-163.333 0 -296.333 54 -399 162s-154 243.333 -154 406c0 155.333 49 288.333 147 399c101.333 114.667 228.666 172 381.999 172c110 0 210 -32.333 300 -97c87.333 -63.333 151.666 -147 192.999 -251
c24.667 -62 37 -124.667 37 -188c0 -88 -43 -132 -129 -132zM348.003 643l469 -0.000976562c-8 68 -32.5 122.5 -73.5 163.5s-94.833 61.5 -161.5 61.5c-64.667 0 -118.167 -21.167 -160.5 -63.5s-66.833 -96.166 -73.5 -161.499z" />
    <glyph glyph-name="afii10072" unicode="&#x436;" horiz-adv-x="1577" 
d="M637 729v684c0 45.333 13.333 84 40 116s62.334 48 107.001 48c46.667 0 83 -15.5 109 -46.5s39 -70.167 39 -117.5v-688l323 313c44 42.667 88.667 64 134 64c36.667 0 66.5 -12.833 89.5 -38.5s34.5 -57.167 34.5 -94.5c0 -44 -19 -83 -57 -117l-262 -234l346 -405
c24.667 -28.667 37 -61.334 37 -98.001c0 -38.667 -13.5 -71.667 -40.5 -99s-59.833 -41 -98.5 -41c-45.333 0 -92.666 30.333 -141.999 91l-360 444h-4v-358c0 -47.333 -12.667 -86 -38 -116c-26.667 -32 -63.334 -48 -110.001 -48c-44.667 0 -80.334 16 -107.001 48
s-40 70.667 -40 116v358l-361 -444c-49.333 -60.667 -96.333 -91 -141 -91c-38.667 0 -71.5 13.667 -98.5 41s-40.5 60.333 -40.5 99c0 36.667 12.333 69.334 37 98.001l346 405l-262 234c-38.667 34.667 -58 73.667 -58 117c0 36 12 67.167 36 93.5s53.667 39.5 89 39.5
c44.667 0 89 -21.333 133 -64z" />
    <glyph glyph-name="afii10073" unicode="&#x437;" horiz-adv-x="889" 
d="M461 434c88.667 0 133.002 -31.334 133.002 -94.001c0 -71.333 -47 -107 -141 -107c-36 0 -75.333 10 -118 30l-110 56c-20.667 10 -46.667 15 -78 15c-34 0 -63.667 -13.333 -89 -40s-38 -57 -38 -91c0 -61.333 48 -116 144 -164
c85.333 -42.667 174.666 -64 267.999 -64c114.667 0 211 28.667 289 86c87.333 64 131 151 131 261c0 57.333 -12.333 104.333 -37 141c-14.667 22 -30.334 42.333 -47.001 61c-24 26.667 -48.667 46 -74 58c38.667 10.667 69.667 34.667 93 72
c21.333 34.667 32 73.334 32 116.001c0 108.667 -41 194.667 -123 258c-74 57.333 -166 86 -276 86c-87.333 0 -167.333 -17 -240 -51c-86 -40 -129 -94 -129 -162c0 -34.667 11.5 -65.167 34.5 -91.5s51.833 -39.5 86.5 -39.5c14 0 31 4.66699 51 14l66 50
c16.667 12 40.334 23.333 71.001 34c17.333 6 42.666 9 75.999 9c26.667 0 50 -6.33301 70 -19c35.333 -22.667 53 -50 53 -82c0 -20.667 -7.33301 -40.5 -22 -59.5s-32 -29.167 -52 -30.5c-30.667 -2 -68.667 -6.66699 -114 -14c-56 -19.333 -85.333 -52.333 -88 -99v-8
c0 -40.667 20.333 -73.667 61 -99c34.667 -21.333 73.667 -32 117 -32z" />
    <glyph glyph-name="afii10074" unicode="&#x438;" horiz-adv-x="1139" 
d="M1059 934v-787c0 -46 -13.333 -84.667 -40 -116s-62.667 -47 -108 -47c-78.667 0 -123.667 36 -135 108c-58.667 -80.667 -153.334 -121 -284.001 -121c-122 0 -219.833 36 -293.5 108s-110.5 168.667 -110.5 290v565c0 46 13.333 84.833 40 116.5s62.667 47.5 108 47.5
c46 0 82 -15.5 108 -46.5s39 -70.167 39 -117.5v-514c0 -60.667 17 -109.667 51 -147s81 -56 141 -56s106.5 18.833 139.5 56.5s49.5 86.5 49.5 146.5v514c0 45.333 13.333 84 40 116s62.334 48 107.001 48c46.667 0 83 -15.5 109 -46.5s39 -70.167 39 -117.5z" />
    <glyph glyph-name="afii10075" unicode="&#x439;" horiz-adv-x="1139" 
d="M1059 934v-787c0 -46 -13.333 -84.667 -40 -116s-62.667 -47 -108 -47c-78.667 0 -123.667 36 -135 108c-58.667 -80.667 -153.334 -121 -284.001 -121c-122 0 -219.833 36 -293.5 108s-110.5 168.667 -110.5 290v565c0 47.333 13 86.5 39 117.5s62.333 46.5 109 46.5
c46 0 82 -15.5 108 -46.5s39 -70.167 39 -117.5v-514c0 -58.667 16.833 -107.167 50.5 -145.5s80.834 -57.5 141.501 -57.5c60 0 106.5 18.833 139.5 56.5s49.5 86.5 49.5 146.5v514c0 47.333 13 86.5 39 117.5s62 46.5 108 46.5c46.667 0 83 -15.5 109 -46.5
s39 -70.167 39 -117.5zM887 1448c-0.666992 34 -12.834 62.667 -36.501 86s-52.5 35 -86.5 35c-33.333 0 -62.166 -11.833 -86.499 -35.5s-36.5 -52.167 -36.5 -85.5c-2.66699 -20.667 -21.667 -31 -57 -31h-4c-45.333 0.666992 -68 11 -68 31c0 34 -11.667 62.667 -35 86
s-52 35 -86 35c-33.333 0 -62.166 -11.833 -86.499 -35.5s-36.5 -52.167 -36.5 -85.5c0 -77.333 31.333 -139.333 94 -186c57.333 -42.667 126.333 -64.667 207 -66h9c81.333 0 151.666 21.333 210.999 64c65.333 46.667 98 108.667 98 186v2z" />
    <glyph glyph-name="afii10076" unicode="&#x43a;" horiz-adv-x="1040" 
d="M100 152l-0.000976562 1261c0 46 13.333 84.833 40 116.5s62.667 47.5 108 47.5c46 0 82 -15.5 108 -46.5s39 -70.167 39 -117.5v-688l324 313c44 42.667 88.333 64 133 64c36.667 0 66.667 -13 90 -39s35 -57.333 35 -94c0 -44 -19 -83 -57 -117l-263 -234l347 -405
c24 -28 36 -60.667 36 -98c0 -38.667 -13.5 -71.667 -40.5 -99s-59.833 -41 -98.5 -41c-44.667 0 -91.667 30.333 -141 91l-361 444h-4v-358c0 -47.333 -12.667 -86 -38 -116c-26.667 -32 -63 -48 -109 -48c-45.333 0 -81.666 16.333 -108.999 49c-26 30.667 -39 69 -39 115
z" />
    <glyph glyph-name="afii10077" unicode="&#x43b;" horiz-adv-x="1141" 
d="M928 1102c95.333 0 143 -39.667 143 -119v-866c0 -79.333 -47.667 -119 -143 -119c-96 0 -144 39.667 -144 119v733h-292l-3 -371c0 -213.333 -59.333 -357.333 -178 -432c-49.333 -31.333 -105.333 -47 -168 -47h-4c-43.333 0.666992 -78.666 13.667 -105.999 39
c-23.333 22 -35 48 -35 78v4c2.66699 32.667 17 59.334 43 80.001c9.33301 7.33301 32.666 14.666 69.999 21.999c64 12.667 96 79.667 96 201v8l-4 551v2c0 78 48.333 117 145 117h580z" />
    <glyph glyph-name="afii10078" unicode="&#x43c;" horiz-adv-x="1593" 
d="M1360 952l188.003 -706c10.667 -25.333 19 -50.666 25 -75.999c4 -16 6 -37.333 6 -64c0 -36.667 -15.667 -66 -47 -88c-28 -20 -61.333 -30 -100 -30c-78.667 0 -125.334 38.667 -140.001 116l-108 564h-4l-234 -551c-11.333 -26 -28.333 -57.333 -51 -94
c-23.333 -23.333 -56 -35 -98 -35c-42.667 0 -75.667 11.667 -99 35c-12.667 12.667 -29.667 44 -51 94l-233 551h-4l-109 -564c-6.66699 -34 -22.834 -61.833 -48.501 -83.5s-55.834 -32.5 -90.501 -32.5c-44 0 -79.667 12.833 -107 38.5s-41 60.5 -41 104.5
c2 10 11.667 47 29 111l190 710c10 36 32 71.667 66 107c28 28.667 65.667 43 113 43c44.667 0 80.667 -12.333 108 -37c19.333 -18 40 -51.333 62 -100l213 -476h4l213 476c22 49.333 42.333 82.666 61 99.999c26.667 24.667 63 37 109 37c92 0 151.333 -50 178 -150z" />
    <glyph glyph-name="afii10079" unicode="&#x43d;" horiz-adv-x="1139" 
d="M381 643l381.001 0.00195312l2 291c0 46.667 13 85.667 39 117s62 47 108 47c46.667 0 83 -15.5 109 -46.5s39 -70.167 39 -117.5v-787c0 -44 -14.333 -81.5 -43 -112.5s-65 -46.5 -109 -46.5c-44.667 0 -80 15.667 -106 47s-39 69.666 -39 114.999v296h-381l-2 -294
c-4 -30.667 -17.667 -70.334 -41 -119.001c-28.667 -30 -64.334 -45 -107.001 -45c-46 0 -82.333 17 -109 51c-24 30.667 -36 69.667 -36 117l2 778c0 46 13.333 84.833 40 116.5s62.667 47.5 108 47.5c96.667 0 145 -55.333 145 -166v-289z" />
    <glyph glyph-name="afii10080" unicode="&#x43e;" horiz-adv-x="1139" 
d="M569 1114c154 0 281.667 -57.334 383 -172.001c97.333 -110.667 146 -243.667 146 -399c0 -158 -48 -291 -144 -399c-100 -112.667 -228.333 -169 -385 -169s-285 56 -385 168c-95.333 108 -143 241.333 -143 400c0 154.667 48.667 287.334 146 398.001
c102 115.333 229.333 173 382 173zM569 843.999c-75.333 0 -134.667 -32.999 -178 -98.999c-36.667 -56 -55 -123.333 -55 -202c0 -80 19 -147.667 57 -203c42.667 -62.667 101.334 -94 176.001 -94c74 0 132.667 32 176 96c38.667 57.333 58 124.333 58 201
c0 129.333 -42.333 220.666 -127 273.999c-28.667 18 -64.334 27 -107.001 27z" />
    <glyph glyph-name="afii10081" unicode="&#x43f;" horiz-adv-x="1139" 
d="M84 152l0.00292969 786c0 45.333 13.333 84 40 116s62.334 48 107.001 48c79.333 0 124.666 -36.333 135.999 -109c58.667 80.667 153.334 121 284.001 121c122.667 0 220.667 -35.5 294 -106.5s110 -167.833 110 -290.5v-565c0 -47.333 -12.667 -86 -38 -116
c-26.667 -32 -63.334 -48 -110.001 -48c-44.667 0 -80.334 16 -107.001 48s-40 70.667 -40 116v514c0 61.333 -17 110.333 -51 147s-81.333 55 -142 55c-59.333 0 -105.5 -18.667 -138.5 -56s-49.5 -86 -49.5 -146v-514c0 -47.333 -12.667 -86 -38 -116
c-26.667 -32 -63.334 -48 -110.001 -48c-44.667 0 -80.334 16 -107.001 48s-40 70.667 -40 116z" />
    <glyph glyph-name="afii10082" unicode="&#x440;" 
d="M84 -283v1221c0 45.333 13.333 84 40 116s62.334 48 107.001 48c79.333 0 128.666 -41 147.999 -123c54.667 90 148 135 280 135c151.333 0 271 -62 359 -186c78 -110 117 -242.667 117 -398c0 -148.667 -43.667 -276.334 -131 -383.001
c-94 -114.667 -212.333 -172 -355 -172c-100.667 0 -190.667 34.333 -270 103v-361c0 -46.667 -12.667 -85 -38 -115c-27.333 -32 -64 -48 -110 -48c-44.667 0 -80.667 16.333 -108 49c-26 30.667 -39 68.667 -39 114zM379 553.001c0 -80 17.999 -148.667 53.999 -206
c42 -67.333 101 -101 177 -101c72.667 0 130.667 32.667 174 98c37.333 56 56 122.333 56 199c0 73.333 -19.333 140 -58 200c-43.333 67.333 -100.666 101 -171.999 101c-74 0 -132.667 -31.333 -176 -94c-36.667 -53.333 -55 -119 -55 -197z" />
    <glyph glyph-name="afii10083" unicode="&#x441;" horiz-adv-x="948" 
d="M930 928c0 -35.333 -10.498 -67.834 -31.498 -97.501s-48.167 -44.5 -81.5 -44.5c-24.667 0 -61.834 9.66699 -111.501 29s-90.167 29 -121.5 29c-80.667 0 -143.667 -31.333 -189 -94c-39.333 -54 -59 -123 -59 -207c0 -80 21 -147.667 63 -203
c47.333 -62.667 109 -94 185 -94c33.333 0 75.5 10.167 126.5 30.5s81.833 30.5 92.5 30.5c36 0 66.167 -12.5 90.5 -37.5s36.5 -55.5 36.5 -91.5c0 -68 -46.333 -120.667 -139 -158c-74 -30 -148 -45 -222 -45c-156.667 0 -285 56 -385 168
c-95.333 108 -143 241.333 -143 400c0 154.667 48.667 287.334 146 398.001c102 115.333 229.333 173 382 173c143.333 0 250.666 -32 321.999 -96c26 -23.333 39 -53.333 39 -90z" />
    <glyph glyph-name="afii10084" unicode="&#x442;" horiz-adv-x="1745" 
d="M84 152l0.00488281 786c0 45.333 13.333 84 40 116s62.334 48 107.001 48c79.333 0 124.666 -37 135.999 -111c76 82 167.333 123 274 123c124 0 225.667 -49.667 305 -149c86 99.333 189.667 149 311 149c125.333 0 224 -34.833 296 -104.5s108 -167.167 108 -292.5
v-565c0 -47.333 -12.667 -86 -38 -116c-26.667 -32 -63.334 -48 -110.001 -48c-44.667 0 -80.334 16 -107.001 48s-40 70.667 -40 116v514c0 58 -14 105 -42 141c-30.667 40.667 -74 61 -130 61c-56.667 0 -100.667 -20 -132 -60c-28 -36 -42 -83.333 -42 -142v-514
c0 -47.333 -12.667 -86 -38 -116c-26.667 -32 -63.334 -48 -110.001 -48c-46 0 -82.333 16 -109 48c-25.333 30 -38 68.667 -38 116v514c0 58 -14 105 -42 141c-30.667 40.667 -74 61 -130 61c-116 0 -174 -67.333 -174 -202v-514c0 -47.333 -12.667 -86 -38 -116
c-26.667 -32 -63.334 -48 -110.001 -48c-44.667 0 -80.334 16 -107.001 48s-40 70.667 -40 116z" />
    <glyph glyph-name="afii10085" unicode="&#x443;" horiz-adv-x="1034" 
d="M385 86l-326 813c-9.33301 23.333 -14 48.666 -14 75.999c0 34 14.5 63.667 43.5 89s60.833 38 95.5 38c73.333 0 122.666 -35 147.999 -105l203 -555l217 555c27.333 70 76.333 105 147 105c36 0 68.167 -12.333 96.5 -37s42.5 -54.667 42.5 -90
c0 -27.333 -4.66699 -52.666 -14 -75.999l-494 -1229c-31.333 -77.333 -77.666 -116 -138.999 -116c-40.667 0 -75.667 10.667 -105 32c-32 24 -48 55.667 -48 95c0 27.333 6 56 18 86z" />
    <glyph glyph-name="afii10086" unicode="&#x444;" horiz-adv-x="1888" 
d="M795 492l-0.000976562 83c-7.33301 73.333 -28.666 133.666 -63.999 180.999c-41.333 56 -96.666 84 -165.999 84c-72.667 0 -130.667 -33 -174 -99c-36.667 -55.333 -55 -121.333 -55 -198c0 -75.333 19 -142.333 57 -201c43.333 -66.667 100.666 -100 171.999 -100
c67.333 0 122 25.667 164 77c36.667 44.667 58.667 102.334 66 173.001zM794.999 -283v385.001c-54.667 -87.333 -147.667 -131 -279 -131c-150.667 0 -270 62.333 -358 187c-78 110 -117 242.333 -117 397c0 148 43.667 275.667 131 383
c93.333 114.667 211.333 172 354 172c101.333 0 191.666 -34 270.999 -102v381c0 45.333 13.333 83.833 40 115.5s62.334 47.5 107.001 47.5c46 0 82.667 -16 110 -48c25.333 -30 38 -68.333 38 -115v-406c54.667 87.333 147.334 131 278.001 131
c151.333 0 271 -62 359 -186c77.333 -108.667 116 -241.334 116 -398.001c0 -148 -43.667 -275.667 -131 -383c-93.333 -114.667 -211.333 -172 -354 -172c-101.333 0 -191.333 34.333 -270 103v-361c0 -46.667 -12.667 -85 -38 -115c-27.333 -32 -64 -48 -110 -48
c-44.667 0 -80.334 16 -107.001 48s-40 70.333 -40 115zM1550 543.001c0 74 -19.0029 140.666 -57.0029 199.999c-43.333 67.333 -100.666 101 -171.999 101c-74.667 0 -133.334 -31.333 -176.001 -94c-36.667 -54 -55 -119.667 -55 -197
c0 -131.333 42.333 -224.333 127 -279c28.667 -18.667 61.334 -28 98.001 -28s70.334 7.83301 101.001 23.5s56.334 39.834 77.001 72.501c38 59.333 57 126.333 57 201z" />
    <glyph glyph-name="afii10087" unicode="&#x445;" horiz-adv-x="1024" 
d="M41 231l299 340l-250 281c-30 34 -45 69.333 -45 106c0 38.667 15.5 72.334 46.5 101.001s66.167 43 105.5 43c40.667 0 76.667 -19.333 108 -58l207 -258l207 258c31.333 38.667 67.333 58 108 58c39.333 0 74.5 -14.333 105.5 -43s46.5 -62.334 46.5 -101.001
c0 -36.667 -15 -72 -45 -106l-250 -281l299 -340c27.333 -31.333 41 -64.666 41 -99.999c0 -44 -13.167 -78.833 -39.5 -104.5s-61.5 -38.5 -105.5 -38.5c-46.667 0 -87.667 21.667 -123 65l-244 299l-244 -299c-35.333 -43.333 -76.333 -65 -123 -65
c-42.667 0 -77.5 13.167 -104.5 39.5s-40.5 60.833 -40.5 103.5c0 35.333 13.667 68.666 41 99.999z" />
    <glyph glyph-name="afii10088" unicode="&#x446;" horiz-adv-x="1249" 
d="M1022 -18l-68.002 -2.00098h-16c-67.333 0 -107.666 44.333 -120.999 133c-30.667 -42 -81 -79 -151 -111c-45.333 -20.667 -103.333 -31 -174 -31c-122 0 -219.833 36 -293.5 108s-110.5 168.667 -110.5 290v565c0 46 13.333 84.833 40 116.5s62.667 47.5 108 47.5
c46 0 82 -15.5 108 -46.5s39 -70.167 39 -117.5v-514c0 -60.667 17 -109.667 51 -147s81 -56 141 -56s106.5 18.833 139.5 56.5s49.5 86.5 49.5 146.5v514c0 45.333 13.333 84 40 116s62.334 48 107.001 48c46.667 0 83 -15.5 109 -46.5s39 -70.167 39 -117.5l-2 -735h114
c86 0 129 -52 129 -156v-248c0 -40.667 -13.667 -75.667 -41 -105s-61.333 -44.666 -102 -45.999h-8c-40.667 0 -72.667 16.667 -96 50c-20.667 29.333 -31 65 -31 107v181z" />
    <glyph glyph-name="afii10089" unicode="&#x447;" horiz-adv-x="1122" 
d="M760 129l0.000976562 -15.999c0 -44.667 14.333 -78.334 43 -101.001c24 -18.667 54.667 -28 92 -28c45.333 0 81.666 16 108.999 48c25.333 30.667 38 69 38 115v787c0 48 -13 87.333 -39 118s-62 46 -108 46s-82.333 -16.333 -109 -49
c-25.333 -30 -38 -68.333 -38 -115v-166c0 -56.667 -17 -104.667 -51 -144s-80 -59 -138 -59c-59.333 0 -106.166 19 -140.499 57s-51.5 86.667 -51.5 146v166c0 47.333 -13 86.5 -39 117.5s-62.333 46.5 -109 46.5c-44.667 0 -80.334 -16 -107.001 -48
s-40 -70.667 -40 -116v-217c0 -121.333 36.833 -218 110.5 -290s171.167 -108 292.5 -108c131.333 0 226.333 40.333 285 121c-1.33301 -13.333 -2 -46 -2 -98c0 -46.667 0.666992 -117.667 2 -213z" />
    <glyph glyph-name="afii10090" unicode="&#x448;" horiz-adv-x="1745" 
d="M1659 938v-785.999c0 -47.333 -12.667 -86 -38 -116c-26.667 -32 -63.334 -48 -110.001 -48c-78.667 0 -123.667 36.667 -135 110c-76 -82 -167.333 -123 -274 -123c-124.667 0 -226.334 50 -305.001 150c-86 -100 -190 -150 -312 -150
c-124 0 -222.167 35.333 -294.5 106s-108.5 168 -108.5 292v565c0 45.333 13.333 84 40 116s62.334 48 107.001 48c46.667 0 83 -15.5 109 -46.5s39 -70.167 39 -117.5v-514c0 -56.667 14.333 -103.667 43 -141c31.333 -41.333 74.333 -62 129 -62
c55.333 0 99 20.333 131 61c28.667 37.333 43 84.666 43 141.999v514c0 47.333 13 86.5 39 117.5s62 46.5 108 46.5c46.667 0 83 -15.5 109 -46.5s39 -70.167 39 -117.5v-514c0 -56.667 14.333 -103.667 43 -141c31.333 -41.333 74.333 -62 129 -62
c116 0 174 67.667 174 203v514c0 45.333 13.333 84 40 116s62.334 48 107.001 48c46.667 0 83 -15.5 109 -46.5s39 -70.167 39 -117.5z" />
    <glyph glyph-name="afii10091" unicode="&#x449;" horiz-adv-x="1855" 
d="M1102 -25c-124.667 0 -226.334 50 -305.001 150c-86 -100 -190 -150 -312 -150c-124 0 -222.167 35.333 -294.5 106s-108.5 168 -108.5 292v565c0 45.333 13.333 84 40 116s62.334 48 107.001 48c46.667 0 83 -15.5 109 -46.5s39 -70.167 39 -117.5v-514
c0 -56.667 14.333 -103.667 43 -141c31.333 -41.333 74.333 -62 129 -62c55.333 0 99 20.333 131 61c28.667 37.333 43 84.666 43 141.999v514c0 47.333 13 86.5 39 117.5s62 46.5 108 46.5c46.667 0 83 -15.5 109 -46.5s39 -70.167 39 -117.5v-514
c0 -56.667 14.333 -103.667 43 -141c31.333 -41.333 74.333 -62 129 -62c116 0 174 67.667 174 203v514c0 45.333 13.333 84 40 116s62.334 48 107.001 48c46.667 0 83 -15.5 109 -46.5s39 -70.167 39 -117.5v-739h115c86 0 129 -52 129 -156v-248
c0 -40 -13.667 -74.833 -41 -104.5s-61 -45.167 -101 -46.5h-8c-40.667 0 -72.667 16.667 -96 50c-20.667 28.667 -31 64.334 -31 107.001v181l-70 -2h-14c-30 0 -56.667 10.667 -80 32c-20 22 -34.333 55.667 -43 101c-49.333 -52 -96.833 -88 -142.5 -108
s-103.834 -30 -174.501 -30z" />
    <glyph glyph-name="afii10092" unicode="&#x44a;" horiz-adv-x="1247" 
d="M96 1077c-51.333 -8.66699 -85.334 -23.001 -102.001 -43.001c-24.667 -30 -37 -62.667 -37 -98c0 -41.333 12.833 -75.166 38.5 -101.499s59.167 -39.5 100.5 -39.5h117v-596c0 -54 12 -99.333 36 -136c28.667 -42 68.667 -63 120 -63h399
c119.333 0 216.333 28.667 291 86c94 72 141 168.333 141 289c0 144.667 -60.667 247.667 -182 309c-86.667 44 -207.667 66 -363 66h-149l-2 163c-0.666992 50.667 -14.667 90.667 -42 120s-62.666 44 -105.999 44h-260zM503.999 497.999l228.999 2h4
c42.667 0 80.334 -8.33301 113.001 -25c42 -20.667 63 -52 63 -94c0 -82 -60 -123 -180 -123h-229v240z" />
    <glyph glyph-name="afii10093" unicode="&#x44b;" horiz-adv-x="1577" 
d="M1202 152l-0.000976562 786c0 46 13.333 84.833 40 116.5s62.667 47.5 108 47.5c46 0 82 -15.5 108 -46.5s39 -70.167 39 -117.5v-786c0 -47.333 -12.667 -86 -38 -116c-26.667 -32 -63 -48 -109 -48c-45.333 0 -81.666 16.333 -108.999 49c-26 30.667 -39 69 -39 115z
M372.999 750l148.999 -0.00195312c154 0 275 -22 363 -66c75.333 -38 128.333 -96.667 159 -176c16.667 -43.333 25 -87.666 25 -132.999c0 -76 -21.167 -144.5 -63.5 -205.5s-98.833 -106.5 -169.5 -136.5c-52 -22 -119 -33 -201 -33h-399c-51.333 0 -91.333 21 -120 63
c-24 36.667 -36 82 -36 136v739c0 45.333 13.333 84 40 116s62.334 48 107.001 48c43.333 0 79 -15 107 -45c27.333 -29.333 41 -67.666 41 -114.999v-4zM370.998 497.998l-0.000976562 -240h229c120 0 180 41 180 123c0 42 -20.667 73.667 -62 95
c-31.333 16 -68.666 24 -111.999 24h-6z" />
    <glyph glyph-name="afii10094" unicode="&#x44c;" horiz-adv-x="1122" 
d="M389 750l149.999 -0.000976562c152.667 0 273.334 -22 362.001 -66c76.667 -38 130 -96.667 160 -176c16 -42.667 24 -87 24 -133c0 -76 -21.167 -144.5 -63.5 -205.5s-98.833 -106.5 -169.5 -136.5c-52 -22 -119 -33 -201 -33h-399c-51.333 0 -91.333 21 -120 63
c-24 36.667 -36 82 -36 136v739c0 46 13.333 84.833 40 116.5s62.667 47.5 108 47.5c42.667 0 78 -15 106 -45c27.333 -29.333 41 -67.666 41 -114.999v-4zM386.999 497.999l-0.000976562 -240h229c120.667 0 181 41 181 123c0 42 -21 73.667 -63 95
c-31.333 16 -68.666 24 -111.999 24h-6z" />
    <glyph glyph-name="afii10095" unicode="&#x44d;" horiz-adv-x="948" 
d="M299 446c-38 0 -65.334 17.332 -82.001 51.999c-8 16.667 -12 33 -12 49c0 15.333 4.66699 31.666 14 48.999c16.667 31.333 43.334 47 80.001 47h307l-2 12c-34 126 -111.667 189 -233 189c-32 0 -72.667 -9.66699 -122 -29s-86.666 -29 -111.999 -29
c-30.667 0 -57.334 15 -80.001 45c-21.333 27.333 -32 57 -32 89v8c4 38.667 17.667 68.667 41 90c71.333 64 177.666 96 318.999 96c154 0 281.667 -58 383 -174c96.667 -110.667 145 -243 145 -397c0 -158.667 -47.667 -292 -143 -400c-100 -112 -228.333 -168 -385 -168
c-78 0 -152.333 15 -223 45c-91.333 38.667 -137 91.334 -137 158.001c0 36.667 12 67.334 36 92.001s54.333 37 91 37c13.333 0 46 -10.167 98 -30.5s92.333 -30.5 121 -30.5c56 0 104.333 17.667 145 53c38.667 33.333 67.334 78.333 86.001 135l4 12h-307z" />
    <glyph glyph-name="afii10096" unicode="&#x44e;" horiz-adv-x="1714" 
d="M1147 1114c152.667 0 280.002 -57.666 382.002 -172.999c97.333 -110.667 146 -243.334 146 -398.001c0 -157.333 -48.333 -290.333 -145 -399c-100 -112.667 -227.667 -169 -383 -169c-136.667 0 -252.834 44.833 -348.501 134.5s-153.5 201.834 -173.5 336.501h-244
l-2 -294c-4 -30.667 -17.667 -70.334 -41 -119.001c-28.667 -30 -64.334 -45 -107.001 -45c-46 0 -82.333 17 -109 51c-24 30.667 -36 69.667 -36 117l2 778c0 46 13.333 84.833 40 116.5s62.667 47.5 108 47.5c96.667 0 145 -55.333 145 -166v-289h246
c21.333 134.667 79 246 173 334c97.333 91.333 213 137 347 137zM1147 844.001c-75.333 0 -134.668 -33 -178.001 -99c-37.333 -57.333 -56 -124.666 -56 -201.999c0 -78.667 19.333 -146.334 58 -203.001c42.667 -62.667 101.334 -94 176.001 -94s133.334 32 176.001 96
c38 56 57 123 57 201c0 128 -43 219.333 -129 274c-28.667 18 -63.334 27 -104.001 27z" />
    <glyph glyph-name="afii10097" unicode="&#x44f;" horiz-adv-x="1110" 
d="M522 864h219v-202h-219c-31.333 0 -59 9 -83 27s-36 42.333 -36 73v4c7.33301 65.333 47 98 119 98zM207 356l-37.001 -74.999c-18 -27.333 -40 -41 -66 -41c-29.333 0 -53.666 -11.5 -72.999 -34.5s-30.333 -49.833 -33 -80.5v-16c0 -80.667 48.333 -121 145 -121
c92 0 168.667 43 230 129l135 239c27.333 46 56.666 69.333 87.999 70l147 2l-2 -276c0 -46 13 -84.333 39 -115c28 -32.667 64.333 -49 109 -49c46 0 82.333 16 109 48c25.333 30 38 68.667 38 116v786c-8 60.667 -23 103 -45 127c-29.333 31.333 -66 47 -110 47h-394
c-76 0 -149.667 -22.667 -221 -68c-38 -24 -70.333 -60.333 -97 -109c-25.333 -46 -40 -92.667 -44 -140v-21c0 -68.667 24 -130 72 -184c26.667 -30 70.334 -55.333 131.001 -76c-24 -6.66699 -46 -25.667 -66 -57c-8.66699 -12.667 -27 -46.334 -55 -101.001z" />
    <glyph glyph-name="afii10071" unicode="&#x451;" horiz-adv-x="1100" 
d="M950 446h-628c9.33301 -68 40.333 -120.5 93 -157.5s114.334 -55.5 185.001 -55.5c45.333 0 92.333 11 141 33l129 68c22.667 12 44 18 64 18c32 0 60.167 -13 84.5 -39s36.5 -55.333 36.5 -88c0 -75.333 -64.333 -138.333 -193 -189
c-103.333 -40.667 -199.666 -61 -288.999 -61c-163.333 0 -296.333 53.667 -399 161s-154 243 -154 407c0 155.333 49 288.333 147 399c101.333 114.667 228.666 172 381.999 172c110 0 210 -32.333 300 -97c87.333 -63.333 151.666 -147 192.999 -251
c24.667 -62 37 -124.667 37 -188c0 -88 -43 -132 -129 -132zM315 643l469 -0.000976562c-8 68.667 -32.333 123.334 -73 164.001s-94.667 61 -162 61c-65.333 0 -118.833 -21 -160.5 -63s-66.167 -96 -73.5 -162zM629 1382c0 41.333 14.1689 76.3311 42.502 104.998
s63.166 43 104.499 43s76.333 -14.333 105 -43s43 -63.667 43 -105s-14.333 -76.166 -43 -104.499s-63.667 -42.5 -105 -42.5c-40.667 0 -75.334 14.333 -104.001 43s-43 63.334 -43 104.001zM178.002 1382c0 41.333 14.335 76.335 43.002 105.002s63.667 43 105 43
s76.166 -14.333 104.499 -43s42.5 -63.667 42.5 -105c0 -40.667 -14.333 -75.334 -43 -104.001s-63.334 -43 -104.001 -43c-41.333 0 -76.333 14.167 -105 42.5s-43 63.166 -43 104.499z" />
    <glyph glyph-name="ch261" unicode="&#x2010;" horiz-adv-x="797" 
d="M180 723h436c38 0 67.667 -13 89 -39c18.667 -22.667 28 -53.334 28 -92.001c0 -36 -10.5 -66.167 -31.5 -90.5s-49.5 -36.5 -85.5 -36.5h-436c-34 0 -62.667 13.667 -86 41c-20.667 24.667 -31 53.334 -31 86.001c0 36.667 10.5 67.667 31.5 93s49.5 38 85.5 38z" />
    <glyph glyph-name="endash" unicode="&#x2013;" horiz-adv-x="1024" 
d="M123 717h778c82 0 123 -41 123 -123s-41 -123 -123 -123h-778c-82 0 -123 41 -123 123s41 123 123 123z" />
    <glyph glyph-name="emdash" unicode="&#x2014;" horiz-adv-x="2048" 
d="M0 717h2048c82 0 123 -41 123 -123s-41 -123 -123 -123h-2048c-82 0 -123 41 -123 123s41 123 123 123z" />
    <glyph glyph-name="quoteleft" unicode="&#x2018;" horiz-adv-x="492" 
d="M446 1266l-172 -308c-26 -46 -64.667 -69 -116 -69c-36 0 -68.333 13.667 -97 41s-43 58.666 -43 93.999c0 24.667 8.33301 52 25 82l170 307c26 46.667 65.667 70 119 70c38 0 71 -13.167 99 -39.5s42 -58.166 42 -95.499c0 -10 -9 -37.333 -27 -82z" />
    <glyph glyph-name="quoteright" unicode="&#x2019;" horiz-adv-x="492" 
d="M446 1266l-172 -308c-26 -46 -64.667 -69 -116 -69c-36 0 -68.333 13.667 -97 41s-43 58.666 -43 93.999c0 24.667 8.33301 52 25 82l170 307c26 46.667 65.667 70 119 70c38 0 71 -13.167 99 -39.5s42 -58.166 42 -95.499c0 -10 -9 -37.333 -27 -82z" />
    <glyph glyph-name="quotesinglbase" unicode="&#x201a;" horiz-adv-x="492" 
d="M446 102l-172 -307.001c-26 -46 -64.667 -69 -116 -69c-35.333 0 -67.5 13.5 -96.5 40.5s-43.5 58.5 -43.5 94.5c0 24.667 8.33301 52 25 82l170 307c25.333 46 65 69 119 69c38 0 71 -13 99 -39s42 -58 42 -96c0 -9.33301 -9 -36.666 -27 -81.999z" />
    <glyph glyph-name="quotedblleft" unicode="&#x201c;" horiz-adv-x="909" 
d="M864 1266l-172 -308c-26 -46 -65 -69 -117 -69c-35.333 0 -67.333 13.667 -96 41s-43 58.666 -43 93.999c0 24.667 8.33301 52 25 82l170 307c26 46.667 65.667 70 119 70c38 0 71 -13.167 99 -39.5s42 -58.166 42 -95.499c0 -10 -9 -37.333 -27 -82zM446 1266l-172 -308
c-26 -46 -64.667 -69 -116 -69c-36 0 -68.333 13.667 -97 41s-43 58.666 -43 93.999c0 24.667 8.33301 52 25 82l170 307c26 46.667 65.667 70 119 70c38 0 71 -13.167 99 -39.5s42 -58.166 42 -95.499c0 -10 -9 -37.333 -27 -82z" />
    <glyph glyph-name="quotedblright" unicode="&#x201d;" horiz-adv-x="909" 
d="M864 1266l-172 -308c-26 -46 -65 -69 -117 -69c-35.333 0 -67.333 13.667 -96 41s-43 58.666 -43 93.999c0 24.667 8.33301 52 25 82l170 307c26 46.667 65.667 70 119 70c38 0 71 -13.167 99 -39.5s42 -58.166 42 -95.499c0 -10 -9 -37.333 -27 -82zM446 1266l-172 -308
c-26 -46 -64.667 -69 -116 -69c-36 0 -68.333 13.667 -97 41s-43 58.666 -43 93.999c0 24.667 8.33301 52 25 82l170 307c26 46.667 65.667 70 119 70c38 0 71 -13.167 99 -39.5s42 -58.166 42 -95.499c0 -10 -9 -37.333 -27 -82z" />
    <glyph glyph-name="quotedblbase" unicode="&#x201e;" horiz-adv-x="909" 
d="M864 102l-172 -307.001c-26 -46 -65 -69 -117 -69c-34.667 0 -66.5 13.5 -95.5 40.5s-43.5 58.5 -43.5 94.5c0 24.667 8.33301 52 25 82l170 307c25.333 46 65 69 119 69c38 0 71 -13 99 -39s42 -58 42 -96c0 -9.33301 -9 -36.666 -27 -81.999zM446 101.999
l-172 -307.001c-26 -46 -64.667 -69 -116 -69c-35.333 0 -67.5 13.5 -96.5 40.5s-43.5 58.5 -43.5 94.5c0 24.667 8.33301 52 25 82l170 307c25.333 46 65 69 119 69c38 0 71 -13 99 -39s42 -58 42 -96c0 -9.33301 -9 -36.666 -27 -81.999z" />
    <glyph glyph-name="dagger" unicode="&#x2020;" horiz-adv-x="1290" 
d="M504 -305v1075h-336c-78 0 -117 43 -117 129s39 129 117 129h336v313c0 94.667 47 142 141 142s141 -47.333 141 -142v-313h336c78 0 117 -43 117 -129s-39 -129 -117 -129h-336v-1075c0 -94 -47 -141 -141 -141s-141 47 -141 141z" />
    <glyph glyph-name="daggerdbl" unicode="&#x2021;" horiz-adv-x="1290" 
d="M504 -305v317h-336c-78 0 -117 43 -117 129s39 129 117 129h336v500h-336c-78 0 -117 43 -117 129s39 129 117 129h336v313c0 94.667 47 142 141 142s141 -47.333 141 -142v-313h336c78 0 117 -43 117 -129s-39 -129 -117 -129h-336v-500h336c78 0 117 -43 117 -129
s-39 -129 -117 -129h-336v-317c0 -94 -47 -141 -141 -141s-141 47 -141 141z" />
    <glyph glyph-name="bullet" unicode="&#x2022;" horiz-adv-x="1024" 
d="M147 729c0 101.333 35.5 187.5 106.5 258.5s157.167 106.5 258.5 106.5s187.5 -35.5 258.5 -106.5s106.5 -157.167 106.5 -258.5s-35.333 -187.333 -106 -258s-157 -106 -259 -106s-188.333 35.333 -259 106s-106 156.667 -106 258z" />
    <glyph glyph-name="ellipsis" unicode="&#x2026;" horiz-adv-x="2048" 
d="M182 135c0 44 15.667 81.667 47 113s69 47 113 47s81.667 -15.667 113 -47s47 -69 47 -113s-15.667 -81.667 -47 -113s-69 -47 -113 -47s-81.667 15.667 -113 47s-47 69 -47 113zM864 135c0 44 15.667 81.667 47 113s69 47 113 47s81.667 -15.667 113 -47s47 -69 47 -113
s-15.667 -81.667 -47 -113s-69 -47 -113 -47s-81.667 15.667 -113 47s-47 69 -47 113zM1546 135c0 44 15.667 81.667 47 113s69 47 113 47s81.667 -15.667 113 -47s47 -69 47 -113s-15.667 -81.667 -47 -113s-69 -47 -113 -47s-81.667 15.667 -113 47s-47 69 -47 113z" />
    <glyph glyph-name="perthousand" unicode="&#x2030;" horiz-adv-x="2200" 
d="M1821 -25c-90 0 -165.166 32.499 -225.499 97.499s-90.5 142.5 -90.5 232.5c0 91.333 30 169.5 90 234.5s135.333 97.5 226 97.5c90 0 165 -32.5 225 -97.5s90 -143.167 90 -234.5s-29.333 -168.666 -88 -231.999c-60.667 -65.333 -136.334 -98 -227.001 -98z
M1821 183.999c32.667 0 59 12.334 79 37.001c18 22.667 27 50.667 27 84c0 34 -9.33301 63 -28 87s-44.667 36 -78 36s-59.5 -11.833 -78.5 -35.5s-28.5 -52.834 -28.5 -87.501c0 -34 9.5 -62.667 28.5 -86s45.167 -35 78.5 -35zM379.001 1030
c33.333 0 59.333 11.668 78 35.001s28 52 28 86c0 82 -35.333 123 -106 123c-33.333 0 -59.5 -11.833 -78.5 -35.5s-28.5 -52.834 -28.5 -87.501c0 -34 9.5 -62.667 28.5 -86s45.167 -35 78.5 -35zM305.001 152.001l678 1278c22.667 43.333 54 65 94 65
c32.667 0 61 -11.167 85 -33.5s36 -49.5 36 -81.5c0 -20.667 -5.33301 -41 -16 -61l-688 -1288c-32 -45.333 -63 -68 -93 -68c-28 0 -54.333 11.667 -79 35s-37 49.333 -37 78c0 25.333 6.66699 50.666 20 75.999zM379.001 821.002
c-88.667 0 -163.499 32.8311 -224.499 98.498s-91.5 142.834 -91.5 231.501c0 90 30.333 167.833 91 233.5s135.667 98.5 225 98.5c90 0 165 -32.667 225 -98s90 -143.333 90 -234c0 -91.333 -29.333 -168.666 -88 -231.999c-60.667 -65.333 -136.334 -98 -227.001 -98z
M1100 -25c-90 0 -165.166 32.499 -225.499 97.499s-90.5 142.5 -90.5 232.5c0 90.667 30.167 168.667 90.5 234s135.5 98 225.5 98s165 -32.5 225 -97.5s90 -143.167 90 -234.5s-29.333 -168.666 -88 -231.999c-60.667 -65.333 -136.334 -98 -227.001 -98zM1100 183.999
c33.333 0 59.333 11.668 78 35.001s28 52 28 86c0 82 -35.333 123 -106 123c-33.333 0 -59.5 -11.833 -78.5 -35.5s-28.5 -52.834 -28.5 -87.501c0 -34 9.5 -62.667 28.5 -86s45.167 -35 78.5 -35z" />
    <glyph glyph-name="guilsinglleft" unicode="&#x2039;" horiz-adv-x="606" 
d="M346 575l162 -243.001c14.667 -22 22 -45.333 22 -70c0 -38 -10.833 -69 -32.5 -93s-51.5 -36 -89.5 -36c-46.667 0 -81 17 -103 51l-211 326c-12 18.667 -18 43.334 -18 74.001c0 30 16.333 68 49 114l199 281c20 23.333 49.333 35 88 35c36 0 64.667 -10.333 86 -31
s32 -48 32 -82c0 -29.333 -7.33301 -55.333 -22 -78z" />
    <glyph glyph-name="guilsinglright" unicode="&#x203a;" horiz-adv-x="606" 
d="M98 324l162 247l-162 244c-14.667 22 -22 45.333 -22 70c0 36.667 11.5 67.334 34.5 92.001s52.5 37 88.5 37c46 0 80 -17 102 -51l211 -326c12 -18.667 18 -43.334 18 -74.001c0 -29.333 -16.333 -67.333 -49 -114l-198 -281c-20.667 -23.333 -50 -35 -88 -35
c-32.667 0 -60.667 11 -84 33s-35 48.667 -35 80c0 29.333 7.33301 55.333 22 78z" />
    <glyph glyph-name="fraction" unicode="&#x2044;" horiz-adv-x="340" 
d="M-266 152l677.999 1278c22.667 43.333 54 65 94 65c32.667 0 61 -11.167 85 -33.5s36 -49.5 36 -81.5c0 -19.333 -5.66699 -39.666 -17 -60.999l-688 -1288c-31.333 -45.333 -62 -68 -92 -68c-29.333 0 -56.166 11.667 -80.499 35s-36.5 49.333 -36.5 78
c0 24 7 49.333 21 76z" />
    <glyph glyph-name="afii61352" unicode="&#x2116;" horiz-adv-x="2271" 
d="M80 147l0.00195312 1164c0 106 51 159 153 159c23.333 0 47.166 -6.66699 71.499 -20s43.5 -29 57.5 -47l650 -866h4v774c0 106 51 159 153 159c102.667 0 154 -53 154 -159v-1164c0 -47.333 -13.833 -85.666 -41.5 -114.999s-65.167 -44 -112.5 -44
c-18.667 0 -41.667 7.33301 -69 22c-29.333 15.333 -49.333 30.333 -60 45l-649 856h-4v-764c0 -47.333 -13.833 -85.666 -41.5 -114.999s-65.167 -44 -112.5 -44c-46.667 0 -83.834 14.667 -111.501 44s-41.5 67.666 -41.5 114.999zM1824 1418
c96.667 0 177.832 -32.832 243.499 -98.499s98.5 -146.834 98.5 -243.501s-33.167 -177.5 -99.5 -242.5s-147.166 -97.5 -242.499 -97.5c-98 0 -179.833 32.167 -245.5 96.5s-98.5 145.5 -98.5 243.5c0 96 33.333 177 100 243s148 99 244 99zM1824 896
c45.333 0 81.667 19.3311 109 57.998c24 34.667 36 75.334 36 122.001c0 50.667 -11.333 92.334 -34 125.001c-26 38 -63 57 -111 57s-85.333 -19 -112 -57c-24 -33.333 -36 -75 -36 -125c0 -48 12.333 -89 37 -123c27.333 -38 64.333 -57 111 -57zM1603 615.998h436
c82 0 123 -41 123 -123s-41 -123 -123 -123h-436c-82 0 -123 41 -123 123s41 123 123 123z" />
    <glyph glyph-name="trademark" unicode="&#x2122;" horiz-adv-x="2048" 
d="M340 737v537h-162c-61.333 0 -92 30.667 -92 92s30.667 92 92 92h570c61.333 0 92 -30.667 92 -92s-30.667 -92 -92 -92h-162v-537c0 -82 -41 -123 -123 -123s-123 41 -123 123zM958 737l0.000976562 606c0 84.667 58.333 127 175 127c88 0 148.667 -42.333 182 -127
l145 -372l146 372c22 55.333 49.333 91 82 107c27.333 13.333 60.666 20 99.999 20c116 0 174 -42.333 174 -127v-606c0 -82 -37 -123 -111 -123c-73.333 0 -110 41 -110 123v426h-4l-148 -426c-15.333 -44.667 -29 -74 -41 -88c-20 -23.333 -49.333 -35 -88 -35
s-68 11.667 -88 35c-12 14 -25.667 43.333 -41 88l-147 426h-4v-426c0 -82 -37 -123 -111 -123s-111 41 -111 123z" />
    <glyph glyph-name="minus.1" unicode="&#x2212;" horiz-adv-x="1229" 
d="M195 641h839c82 0 123 -41 123 -123s-41 -123 -123 -123h-839c-82 0 -123 41 -123 123s41 123 123 123z" />
    <glyph glyph-name="periodcentered.1" unicode="&#x2219;" horiz-adv-x="549" 
d="M274 735c44 0 81.666 -15.667 112.999 -47s47 -69 47 -113c0 -45.333 -15.333 -83.166 -46 -113.499s-68.667 -45.5 -114 -45.5c-43.333 0 -80.666 15.667 -111.999 47s-47 68.666 -47 111.999c0 44 15.5 81.667 46.5 113s68.5 47 112.5 47z" />
    <glyph glyph-name="fi" unicode="&#xf001;" horiz-adv-x="1063" 
d="M152 152l0.000976562 679h-66c-86 0 -129 43.333 -129 130c0 36.667 12.333 67.334 37 92.001s55.334 37 92.001 37h66v151c0 101.333 26 181.666 78 240.999c54.667 63.333 131.667 95 231 95c120 0 180 -44.333 180 -133c0 -83.333 -36.333 -125 -109 -125
c-36 0 -59 -7.66699 -69 -23c-11.333 -17.333 -17 -46 -17 -86v-120h72c96 0 144 -43 144 -129c0 -58 -13 -95.667 -39 -113c-16.667 -11.333 -51.667 -17 -105 -17h-72v-679c0 -47.333 -12.333 -86 -37 -116c-26.667 -32 -63.334 -48 -110.001 -48s-83.334 16 -110.001 48
c-24.667 29.333 -37 68 -37 116zM688.001 152l0.000976562 786c0 47.333 13 86.5 39 117.5s62.333 46.5 109 46.5c46 0 82 -15.5 108 -46.5s39 -70.167 39 -117.5v-786c0 -47.333 -12.667 -86 -38 -116c-26.667 -32 -63 -48 -109 -48c-46.667 0 -83.334 16 -110.001 48
c-25.333 30 -38 68.667 -38 116zM836.002 1544c44.667 0 83.333 -15.668 116 -47.001s49 -69.666 49 -114.999c0 -46 -16 -85.833 -48 -119.5s-71 -50.5 -117 -50.5c-45.333 0 -84.333 17 -117 51s-49 73.667 -49 119c0 44 16.5 82 49.5 114s71.833 48 116.5 48z" />
    <glyph glyph-name="fl" unicode="&#xf002;" horiz-adv-x="1063" 
d="M152 152l0.000976562 679h-66c-86 0 -129 43.333 -129 130c0 36.667 12.333 67.334 37 92.001s55.334 37 92.001 37h66v151c0 101.333 26 181.666 78 240.999c54.667 63.333 131.667 95 231 95c120 0 180 -44.333 180 -133c0 -83.333 -36.333 -125 -109 -125
c-36 0 -59 -7.66699 -69 -23c-11.333 -17.333 -17 -46 -17 -86v-120h72c96 0 144 -43 144 -129c0 -58 -13 -95.667 -39 -113c-16.667 -11.333 -51.667 -17 -105 -17h-72v-679c0 -47.333 -12.333 -86 -37 -116c-26.667 -32 -63.334 -48 -110.001 -48s-83.334 16 -110.001 48
c-24.667 29.333 -37 68 -37 116zM688.001 152l0.000976562 1261c0 47.333 13 86.5 39 117.5s62.333 46.5 109 46.5c46 0 82 -15.5 108 -46.5s39 -70.167 39 -117.5v-1261c0 -47.333 -12.667 -86 -38 -116c-26.667 -32 -63 -48 -109 -48c-46.667 0 -83.334 16 -110.001 48
c-25.333 30 -38 68.667 -38 116z" />
    <glyph glyph-name=".null" horiz-adv-x="0" 
 />
    <glyph glyph-name="nonmarkingreturn" horiz-adv-x="1024" 
 />
    <glyph glyph-name="space" horiz-adv-x="1024" 
 />
    <glyph glyph-name="minus" horiz-adv-x="1229" 
d="M195 641h839c82 0 123 -41 123 -123s-41 -123 -123 -123h-839c-82 0 -123 41 -123 123s41 123 123 123z" />
    <glyph glyph-name="macron" horiz-adv-x="455" 
d="M37 1495h381c88.667 0 133 -41 133 -123s-44.333 -123 -133 -123h-381c-88.667 0 -133 41 -133 123s44.333 123 133 123z" />
    <glyph glyph-name="periodcentered" horiz-adv-x="549" 
d="M274 735c44 0 81.666 -15.667 112.999 -47s47 -69 47 -113c0 -45.333 -15.333 -83.166 -46 -113.499s-68.667 -45.5 -114 -45.5c-43.333 0 -80.666 15.667 -111.999 47s-47 68.666 -47 111.999c0 44 15.5 81.667 46.5 113s68.5 47 112.5 47z" />
    <glyph glyph-name="mu" horiz-adv-x="1139" 
d="M84 -283l-0.00195312 1221c0 45.333 13.333 84 40 116s62.334 48 107.001 48c46.667 0 83 -15.5 109 -46.5s39 -70.167 39 -117.5v-526c0 -56.667 17.5 -102.667 52.5 -138s80.833 -53 137.5 -53s102.667 17.667 138 53s53 81.333 53 138v526c0 45.333 13.333 84 40 116
s62.334 48 107.001 48c46.667 0 83 -15.5 109 -46.5s39 -70.167 39 -117.5v-786c0 -47.333 -12.667 -86 -38 -116c-26.667 -32 -63.334 -48 -110.001 -48c-42 0 -77 13.167 -105 39.5s-42 60.166 -42 101.499h-4c-40 -102.667 -103 -154 -189 -154
c-32.667 0 -67.167 10.167 -103.5 30.5s-63.166 44.5 -80.499 72.5h-4v-361c0 -46.667 -12.667 -85 -38 -115c-27.333 -32 -64 -48 -110 -48c-44.667 0 -80.667 16.333 -108 49c-26 30.667 -39 68.667 -39 114z" />
    </font>
</defs>
</svg>
